{"glyphs":{"0":{"ha":564,"x_min":14,"x_max":550,"o":"m 156 -10 q 85 14 113 -10 q 42 73 57 38 q 20 149 26 108 q 14 221 14 189 q 30 365 14 289 q 74 516 46 442 q 141 658 103 590 q 223 778 179 726 q 315 861 267 831 q 410 892 363 892 q 480 867 453 892 q 522 808 507 843 q 544 733 538 772 q 550 661 550 693 q 534 515 550 592 q 490 364 518 439 q 423 222 461 289 q 341 103 385 154 q 250 21 297 51 q 156 -10 203 -10 m 410 857 q 326 828 369 857 q 244 749 283 799 q 169 636 204 700 q 106 501 133 572 q 64 358 79 431 q 49 219 49 285 q 53 158 49 192 q 69 95 57 125 q 101 45 81 65 q 156 25 122 25 q 239 54 196 25 q 322 133 282 83 q 397 247 361 182 q 458 382 432 311 q 500 525 485 453 q 515 663 515 597 q 511 723 515 689 q 495 787 507 757 q 463 837 483 817 q 410 857 443 857 z "},"1":{"ha":413,"x_min":19,"x_max":403,"o":"m 283 808 q 270 814 274 808 q 267 826 267 819 q 275 840 267 836 l 378 892 q 390 894 383 894 q 399 891 394 894 q 403 882 403 888 l 403 878 q 400 869 403 875 l 53 1 q 38 -10 49 -10 q 24 -5 29 -10 q 19 6 19 0 q 19 10 19 7 q 21 14 19 13 l 349 839 l 290 810 q 283 808 289 808 z "},"2":{"ha":564,"x_min":-94,"x_max":544,"o":"m 313 -11 q 260 -2 286 -11 q 207 19 233 7 q 155 44 181 31 q 104 65 129 57 q 51 28 76 44 q 1 1 25 13 q -42 -8 -19 -8 q -81 6 -67 -8 q -94 40 -94 19 q -83 76 -94 61 q -53 99 -71 90 q -17 111 -36 107 q 18 115 3 115 q 54 113 35 115 q 96 104 74 111 q 214 211 153 149 q 332 346 275 274 q 393 431 361 383 q 451 528 425 478 q 493 626 476 578 q 510 715 510 675 q 463 826 510 789 q 354 864 417 864 q 281 849 317 864 q 219 810 246 835 q 175 753 192 786 q 158 682 158 719 q 160 652 158 663 q 166 635 163 642 q 172 625 169 629 q 174 615 174 621 q 169 604 174 608 q 157 600 164 600 q 143 607 147 600 q 124 681 124 635 q 143 768 124 728 q 195 838 163 808 q 269 883 228 867 q 356 899 311 899 q 431 886 396 899 q 490 849 465 874 q 530 791 515 825 q 544 715 544 757 q 526 617 544 671 q 479 510 507 564 q 418 405 451 456 q 354 317 385 354 q 245 192 301 250 q 135 90 189 135 q 178 71 156 82 q 224 49 201 60 q 269 31 247 39 q 311 24 292 24 q 347 33 331 24 q 379 65 364 42 q 393 74 385 74 q 406 69 400 74 q 411 57 411 64 q 408 47 411 53 q 363 2 388 15 q 313 -11 339 -11 m 18 81 q -5 78 8 81 q -31 72 -18 76 q -51 60 -43 68 q -60 40 -60 53 q -54 28 -60 32 q -42 25 -49 25 q -12 33 -32 25 q 60 76 19 49 q 38 80 49 79 q 18 81 28 81 z "},"3":{"ha":564,"x_min":-94,"x_max":576,"o":"m 78 -8 q 19 -2 50 -8 q -36 18 -11 4 q -78 53 -61 32 q -94 106 -94 75 q -72 161 -94 139 q -60 167 -68 167 q -47 162 -51 167 q -43 150 -43 157 q -51 132 -43 139 q -60 106 -60 125 q -47 68 -60 83 q -13 44 -33 53 q 31 31 7 35 q 78 26 56 26 q 245 68 169 26 q 369 186 321 110 q 407 264 394 226 q 419 333 419 301 q 374 426 419 392 q 293 386 333 403 q 211 369 253 369 q 175 378 190 369 q 160 407 160 388 q 176 443 160 428 q 216 467 193 458 q 263 481 239 476 q 301 485 286 485 q 372 468 340 485 q 434 524 404 493 q 488 589 464 554 q 526 662 511 624 q 540 740 540 700 q 528 793 540 771 q 496 831 515 815 q 451 853 476 846 q 400 861 426 861 q 338 853 371 861 q 277 828 306 844 q 230 789 249 813 q 210 733 211 765 q 193 715 210 715 q 175 733 175 715 q 199 805 176 775 q 254 855 221 835 q 326 885 288 875 q 399 894 365 894 q 467 884 435 894 q 523 853 499 874 q 562 805 547 833 q 576 740 576 776 q 561 654 576 696 q 521 575 546 613 q 465 505 496 538 q 403 447 433 472 q 442 394 429 425 q 456 331 456 364 q 443 258 456 299 q 399 168 431 218 q 263 38 346 83 q 78 -8 179 -8 m 194 411 q 197 406 194 407 q 213 404 200 404 q 278 417 246 404 q 338 444 311 429 q 301 450 321 450 q 261 445 281 450 q 227 434 242 440 q 203 422 213 428 q 194 411 194 415 z "},"4":{"ha":564,"x_min":4,"x_max":597,"o":"m 490 329 l 368 329 l 232 1 q 217 -10 228 -10 q 199 6 199 -10 q 200 14 199 11 l 332 329 l 25 329 q 4 347 4 329 q 8 356 4 353 q 15 363 11 358 l 569 892 q 582 896 574 896 q 597 878 597 896 q 596 871 597 874 l 383 364 l 490 364 q 508 347 508 364 q 490 329 508 329 m 346 364 l 532 808 l 67 364 l 346 364 z "},"5":{"ha":564,"x_min":-15,"x_max":597,"o":"m 117 492 q 104 496 110 492 q 99 507 99 500 q 101 518 99 514 l 300 869 q 315 878 306 878 l 579 878 q 597 861 597 878 q 579 843 597 843 l 326 843 l 158 547 q 219 567 185 558 q 293 576 254 576 q 431 522 381 576 q 482 383 482 468 q 467 287 482 336 q 428 191 453 238 q 369 105 403 144 q 294 39 335 65 q 223 4 258 15 q 156 -7 188 -7 q 92 3 122 -7 q 37 33 61 14 q -1 80 13 53 q -15 139 -15 107 q -10 178 -15 158 q 11 215 -4 199 q 26 221 17 221 q 39 215 36 221 q 42 203 42 208 q 31 183 42 196 q 19 138 19 171 q 32 90 19 111 q 65 56 44 69 q 108 35 85 42 q 154 28 132 28 q 213 38 182 28 q 275 68 243 47 q 346 131 314 94 q 401 211 378 168 q 436 299 424 254 q 449 383 449 343 q 405 501 449 460 q 293 543 361 543 q 239 538 265 543 q 190 524 213 532 q 153 509 168 517 q 131 497 138 501 q 124 494 128 496 q 117 492 121 492 z "},"6":{"ha":564,"x_min":18,"x_max":494,"o":"m 206 -12 q 125 4 160 -12 q 66 49 90 21 q 30 113 42 76 q 18 190 18 150 q 33 297 18 240 q 73 408 49 353 q 128 516 97 464 q 190 613 158 568 q 284 728 236 676 q 372 815 332 779 q 438 872 411 851 q 468 894 464 892 q 478 897 471 897 q 490 892 486 897 q 494 881 494 888 q 488 867 494 871 q 460 846 485 865 q 396 790 435 826 q 309 703 357 754 q 215 588 261 651 q 177 531 196 560 q 142 471 158 503 q 216 508 176 494 q 296 521 256 521 q 373 506 339 521 q 430 463 407 490 q 465 399 453 436 q 476 319 476 363 q 457 201 476 261 q 401 94 438 142 q 315 17 365 47 q 206 -12 265 -12 m 97 376 q 65 282 78 328 q 53 189 53 236 q 93 69 53 118 q 206 21 133 21 q 305 49 261 21 q 379 122 349 78 q 426 218 410 165 q 442 318 442 271 q 402 440 442 394 q 293 486 363 486 q 183 456 236 486 q 97 376 129 426 z "},"7":{"ha":564,"x_min":39,"x_max":581,"o":"m 60 -7 q 39 7 39 -7 q 43 21 39 14 l 532 843 l 153 843 q 141 848 146 843 q 136 860 136 853 q 141 872 136 867 q 153 878 146 878 l 564 878 q 576 873 571 878 q 581 861 581 868 q 575 846 581 854 l 74 3 q 60 -7 67 -7 z "},"8":{"ha":564,"x_min":-42,"x_max":608,"o":"m 131 -8 q 65 -1 96 -8 q 10 24 33 7 q -28 65 -14 40 q -42 124 -42 90 q -19 207 -42 164 q 47 292 3 250 q 144 378 89 332 q 257 472 199 425 q 212 575 231 521 q 193 681 193 629 q 221 781 193 738 q 320 862 258 836 q 444 888 382 888 q 498 882 469 888 q 550 866 526 876 q 590 840 574 856 q 606 803 606 824 q 604 796 606 797 q 608 782 608 793 q 526 659 608 736 q 300 464 444 582 q 326 421 313 443 q 350 379 339 399 q 369 345 361 360 q 381 325 378 331 q 403 260 397 290 q 410 204 410 229 q 383 108 410 149 q 317 42 357 68 q 226 4 276 17 q 131 -8 176 -8 m 274 442 q 164 351 217 396 q 71 267 111 306 q -7 124 -7 192 q 6 76 -7 94 q 38 46 18 57 q 83 31 58 35 q 132 26 107 26 q 217 38 174 26 q 296 70 261 49 q 353 125 331 92 q 375 204 375 158 q 369 255 375 228 q 349 310 364 282 q 330 342 340 324 q 309 380 319 361 q 289 415 299 399 q 274 442 279 431 m 444 853 q 336 831 390 853 q 250 761 282 810 q 228 679 228 726 q 244 588 228 635 q 283 494 260 540 q 385 579 333 536 q 479 662 438 622 q 548 733 521 701 q 575 782 575 764 l 575 790 q 572 799 572 796 q 553 824 569 814 q 517 841 538 835 q 477 850 497 847 q 444 853 457 853 z "},"9":{"ha":564,"x_min":69,"x_max":540,"o":"m 88 -8 q 74 -3 79 -8 q 69 8 69 1 q 75 21 69 15 q 92 38 75 21 q 135 83 108 54 q 196 152 161 113 q 267 238 231 192 q 324 313 296 274 q 379 393 353 353 q 265 356 322 356 q 193 372 224 356 q 144 415 163 389 q 116 475 125 442 q 107 542 107 508 q 128 661 107 600 q 188 774 150 722 q 278 858 226 825 q 388 890 329 890 q 453 876 425 890 q 501 838 482 863 q 531 782 521 814 q 540 714 540 750 q 515 581 540 653 q 476 489 500 536 q 422 394 451 442 q 358 301 392 347 q 292 214 325 256 q 222 131 256 169 q 163 63 189 92 q 119 17 136 35 q 100 -3 103 0 q 88 -8 94 -8 m 388 856 q 290 824 335 856 q 212 745 244 792 q 160 644 179 699 q 142 543 142 589 q 149 487 142 514 q 170 438 156 460 q 208 403 185 417 q 264 390 232 390 q 374 433 321 390 q 461 539 428 475 q 497 638 489 592 q 506 713 506 685 q 476 815 506 775 q 388 856 446 856 z "}," ":{"ha":342,"x_min":0,"x_max":0,"o":""},"!":{"ha":342,"x_min":49,"x_max":433,"o":"m 168 260 q 156 265 160 260 q 151 276 151 269 q 153 283 151 281 l 400 860 q 415 871 404 871 q 428 866 424 871 q 433 854 433 861 q 432 847 433 850 l 185 271 q 168 260 181 260 m 107 43 q 98 22 107 31 q 78 14 89 14 q 57 22 65 14 q 49 43 49 31 q 57 63 49 54 q 78 72 65 72 q 98 63 89 72 q 107 43 107 54 z "},"\"":{"ha":213,"x_min":86,"x_max":292,"o":"m 200 689 q 188 694 193 689 q 183 706 183 700 q 185 714 183 711 l 258 871 q 275 881 263 881 q 288 874 283 881 q 292 863 292 868 q 290 856 292 858 l 215 700 q 200 689 211 689 m 104 689 q 92 694 97 689 q 86 707 86 700 q 88 714 86 711 l 163 871 q 178 881 167 881 q 190 876 186 881 q 194 864 194 871 q 193 856 194 858 l 119 700 q 104 689 115 689 z "},"#":{"ha":683,"x_min":17,"x_max":689,"o":"m 672 638 l 536 638 l 446 433 l 565 433 q 583 415 583 433 q 578 403 583 408 q 565 399 572 399 l 431 399 l 343 200 q 326 190 338 190 q 314 196 318 190 q 310 208 310 201 q 311 215 310 214 l 392 399 l 192 399 l 104 200 q 88 190 99 190 q 75 196 79 190 q 71 207 71 201 q 72 215 71 213 l 153 399 l 33 399 q 22 403 26 399 q 17 415 17 408 q 33 433 17 433 l 168 433 l 260 638 l 140 638 q 122 656 122 638 q 128 667 122 663 q 140 672 133 672 l 275 672 l 364 871 q 379 881 367 881 q 392 875 388 881 q 396 864 396 869 q 394 856 396 858 l 313 672 l 514 672 l 603 871 q 618 881 606 881 q 631 875 626 881 q 635 864 635 869 q 633 856 635 858 l 551 672 l 672 672 q 684 667 679 672 q 689 656 689 663 q 672 638 689 638 m 207 433 l 407 433 l 499 638 l 297 638 l 207 433 z "},"$":{"ha":399,"x_min":0,"x_max":431,"o":"m 157 264 q 144 264 150 264 q 131 265 138 264 l 114 224 q 97 214 110 214 q 81 229 81 214 q 82 238 81 235 l 96 271 q 77 277 86 274 q 61 285 68 281 q 15 324 31 300 q 0 375 0 347 q 3 403 0 389 q 22 417 7 417 q 33 410 29 417 q 38 399 38 403 q 36 385 38 392 q 35 371 35 378 q 46 342 35 357 q 78 315 57 326 q 110 303 92 307 l 213 553 q 143 694 143 635 q 155 747 143 724 q 187 788 167 771 q 233 813 207 804 q 286 822 258 822 q 305 822 296 822 q 322 819 314 821 l 346 875 q 361 885 350 885 q 374 880 369 885 q 379 868 379 875 q 378 861 379 864 l 357 811 q 412 774 393 801 q 431 711 431 747 q 425 671 431 689 q 408 657 421 657 q 394 663 399 657 q 390 676 390 669 q 393 690 390 686 q 396 714 396 693 q 383 754 396 738 q 343 779 368 771 l 251 557 q 299 476 281 517 q 317 399 317 436 q 303 340 317 365 q 269 299 290 315 q 218 273 247 282 q 157 264 189 264 m 144 299 l 157 299 q 244 324 207 299 q 282 399 282 349 q 271 454 282 426 q 236 518 260 482 l 144 299 m 286 788 q 246 781 265 788 q 211 762 226 774 q 187 733 196 750 q 178 696 178 717 q 194 638 178 667 q 228 590 211 610 l 308 786 q 286 788 301 788 z "},"%":{"ha":729,"x_min":53,"x_max":676,"o":"m 129 15 q 116 20 119 15 q 113 32 113 25 q 114 40 113 38 l 522 757 q 438 714 482 729 q 350 693 393 699 q 347 674 349 683 q 342 656 344 665 q 306 569 328 610 q 258 499 285 529 q 203 452 232 469 q 146 435 174 435 q 101 449 119 436 q 73 481 83 463 q 58 524 63 500 q 53 569 53 547 q 69 669 53 613 q 113 774 85 725 q 181 858 142 824 q 264 892 219 892 q 308 878 290 892 q 338 844 326 864 q 353 799 349 824 q 357 754 357 775 q 356 741 357 747 q 356 728 356 735 q 478 769 417 738 q 581 858 540 801 l 601 894 q 615 904 606 904 q 635 885 635 904 q 632 876 635 882 l 144 24 q 129 15 140 15 m 465 -3 q 421 10 439 -3 q 392 44 403 24 q 377 88 382 64 q 372 133 372 113 q 388 233 372 176 q 423 319 401 279 q 471 390 444 360 q 526 437 497 419 q 583 454 556 454 q 628 441 610 454 q 656 408 646 428 q 672 364 667 388 q 676 319 676 340 q 661 219 676 274 q 626 132 647 172 q 578 62 604 92 q 522 15 551 32 q 465 -3 493 -3 m 585 419 q 539 404 563 419 q 492 362 515 389 q 451 299 469 335 q 421 224 432 264 q 410 176 414 200 q 407 132 407 153 q 410 99 407 117 q 419 67 413 82 q 436 42 425 53 q 464 32 447 32 q 510 48 486 32 q 556 90 533 64 q 597 152 578 117 q 626 228 615 188 q 637 276 633 253 q 640 321 640 300 q 638 355 640 338 q 628 387 635 372 q 612 410 622 401 q 585 419 601 419 m 314 692 q 221 710 257 692 q 167 790 167 735 q 129 731 146 764 q 101 661 113 697 q 91 613 94 636 q 88 569 88 590 q 90 537 88 554 q 99 505 93 519 q 117 480 106 490 q 144 469 128 469 q 190 485 167 469 q 236 528 214 501 q 277 590 258 554 q 308 665 296 625 q 314 692 311 675 m 265 857 q 214 838 240 857 q 205 814 208 826 q 201 790 201 801 q 213 757 201 769 q 242 738 225 744 q 277 728 258 731 q 311 725 296 725 l 319 725 q 321 742 321 733 q 321 758 321 750 q 318 790 321 772 q 309 822 315 807 q 292 847 303 838 q 265 857 282 857 z "},"&":{"ha":622,"x_min":-68,"x_max":624,"o":"m 69 -29 q -28 0 11 -29 q -68 85 -68 29 q -60 137 -68 108 q -28 201 -51 165 q 32 278 -3 242 q 106 347 67 314 q 185 409 144 379 q 264 467 226 439 q 253 549 257 508 q 249 629 249 590 q 260 735 249 688 q 300 822 272 783 q 360 877 324 854 q 440 900 396 900 q 492 890 468 900 q 535 861 517 879 q 563 819 553 843 q 574 769 574 796 q 541 672 574 721 q 464 581 508 624 q 374 504 419 538 q 303 453 329 471 q 339 306 318 378 q 381 174 360 235 q 456 235 419 204 q 522 293 493 267 q 568 338 550 319 q 589 365 586 357 q 606 378 594 378 q 618 372 613 378 q 624 360 624 367 q 623 358 624 358 q 622 356 622 357 q 597 317 618 342 q 542 264 575 293 q 470 202 510 235 q 393 140 431 169 q 428 50 414 83 q 443 14 442 17 q 444 12 443 13 q 444 8 444 11 q 426 -10 444 -10 q 411 0 415 -10 q 396 37 408 6 q 364 117 383 68 q 280 53 318 81 q 208 8 242 26 q 140 -20 174 -11 q 69 -29 107 -29 m 272 429 q 119 310 193 371 q 1 183 46 250 q -25 131 -17 156 q -33 85 -33 106 q -2 24 -33 42 q 68 6 29 6 q 149 20 110 6 q 226 57 189 35 q 294 105 263 79 q 351 151 326 131 q 309 282 331 210 q 272 429 288 354 m 439 865 q 372 844 403 865 q 325 800 340 824 q 290 715 299 761 q 282 631 282 668 q 285 562 282 597 q 296 490 289 526 q 365 542 324 510 q 445 612 407 574 q 511 691 483 650 q 539 771 539 732 q 508 839 539 813 q 439 865 476 865 z "},"'":{"ha":189,"x_min":129,"x_max":239,"o":"m 147 688 q 129 703 129 688 q 131 713 129 710 l 206 869 q 221 881 211 881 q 234 876 229 881 q 239 864 239 871 q 236 854 239 860 l 163 699 q 147 688 158 688 z "},"(":{"ha":440,"x_min":-36,"x_max":601,"o":"m 94 -433 q 24 -409 50 -433 q -15 -350 -1 -385 q -32 -276 -28 -315 q -36 -207 -36 -237 q -11 5 -36 -114 q 63 257 14 124 q 182 522 115 399 q 319 737 249 646 q 458 880 389 828 q 585 932 528 932 q 601 914 601 932 q 583 897 601 897 q 469 845 533 897 q 338 703 404 793 q 207 496 271 614 q 94 244 143 378 q 23 -1 47 115 q -1 -207 -1 -118 q 1 -265 -1 -232 q 15 -328 4 -299 q 44 -378 25 -357 q 94 -399 63 -399 q 106 -403 101 -399 q 111 -415 111 -408 q 94 -433 111 -433 z "},")":{"ha":440,"x_min":-161,"x_max":476,"o":"m -143 -439 q -156 -434 -150 -439 q -161 -422 -161 -429 q -143 -404 -161 -404 q -28 -352 -93 -404 q 103 -211 36 -300 q 233 -3 169 -122 q 346 247 297 115 q 417 494 393 378 q 442 699 442 610 q 439 756 442 724 q 426 819 436 789 q 398 869 417 849 q 347 890 379 890 q 329 908 329 890 q 347 925 329 925 q 415 901 389 925 q 454 841 440 876 q 472 767 468 806 q 476 697 476 728 q 451 488 476 606 q 378 236 426 369 q 259 -29 325 94 q 123 -244 193 -153 q -17 -387 53 -335 q -143 -439 -86 -439 z "},"*":{"ha":546,"x_min":53,"x_max":574,"o":"m 69 435 q 58 440 63 435 q 53 451 53 444 q 60 467 53 460 l 283 611 l 179 738 q 174 749 174 743 q 179 762 174 756 q 192 768 185 768 q 206 760 200 768 l 307 636 l 383 810 q 400 821 388 821 q 413 815 408 821 q 417 804 417 810 q 415 796 417 799 l 354 656 l 547 781 q 557 783 553 783 q 569 778 564 783 q 574 767 574 772 q 565 751 574 757 l 335 603 l 447 469 q 451 458 451 465 q 446 447 451 451 q 433 442 440 442 q 421 447 425 442 l 317 571 l 243 401 q 226 390 236 390 q 210 406 210 390 q 211 415 210 411 l 276 564 l 79 438 q 69 435 74 435 z "},"+":{"ha":594,"x_min":31,"x_max":522,"o":"m 504 358 l 283 358 l 206 161 q 189 151 200 151 q 176 156 181 151 q 172 167 172 161 q 174 175 172 172 l 247 358 l 47 358 q 35 364 40 358 q 31 376 31 369 q 35 388 31 383 q 47 393 40 393 l 261 393 l 347 608 q 364 619 351 619 q 381 601 381 619 q 379 596 381 597 l 297 393 l 504 393 q 522 376 522 393 q 504 358 522 358 z "},",":{"ha":211,"x_min":-58,"x_max":43,"o":"m -42 -110 q -54 -104 -50 -110 q -58 -92 -58 -99 q -56 -82 -58 -85 q -23 -35 -39 -60 q 1 10 -7 -10 q -11 20 -6 13 q -17 38 -17 28 q -8 57 -17 49 q 13 65 1 65 q 35 56 26 65 q 43 33 43 46 q 34 -2 43 18 q 13 -43 25 -22 q -12 -81 0 -64 q -28 -103 -24 -97 q -42 -110 -35 -110 z "},"-":{"ha":538,"x_min":51,"x_max":474,"o":"m 457 347 l 69 347 q 51 365 51 347 q 69 382 51 382 l 457 382 q 474 365 474 382 q 457 347 474 347 z "},".":{"ha":211,"x_min":-11,"x_max":46,"o":"m 46 40 q 38 19 46 28 q 17 11 29 11 q -3 19 6 11 q -11 40 -11 28 q -3 60 -11 51 q 17 69 6 69 q 38 60 29 69 q 46 40 46 51 z "},"/":{"ha":533,"x_min":-8,"x_max":450,"o":"m 8 -17 q -4 -11 0 -17 q -8 0 -8 -6 q -7 8 -8 6 l 417 894 q 432 904 421 904 q 445 899 440 904 q 450 888 450 894 q 449 881 450 883 l 24 -7 q 8 -17 19 -17 z "},":":{"ha":239,"x_min":-42,"x_max":154,"o":"m 15 40 q 7 19 15 28 q -14 11 -1 11 q -33 19 -25 11 q -42 40 -42 28 q -33 60 -42 51 q -14 69 -25 69 q 7 60 -1 69 q 15 40 15 51 m 154 378 q 146 358 154 367 q 125 350 138 350 q 106 358 114 350 q 97 378 97 367 q 106 399 97 390 q 125 407 114 407 q 146 399 138 407 q 154 378 154 390 z "},";":{"ha":236,"x_min":-68,"x_max":183,"o":"m -50 -111 q -63 -106 -58 -111 q -68 -94 -68 -101 q -64 -82 -68 -86 q -31 -34 -46 -58 q -7 10 -15 -10 q -19 20 -14 13 q -25 38 -25 28 q -16 57 -25 49 q 4 65 -7 65 q 26 56 17 65 q 35 36 35 47 q 25 -2 35 19 q 3 -44 15 -24 q -21 -82 -10 -65 q -36 -103 -32 -99 q -50 -111 -43 -111 m 183 385 q 175 364 183 372 q 156 356 167 356 q 135 364 143 356 q 126 385 126 372 q 135 404 126 396 q 156 413 143 413 q 175 404 167 413 q 183 385 183 396 z "},"<":{"ha":506,"x_min":50,"x_max":421,"o":"m 403 165 q 394 168 400 165 l 58 361 q 50 376 50 367 q 58 392 50 385 l 393 607 q 403 610 399 610 q 415 604 410 610 q 419 592 419 599 q 413 578 419 585 l 100 378 l 411 199 q 421 182 421 193 q 403 165 421 165 z "},"=":{"ha":569,"x_min":47,"x_max":533,"o":"m 451 347 l 64 347 q 47 365 47 347 q 64 382 47 382 l 451 382 q 469 365 469 382 q 451 347 469 347 m 515 486 l 128 486 q 111 504 111 486 q 116 516 111 511 q 128 521 121 521 l 515 521 q 528 516 522 521 q 533 504 533 511 q 515 486 533 486 z "},">":{"ha":506,"x_min":76,"x_max":447,"o":"m 94 165 q 76 183 76 165 q 86 199 76 192 l 396 378 l 85 578 q 76 592 76 583 q 93 611 76 611 q 104 607 97 611 l 439 392 q 447 376 447 385 q 438 361 447 368 l 103 168 q 94 165 97 165 z "},"?":{"ha":599,"x_min":104,"x_max":626,"o":"m 251 257 q 239 262 244 257 q 233 274 233 267 q 236 283 233 278 q 313 372 267 331 q 417 458 360 414 q 549 605 508 531 q 590 736 590 679 q 580 788 590 767 q 553 824 569 810 q 514 844 536 838 q 467 850 492 850 q 351 810 408 850 q 303 766 325 790 q 266 717 282 742 q 242 669 250 692 q 233 631 233 646 q 227 619 233 624 q 214 614 221 614 q 203 620 207 614 q 199 633 199 626 q 208 677 199 651 q 234 731 217 703 q 276 787 251 758 q 332 838 300 815 q 468 885 399 885 q 582 846 538 885 q 626 735 626 807 q 576 581 626 661 q 439 431 526 500 q 338 348 383 388 q 265 265 293 308 q 251 257 261 257 m 161 38 q 153 17 161 25 q 132 8 144 8 q 113 17 121 8 q 104 38 104 25 q 113 57 104 49 q 132 65 121 65 q 153 57 144 65 q 161 38 161 49 z "},"@":{"ha":888,"x_min":-43,"x_max":853,"o":"m 253 -10 q 192 20 213 -10 q 172 86 172 50 q 195 182 172 131 q 261 282 218 233 q 340 358 301 329 q 415 402 379 386 q 480 424 450 418 q 533 429 510 429 q 572 425 549 429 q 592 419 583 422 q 600 408 600 415 q 596 392 600 400 q 555 311 576 356 q 515 222 533 267 q 485 135 497 176 q 474 67 474 94 q 478 38 474 51 q 496 25 482 25 q 546 40 519 25 q 599 80 572 56 q 650 135 625 104 q 696 197 675 165 q 733 255 713 221 q 773 329 754 289 q 805 415 792 369 q 818 507 818 460 q 800 586 818 554 q 753 638 782 618 q 686 665 724 657 q 610 674 649 674 q 484 654 550 674 q 351 599 418 635 q 192 481 260 547 q 80 341 125 414 q 13 192 35 268 q -8 44 -8 115 q 6 -68 -8 -14 q 50 -164 21 -122 q 124 -231 79 -206 q 228 -257 168 -257 q 299 -248 276 -257 q 331 -239 321 -239 q 343 -244 338 -239 q 349 -257 349 -250 q 336 -274 349 -269 q 229 -292 282 -292 q 108 -263 160 -292 q 24 -188 57 -235 q -26 -81 -10 -142 q -43 43 -43 -21 q -20 200 -43 119 q 49 358 3 281 q 167 505 96 435 q 333 629 238 575 q 474 688 404 668 q 610 708 544 708 q 707 696 663 708 q 784 658 751 683 q 835 596 817 633 q 853 510 853 558 q 835 401 853 456 q 797 302 818 346 q 758 230 776 258 q 739 199 740 201 q 606 39 663 88 q 490 -10 549 -10 q 468 -2 478 -10 q 452 17 458 6 q 442 40 446 28 q 439 64 439 53 q 450 138 439 96 q 410 88 432 114 q 364 40 389 61 q 311 4 339 18 q 253 -10 283 -10 m 557 393 q 533 394 550 394 q 487 390 514 394 q 428 370 460 385 q 360 328 396 356 q 288 258 325 301 q 226 165 246 211 q 207 85 207 119 q 218 43 207 61 q 253 25 229 25 q 297 35 275 25 q 336 60 318 44 q 370 93 354 75 q 399 126 386 111 q 463 217 435 171 q 510 296 490 264 q 536 351 524 326 q 557 393 549 376 z "},"A":{"ha":783,"x_min":-28,"x_max":803,"o":"m 126 -12 q 53 6 83 -12 q 6 53 24 24 q -20 119 -12 82 q -28 193 -28 156 q 10 386 -28 278 q 139 607 49 494 q 290 756 214 700 q 433 840 365 811 q 555 878 500 869 q 642 886 610 886 q 727 877 692 886 q 782 849 763 868 q 788 838 788 843 q 784 826 788 829 q 778 822 781 824 q 760 782 776 821 q 719 685 744 743 q 665 556 694 626 q 607 421 635 486 l 589 379 q 550 289 569 333 q 515 203 531 244 q 491 128 500 163 q 482 69 482 94 q 525 22 482 22 q 585 44 551 22 q 652 98 618 67 q 718 164 686 129 q 774 225 750 199 q 786 231 778 231 q 799 225 794 231 q 803 213 803 219 q 799 201 803 206 q 726 122 763 160 q 656 53 690 83 q 588 6 621 24 q 525 -12 554 -12 q 467 10 486 -12 q 449 68 449 33 q 465 158 449 106 q 506 272 481 210 q 423 170 468 221 q 328 78 378 119 q 228 13 279 38 q 126 -12 176 -12 m 743 835 q 705 847 731 842 q 642 851 679 851 q 561 843 613 851 q 445 808 510 835 q 308 727 381 781 q 165 585 236 674 q 42 375 79 476 q 6 194 6 274 q 12 133 6 164 q 32 78 18 103 q 69 38 46 53 q 124 22 92 22 q 210 42 165 22 q 297 97 254 63 q 382 175 340 131 q 460 268 424 219 q 529 367 497 317 q 585 460 561 417 q 667 651 625 554 q 743 835 710 749 z "},"B":{"ha":807,"x_min":-21,"x_max":729,"o":"m -3 -6 q -16 -1 -11 -6 q -21 11 -21 4 q -19 18 -21 15 l 90 279 q 159 441 122 354 q 227 604 196 528 q 279 737 258 681 q 300 807 300 793 q 278 839 300 832 q 238 846 256 846 q 192 840 218 846 q 142 822 165 833 q 100 797 118 811 q 78 764 82 782 q 60 750 75 750 q 47 756 53 750 q 43 772 40 763 q 74 819 51 799 q 126 853 97 840 q 186 874 156 867 q 238 881 217 881 q 305 865 274 881 q 336 806 336 849 q 329 772 336 794 q 311 723 322 750 q 288 665 300 696 q 263 603 275 633 q 342 713 300 661 q 426 805 383 765 q 513 867 469 844 q 600 890 557 890 q 659 878 635 890 q 699 847 683 867 q 722 800 714 826 q 729 746 729 774 q 714 658 729 700 q 674 579 699 615 q 617 513 649 543 q 554 461 586 483 q 678 403 632 451 q 724 276 724 354 q 683 140 724 197 q 580 47 642 83 q 445 -8 518 10 q 310 -25 372 -25 q 196 -11 247 -25 q 117 29 144 3 q 96 76 96 50 q 102 108 96 90 q 124 125 108 125 q 136 119 132 125 q 140 108 140 114 q 135 95 140 100 q 131 76 131 90 q 142 53 131 64 q 207 22 163 33 q 308 11 251 11 q 435 26 368 11 q 559 74 503 42 q 652 156 615 106 q 689 276 689 207 q 674 347 689 318 q 635 394 660 376 q 581 420 611 413 q 517 428 550 428 q 503 427 510 428 q 489 425 496 426 q 431 400 463 414 q 371 386 399 386 q 346 401 346 386 q 354 417 346 411 q 403 440 367 428 q 475 457 440 453 q 566 515 525 481 q 635 589 607 550 q 679 669 664 628 q 694 747 694 710 q 671 826 694 797 q 599 856 647 856 q 510 826 556 856 q 420 748 465 796 q 333 638 375 700 q 252 514 290 576 q 183 393 214 451 q 132 292 153 335 l 14 6 q -3 -6 10 -6 z "},"C":{"ha":643,"x_min":35,"x_max":663,"o":"m 275 -28 q 165 -9 211 -28 q 90 43 119 10 q 48 122 61 76 q 35 222 35 168 q 55 363 35 288 q 110 512 75 438 q 193 655 144 586 q 297 776 242 724 q 415 860 353 829 q 539 892 476 892 q 629 853 600 892 q 658 757 658 815 q 649 688 658 724 q 622 621 639 653 q 579 565 604 589 q 524 528 554 540 q 518 526 522 526 q 500 544 500 526 q 511 560 500 556 q 558 591 536 569 q 594 640 579 613 q 617 697 608 667 q 625 757 625 728 q 539 857 625 857 q 425 827 482 857 q 316 747 368 797 q 219 632 264 697 q 140 496 174 567 q 88 355 107 425 q 69 224 69 285 q 118 63 69 119 q 275 7 167 7 q 384 26 335 7 q 476 75 433 44 q 558 145 519 106 q 632 225 596 185 q 644 231 638 231 q 657 226 651 231 q 663 214 663 221 q 657 201 663 207 q 585 124 624 164 q 499 50 546 83 q 396 -6 451 17 q 275 -28 340 -28 z "},"D":{"ha":872,"x_min":-60,"x_max":831,"o":"m 19 -36 q -38 -16 -17 -36 q -60 35 -60 4 q -38 83 -60 64 q 11 101 -17 101 q 63 92 33 101 q 125 71 92 82 q 199 219 163 128 q 272 410 235 310 q 321 538 296 474 q 372 656 346 601 q 424 755 397 711 q 479 824 451 799 q 492 829 488 829 q 505 824 501 829 q 508 811 508 818 q 503 799 508 803 q 451 733 476 775 q 402 638 426 692 q 354 522 378 583 q 307 397 331 460 q 233 208 269 297 q 158 60 197 119 q 247 33 199 44 q 351 22 294 22 q 536 69 454 22 q 676 188 618 115 q 765 348 733 260 q 796 521 796 436 q 769 663 796 601 q 697 767 743 725 q 589 832 651 810 q 454 854 526 854 q 363 847 410 854 q 271 821 315 840 q 201 778 232 804 q 157 711 169 751 q 153 696 154 703 q 153 683 153 689 q 157 667 153 671 q 165 654 165 661 q 159 641 165 646 q 146 636 153 636 q 124 651 131 636 q 118 683 118 665 q 160 786 118 740 q 267 857 203 832 q 358 881 310 874 q 451 889 406 889 q 603 863 533 889 q 723 788 672 836 q 802 673 774 740 q 831 522 831 606 q 796 331 831 426 q 698 159 761 235 q 547 35 635 83 q 353 -12 458 -12 q 235 1 289 -12 q 138 29 182 14 q 73 -23 106 -10 q 19 -36 40 -36 m 11 67 q -15 57 -4 67 q -26 33 -26 47 q -11 6 -26 15 q 19 -3 4 -3 q 68 13 47 -3 q 103 42 89 29 q 51 60 75 53 q 11 67 28 67 z "},"E":{"ha":624,"x_min":-37,"x_max":643,"o":"m 199 -43 q 107 -28 150 -43 q 32 13 64 -14 q -19 78 0 40 q -37 165 -37 117 q -10 273 -37 224 q 61 360 18 322 q 158 424 104 397 q 261 464 211 450 q 225 547 236 504 q 214 635 214 590 q 228 730 214 685 q 269 809 242 775 q 338 863 297 843 q 433 883 379 883 q 489 876 460 883 q 542 856 518 869 q 582 824 567 843 q 597 779 597 804 q 581 763 597 763 q 563 779 564 763 q 547 809 560 796 q 516 831 535 822 q 475 844 497 840 q 433 849 453 849 q 350 830 385 849 q 292 781 315 811 q 259 713 269 751 q 249 635 249 674 q 261 547 249 589 q 297 472 274 506 q 369 481 339 481 q 401 478 383 481 q 434 469 418 475 q 460 451 450 463 q 471 424 471 440 q 464 402 471 411 q 447 388 457 393 q 424 381 436 383 q 403 379 413 379 q 337 394 367 379 q 285 433 307 410 q 188 400 239 424 q 95 342 138 376 q 25 262 53 307 q -3 165 -3 217 q 15 88 -3 121 q 61 35 32 56 q 127 3 90 14 q 201 -7 164 -7 q 323 13 265 -7 q 431 65 381 32 q 527 139 482 97 q 611 225 572 181 q 624 232 618 232 q 638 227 632 232 q 643 215 643 222 q 636 201 643 208 q 543 106 592 150 q 440 28 494 61 q 326 -24 386 -6 q 199 -43 265 -43 m 326 442 q 365 421 346 426 q 406 415 383 415 q 427 417 418 415 q 436 424 436 419 q 428 433 436 429 q 410 440 421 438 q 388 444 400 443 q 369 446 376 446 q 326 442 351 446 z "},"F":{"ha":711,"x_min":-8,"x_max":946,"o":"m 233 685 q 226 686 229 685 q 185 720 200 697 q 171 771 171 743 q 184 822 171 797 q 221 860 197 846 q 268 878 242 872 q 322 883 294 883 q 413 876 367 883 q 511 858 458 869 q 622 840 568 847 q 732 832 676 832 q 828 840 781 832 q 921 872 875 849 q 929 874 924 874 q 942 868 938 874 q 946 856 946 863 q 936 840 946 844 q 835 806 886 815 q 732 796 783 796 q 701 797 717 796 q 669 799 685 797 q 661 790 668 793 q 619 746 642 782 q 574 658 597 710 q 525 542 550 606 q 476 417 500 479 l 606 417 q 624 400 624 417 q 606 382 624 382 l 464 382 q 402 225 432 301 q 344 90 372 149 q 271 8 318 38 q 167 -22 224 -22 q 55 10 100 -22 q -7 94 10 43 q -8 103 -8 97 q 8 119 -8 119 q 24 107 18 119 q 82 35 40 58 q 168 13 124 13 q 253 37 215 13 q 314 106 292 61 q 369 231 340 158 q 426 382 397 304 l 264 382 q 247 400 247 382 q 264 417 247 417 l 440 417 q 541 667 499 568 q 622 804 583 765 q 562 813 592 808 q 504 824 532 818 q 407 840 454 833 q 317 847 360 847 q 278 844 297 847 q 243 832 258 840 q 216 808 226 822 q 206 769 206 793 q 215 739 206 753 q 240 718 225 725 q 251 701 251 714 q 246 690 251 694 q 233 685 240 685 z "},"G":{"ha":928,"x_min":-190,"x_max":947,"o":"m -172 -33 q -190 -15 -190 -33 q -172 1 -190 1 q -99 31 -144 1 q 3 112 -53 61 q 122 228 60 163 q 243 368 183 294 q 365 527 308 447 q 461 678 421 607 q 397 718 419 690 q 374 786 374 746 q 383 834 374 810 q 407 878 392 858 q 443 912 422 899 q 489 925 464 925 q 541 903 522 925 q 560 850 560 881 q 546 773 560 810 q 514 704 532 736 q 525 703 519 704 q 536 703 531 703 q 652 710 596 703 q 755 730 708 718 q 835 757 801 742 q 882 788 868 772 q 900 800 885 800 q 911 796 906 800 q 917 781 917 792 q 906 722 917 768 q 876 612 896 676 q 824 470 856 547 q 752 317 793 393 q 659 174 711 242 q 544 60 607 106 q 621 51 582 51 q 691 59 656 51 q 763 86 726 67 q 835 141 799 106 q 917 225 872 176 q 928 231 922 231 q 947 213 947 231 q 942 201 947 207 q 856 112 892 147 q 779 56 819 76 q 697 25 738 33 q 618 17 657 17 q 504 32 561 17 q 424 -3 465 10 q 343 -15 383 -15 q 273 -4 303 -15 q 224 21 243 7 q 174 70 196 40 q 151 131 151 100 q 167 167 151 154 q 206 181 183 181 q 240 175 224 181 q 293 156 265 168 q 351 131 321 144 q 423 98 386 114 q 500 71 460 82 q 601 159 554 106 q 688 275 649 213 q 757 405 726 338 q 810 535 788 472 q 849 651 833 597 q 874 739 865 704 q 810 710 847 724 q 728 688 772 697 q 635 674 683 679 q 536 668 586 668 q 515 669 525 668 q 497 671 506 669 q 397 511 457 596 q 268 343 338 426 q 143 200 207 268 q 20 80 79 132 q -89 -3 -39 28 q -172 -33 -139 -33 m 206 146 q 190 139 194 146 q 186 124 186 132 q 201 91 186 114 q 243 49 215 68 q 284 28 260 38 q 342 19 308 19 q 403 27 374 19 q 458 47 432 35 q 396 72 426 58 q 338 99 365 85 q 268 130 306 114 q 206 146 231 146 m 489 890 q 456 880 471 890 q 430 853 440 869 q 414 819 419 838 q 408 788 408 801 q 428 736 408 754 q 479 710 447 718 q 511 778 496 743 q 526 849 526 814 q 516 878 526 867 q 489 890 506 890 z "},"H":{"ha":813,"x_min":-21,"x_max":831,"o":"m 561 -4 q 504 20 521 -4 q 488 76 488 44 q 497 147 488 106 q 523 233 507 188 q 558 325 539 278 q 593 417 576 372 q 490 392 542 393 q 385 390 438 390 q 289 388 331 390 q 217 377 247 386 q 166 349 186 368 q 133 299 146 331 l 129 292 l 97 214 q 47 94 69 147 q 13 10 25 40 q -3 -1 8 -1 q -16 3 -11 -1 q -21 15 -21 8 q -19 22 -21 19 l 65 226 q 112 340 86 278 q 163 464 138 401 q 213 585 189 526 q 256 692 238 644 q 286 773 275 740 q 297 814 297 806 q 291 835 297 826 q 275 847 285 843 q 254 853 265 851 q 233 854 243 854 q 199 851 218 854 q 160 840 179 847 q 99 807 124 826 q 74 772 74 788 q 58 758 74 758 q 40 776 40 758 q 67 824 40 800 q 128 864 94 849 q 188 883 158 878 q 236 889 217 889 q 303 871 274 889 q 332 815 332 853 q 317 753 332 796 q 277 652 301 710 q 224 527 253 594 q 171 394 196 460 q 267 422 215 419 q 386 425 319 425 q 453 424 418 425 q 519 429 488 424 q 578 449 551 435 q 624 493 606 464 q 667 595 644 542 q 713 699 690 649 q 754 795 735 750 q 788 874 774 840 q 804 885 792 885 q 817 879 813 885 q 822 867 822 874 q 819 858 822 864 q 714 615 761 724 q 639 438 667 506 q 597 332 618 385 q 560 231 576 279 q 533 142 543 183 q 522 75 522 101 q 531 42 522 54 q 561 31 539 31 q 615 48 586 31 q 674 94 643 65 q 738 157 706 122 q 801 225 771 192 q 815 231 806 231 q 831 213 831 231 q 826 201 831 206 q 758 127 792 164 q 690 61 724 90 q 624 14 657 32 q 561 -4 592 -4 z "},"I":{"ha":618,"x_min":-81,"x_max":658,"o":"m 81 -21 q 5 -5 38 -21 q -47 35 -28 11 q -81 121 -81 72 q -61 186 -81 154 q -47 194 -57 194 q -34 190 -39 194 q -29 178 -29 185 q -32 168 -29 174 q -46 121 -46 146 q -21 57 -46 86 q 20 26 -6 39 q 81 14 46 14 q 169 35 119 14 q 233 72 201 50 q 296 124 264 94 q 293 156 293 140 q 293 186 293 171 q 304 326 293 249 q 335 481 315 403 q 381 633 354 560 q 441 765 408 707 q 510 857 474 822 q 586 892 547 892 q 621 883 607 892 q 643 859 635 874 q 655 826 651 844 q 658 790 658 808 q 633 640 658 728 q 563 458 607 553 q 458 272 518 364 q 332 113 399 181 q 389 18 344 24 q 406 1 406 15 q 399 -13 406 -10 q 386 -17 393 -17 q 339 5 364 -17 q 301 83 314 26 q 243 37 272 57 q 183 3 214 17 q 130 -15 156 -10 q 81 -21 104 -21 m 589 857 q 526 825 557 857 q 465 740 494 793 q 411 617 436 686 q 367 474 386 549 q 338 324 349 399 q 328 186 328 250 l 328 157 q 444 315 390 226 q 538 492 499 403 q 601 660 578 581 q 624 792 624 740 q 617 835 624 813 q 589 857 611 857 z "},"J":{"ha":574,"x_min":-125,"x_max":592,"o":"m -28 -415 q -99 -386 -72 -415 q -125 -317 -125 -357 q -97 -229 -125 -276 q -3 -139 -69 -182 q 146 -51 82 -83 q 263 7 210 -18 q 339 192 301 101 q 409 367 376 283 q 468 524 442 450 q 511 657 494 597 q 519 715 519 688 q 475 813 519 779 q 371 846 431 846 q 256 816 304 846 q 176 738 207 786 q 130 631 144 690 q 115 511 115 571 q 135 352 115 429 q 178 215 154 275 q 222 117 201 154 q 243 79 242 81 q 246 69 246 74 q 240 58 246 63 q 228 53 235 53 q 214 61 218 53 q 190 104 211 65 q 144 205 168 143 q 99 346 119 267 q 79 510 79 425 q 98 646 79 579 q 153 765 117 713 q 244 849 189 817 q 371 881 299 881 q 504 835 454 881 q 554 714 554 789 q 544 647 554 681 q 501 513 528 586 q 444 360 475 440 q 378 197 413 281 q 310 31 343 113 q 372 64 342 47 q 433 103 403 81 q 494 155 463 125 q 563 225 526 185 q 575 231 568 231 q 592 213 592 231 q 588 201 592 206 q 508 120 544 153 q 435 63 471 88 q 365 20 400 39 q 290 -18 329 1 q 233 -151 260 -92 q 177 -258 206 -211 q 118 -339 149 -306 q 50 -393 88 -372 q -28 -415 10 -415 m 243 -40 q 142 -94 196 -64 q 17 -168 88 -124 q -65 -244 -40 -204 q -90 -315 -90 -283 q -74 -362 -90 -344 q -28 -379 -58 -379 q 33 -362 1 -379 q 144 -247 97 -326 q 243 -40 190 -167 z "},"K":{"ha":729,"x_min":-19,"x_max":792,"o":"m -3 -10 q -15 -5 -11 -10 q -19 6 -19 0 q -18 14 -19 11 q 19 107 -6 47 q 75 240 44 167 q 123 356 97 294 q 174 478 149 417 q 222 596 199 539 q 264 699 246 653 q 292 775 282 744 q 303 814 303 806 q 285 847 303 838 q 239 856 267 856 q 194 849 221 856 q 141 832 167 843 q 97 806 115 821 q 79 774 79 790 q 74 763 79 767 q 61 760 68 760 q 49 765 54 760 q 44 775 44 769 q 66 822 44 801 q 119 858 88 843 q 183 882 150 874 q 240 890 217 890 q 308 873 279 890 q 338 815 338 856 q 329 775 338 797 q 309 723 322 757 q 278 644 296 689 q 238 547 260 600 q 193 438 217 494 q 335 505 256 457 q 493 611 415 553 q 581 679 539 644 q 658 746 622 714 q 719 805 693 778 q 760 850 746 832 q 774 857 764 857 q 788 851 783 857 q 792 839 792 846 q 786 828 792 833 q 745 781 772 808 q 681 719 718 753 q 600 649 644 686 q 508 578 556 613 q 401 503 456 538 q 294 443 346 469 q 367 397 346 428 q 400 322 389 365 q 413 256 408 289 q 423 192 418 224 q 435 128 428 160 q 457 68 443 97 q 476 40 464 53 q 504 26 488 26 q 533 37 519 26 q 557 56 547 47 q 598 97 575 74 q 642 142 621 119 q 684 188 664 165 q 718 225 704 210 q 732 231 724 231 q 744 225 740 231 q 747 213 747 219 q 743 201 747 206 q 709 165 729 186 q 667 119 689 143 q 622 72 644 96 q 581 31 599 49 q 545 4 565 17 q 501 -8 525 -8 q 453 13 472 -8 q 425 54 435 33 q 397 151 408 92 q 367 315 386 211 q 332 385 358 360 q 260 411 306 411 q 209 403 233 411 q 172 386 185 396 l 14 1 q -3 -10 10 -10 z "},"L":{"ha":788,"x_min":-100,"x_max":807,"o":"m 26 -26 q -64 6 -28 -26 q -100 92 -100 39 q -88 147 -100 122 q -56 188 -76 171 q -7 213 -35 204 q 51 221 21 221 q 154 198 106 221 q 244 149 203 175 q 311 265 281 201 q 369 400 342 329 q 408 496 389 449 q 446 590 426 543 q 333 582 388 582 q 203 595 263 582 q 106 632 144 608 q 64 672 74 651 q 54 707 54 692 q 72 728 54 728 q 84 724 79 728 q 89 713 89 719 q 99 681 89 693 q 124 661 110 669 q 211 629 156 642 q 335 617 267 617 q 397 619 365 617 q 461 628 429 621 q 503 718 479 671 q 557 805 526 765 q 626 871 588 844 q 711 897 664 897 q 767 876 746 897 q 788 822 788 854 q 755 733 788 771 q 675 667 722 694 q 576 623 628 640 q 486 597 524 606 q 442 492 463 544 q 401 388 422 439 q 340 247 369 308 q 274 131 311 185 q 284 123 279 126 q 294 117 289 119 q 401 51 349 81 q 508 22 453 22 q 565 32 538 22 q 608 56 583 38 q 660 101 633 75 q 717 159 688 126 q 776 225 747 192 q 789 232 783 232 q 807 215 807 232 q 801 201 807 207 q 672 65 722 115 q 576 -1 621 14 q 508 -12 544 -12 q 388 19 444 -12 q 275 88 331 50 l 254 101 q 153 10 210 47 q 26 -26 96 -26 m 49 186 q -31 160 4 186 q -65 90 -65 135 q -37 29 -65 50 q 25 8 -10 8 q 138 42 88 8 q 225 121 189 76 q 141 165 185 147 q 49 186 97 183 m 711 863 q 640 838 672 863 q 581 778 607 814 q 535 705 556 743 q 503 638 515 667 q 579 662 536 646 q 661 701 622 678 q 726 755 700 724 q 753 824 753 786 q 740 853 753 843 q 711 863 728 863 z "},"M":{"ha":1110,"x_min":-19,"x_max":1128,"o":"m -1 -4 q -19 10 -19 -4 q -18 19 -19 17 q 26 125 -3 56 q 90 279 54 194 q 158 439 121 351 q 227 605 194 526 q 282 742 260 683 q 304 814 304 800 q 298 835 304 826 q 282 847 292 843 q 261 853 272 851 q 240 854 250 854 q 197 849 224 854 q 144 833 169 843 q 99 807 118 822 q 81 772 81 792 q 75 762 81 765 q 63 758 69 758 q 50 764 54 758 q 46 775 46 769 q 66 821 46 800 q 115 857 86 842 q 178 881 144 872 q 240 889 213 889 q 308 872 276 889 q 339 814 339 854 q 331 776 339 801 q 311 720 322 750 q 288 661 300 690 q 267 614 275 632 q 345 719 304 668 q 428 809 386 769 q 512 873 469 849 q 593 897 554 897 q 671 861 647 897 q 694 772 694 825 q 690 716 694 744 q 678 660 685 688 q 745 742 708 700 q 823 818 782 783 q 908 874 864 853 q 999 896 953 896 q 1065 865 1044 896 q 1085 793 1085 833 q 1071 705 1085 754 q 1038 606 1057 656 q 997 508 1018 556 q 963 428 976 461 q 925 339 947 390 q 883 236 903 288 q 849 140 863 185 q 835 69 835 94 q 844 38 835 53 q 875 22 854 22 q 922 45 893 22 q 983 100 950 68 q 1046 167 1015 132 q 1099 225 1076 201 q 1111 231 1104 231 q 1123 225 1118 231 q 1128 213 1128 219 q 1124 201 1128 206 q 1059 131 1093 168 q 992 62 1025 93 q 929 10 960 31 q 876 -11 899 -11 q 819 13 838 -11 q 800 68 800 36 q 815 149 800 99 q 850 252 829 199 q 893 357 871 306 q 931 442 915 408 q 965 524 944 476 q 1006 621 986 571 q 1038 717 1025 671 q 1051 793 1051 763 q 1038 842 1051 822 q 997 863 1025 863 q 888 823 944 863 q 781 728 832 783 q 688 613 729 672 q 624 511 646 553 q 569 389 597 454 q 515 257 542 324 q 463 126 488 190 q 417 8 438 63 q 400 -3 413 -3 q 383 13 383 -3 q 385 21 383 18 q 408 80 393 43 q 440 163 422 117 q 478 259 458 208 q 519 360 499 310 q 560 457 540 410 q 599 542 581 504 q 642 657 625 600 q 660 772 660 714 q 645 835 660 808 q 593 863 631 863 q 523 839 561 863 q 444 776 485 815 q 364 688 404 738 q 287 583 324 638 q 220 476 250 529 q 169 378 190 422 q 122 263 146 321 q 76 154 97 206 q 38 64 54 103 q 14 7 21 25 q -1 -4 10 -4 z "},"N":{"ha":754,"x_min":-21,"x_max":774,"o":"m 513 -12 q 457 10 472 -12 q 442 64 442 33 q 454 133 442 92 q 484 219 467 175 q 519 306 501 264 q 550 378 538 349 q 610 521 581 449 q 661 660 639 593 q 681 732 674 700 q 688 789 688 764 q 676 837 688 817 q 636 857 664 857 q 519 814 583 857 q 392 708 454 771 q 277 574 329 644 q 197 447 225 503 l 13 3 q -3 -8 8 -8 q -21 8 -21 -8 q -19 17 -21 13 q 69 232 24 119 q 160 451 115 344 q 215 585 189 524 q 259 694 240 647 q 289 772 278 742 q 300 813 300 803 q 279 845 300 839 q 240 851 258 851 q 193 844 221 851 q 140 826 165 838 q 96 800 114 815 q 78 768 78 785 q 72 758 78 761 q 61 754 67 754 q 47 760 51 754 q 43 774 43 767 q 65 819 43 799 q 119 855 88 840 q 183 878 150 869 q 236 886 215 886 q 284 879 263 886 q 318 857 306 872 q 331 839 325 850 q 336 811 336 828 q 328 771 336 793 q 304 709 321 750 q 267 615 288 668 q 342 704 299 656 q 434 794 385 753 q 535 864 483 836 q 638 892 588 892 q 703 859 685 892 q 722 789 722 826 q 693 649 722 732 q 641 508 669 581 q 582 364 613 436 q 545 278 564 322 q 511 193 526 233 q 486 118 496 153 q 476 61 476 83 q 513 22 476 22 q 567 49 533 22 q 637 111 601 76 q 702 179 672 146 q 743 225 732 213 q 756 231 749 231 q 769 226 764 231 q 774 214 774 221 q 768 201 774 207 q 717 144 749 181 q 648 74 685 108 q 575 13 611 39 q 513 -12 539 -12 z "},"O":{"ha":749,"x_min":33,"x_max":829,"o":"m 235 -19 q 142 8 181 -19 q 79 76 103 35 q 44 166 56 117 q 33 260 33 215 q 49 398 33 325 q 94 542 65 471 q 167 679 124 614 q 263 794 210 744 q 381 873 317 843 q 517 903 444 903 q 551 899 531 903 q 571 881 571 896 q 565 866 571 869 q 553 863 558 863 q 539 865 549 863 q 510 868 529 868 q 385 838 443 868 q 277 760 326 808 q 189 648 228 711 q 123 517 150 585 q 81 383 96 450 q 67 261 67 317 q 76 177 67 221 q 105 97 85 133 q 157 38 125 61 q 235 15 189 15 q 313 31 274 15 q 390 76 353 47 q 463 142 428 104 q 529 225 499 181 q 613 375 578 296 q 667 525 647 454 q 632 521 650 521 q 572 536 599 521 q 526 575 544 551 q 499 628 508 599 q 489 688 489 658 q 498 744 489 713 q 523 801 507 775 q 562 846 539 828 q 614 864 585 864 q 666 848 644 864 q 700 807 688 832 q 718 752 713 782 q 724 693 724 722 q 722 640 724 668 q 714 582 719 611 q 770 628 746 603 q 794 689 794 653 q 799 701 794 696 q 811 706 804 706 q 826 699 822 706 q 829 683 829 692 q 819 644 829 665 q 792 604 810 624 q 753 567 775 585 q 706 539 731 550 q 649 370 686 458 q 560 203 613 282 q 490 115 528 156 q 411 44 453 74 q 325 -3 369 14 q 235 -19 281 -19 m 618 829 q 578 814 596 829 q 549 777 561 799 q 530 731 536 756 q 524 689 524 707 q 531 641 524 665 q 553 598 539 617 q 586 567 567 579 q 631 556 606 556 q 653 558 642 556 q 675 564 664 561 q 690 689 690 632 q 687 731 690 707 q 675 776 683 754 q 653 814 667 799 q 618 829 639 829 z "},"P":{"ha":633,"x_min":-19,"x_max":704,"o":"m 278 249 q 242 251 263 249 q 203 260 221 253 q 172 278 185 267 q 160 311 160 290 q 178 329 160 329 q 194 311 194 329 q 206 296 194 301 q 231 288 217 290 q 260 284 246 285 q 278 283 274 283 q 342 291 307 283 q 415 316 378 299 q 490 360 453 333 q 558 428 526 388 q 608 502 588 463 q 642 583 629 542 q 663 663 656 624 q 669 736 669 703 q 652 824 669 788 q 588 860 635 860 q 512 833 553 860 q 428 762 471 807 q 344 659 386 717 q 263 539 301 601 q 192 414 224 476 q 138 297 160 351 l 14 -3 q -3 -14 10 -14 q -15 -9 -10 -14 q -19 0 -19 -4 q -18 10 -19 7 q 23 111 -4 46 q 83 257 50 176 q 131 369 106 310 q 181 488 156 429 q 228 601 206 546 q 267 700 250 656 q 295 775 285 744 q 306 815 306 806 q 283 847 306 839 q 243 854 261 854 q 194 847 222 854 q 142 829 167 840 q 100 803 117 818 q 83 772 83 789 q 65 758 83 758 q 49 781 49 758 q 69 822 49 803 q 120 856 90 842 q 184 880 150 871 q 243 889 218 889 q 310 873 281 889 q 340 813 340 857 q 333 774 340 799 q 314 721 325 749 q 291 666 303 693 q 272 621 279 639 q 333 706 299 658 q 410 796 368 754 q 497 866 451 838 q 590 894 543 894 q 647 880 625 894 q 682 842 669 865 q 699 790 694 819 q 704 731 704 760 q 697 654 704 694 q 676 572 690 614 q 638 487 661 529 q 585 406 615 444 q 509 333 549 363 q 429 284 469 303 q 350 257 389 265 q 278 249 311 249 z "},"Q":{"ha":694,"x_min":-18,"x_max":714,"o":"m 67 -17 q 39 -14 54 -17 q 11 -5 24 -11 q -10 11 -1 1 q -18 36 -18 21 q -6 68 -18 56 q 22 88 6 81 q 58 99 39 96 q 90 103 76 103 q 161 94 126 103 q 222 76 196 85 q 372 199 303 128 q 490 349 440 269 q 567 511 539 428 q 594 672 594 594 q 584 744 594 710 q 553 805 574 778 q 504 848 533 832 q 438 864 475 864 q 338 840 383 864 q 253 778 292 817 q 184 689 214 739 q 133 585 154 639 q 102 479 113 532 q 92 383 92 426 q 93 354 92 372 q 99 319 94 336 q 113 290 104 303 q 135 278 121 278 q 150 272 146 278 q 154 261 154 267 q 136 243 154 243 q 94 259 110 243 q 71 297 79 275 q 60 344 63 319 q 57 386 57 369 q 69 495 57 438 q 106 610 82 553 q 163 719 129 667 q 239 812 197 772 q 331 875 281 851 q 438 899 382 899 q 521 878 485 899 q 581 826 557 858 q 617 753 606 794 q 629 671 629 713 q 599 494 629 582 q 517 326 568 406 q 400 178 467 246 q 263 63 333 110 q 290 53 272 58 q 327 41 307 47 q 368 31 347 35 q 408 26 389 26 q 496 47 456 26 q 555 89 526 64 q 607 140 583 114 q 650 189 631 165 q 683 225 669 213 q 696 231 689 231 q 708 226 703 231 q 714 214 714 221 q 708 201 714 207 q 669 157 692 182 q 622 106 647 132 q 569 58 597 81 q 513 18 542 35 q 462 -3 488 3 q 410 -8 436 -8 q 311 8 358 -8 q 225 39 264 25 q 137 -3 178 11 q 67 -17 96 -17 m 90 68 q 68 66 81 68 q 44 60 56 64 q 24 51 32 57 q 17 38 17 46 q 23 28 17 32 q 38 22 29 24 q 54 19 46 19 q 67 18 63 18 q 118 26 89 18 q 181 53 147 35 q 137 63 161 58 q 90 68 113 68 z "},"R":{"ha":743,"x_min":-18,"x_max":761,"o":"m -1 -14 q -13 -10 -8 -14 q -18 0 -18 -7 q -17 10 -18 7 q 3 58 -10 28 q 35 135 15 88 q 83 250 54 182 q 151 414 111 318 q 203 538 176 474 q 253 659 231 603 q 292 756 276 715 q 307 808 307 796 q 285 842 307 835 q 244 850 264 850 q 201 844 228 850 q 148 828 174 839 q 103 801 122 817 q 83 767 83 786 q 78 758 83 761 q 67 754 74 754 q 50 768 50 754 q 72 819 50 797 q 126 855 94 840 q 190 877 157 869 q 244 885 224 885 q 311 867 281 885 q 342 810 342 850 q 335 776 342 797 q 320 733 329 756 q 301 687 311 710 q 285 647 292 664 q 343 730 311 688 q 412 808 375 772 q 490 866 449 843 q 579 889 532 889 q 632 875 610 889 q 669 839 654 861 q 690 790 683 817 q 696 736 696 763 q 658 578 696 651 q 558 452 619 506 q 420 368 496 399 q 269 338 344 338 q 244 338 256 338 q 222 340 233 339 q 265 241 240 296 q 318 139 289 186 q 381 60 347 92 q 451 28 415 28 q 538 48 497 28 q 613 99 578 68 q 677 163 647 129 q 732 225 707 197 q 746 231 738 231 q 758 225 754 231 q 761 213 761 219 q 757 201 761 206 q 672 110 710 149 q 598 46 633 72 q 528 7 563 19 q 451 -6 493 -6 q 364 30 404 -6 q 290 119 324 65 q 228 236 257 172 q 178 357 200 300 q 175 363 176 360 q 174 368 174 365 q 178 381 174 376 q 189 386 183 386 q 200 385 196 386 q 269 374 219 374 q 414 403 343 374 q 540 482 485 432 q 628 598 594 532 q 661 739 661 664 q 642 818 661 782 q 578 854 622 854 q 488 824 533 854 q 386 729 443 794 q 334 660 361 701 q 280 573 307 618 q 228 484 253 528 q 186 407 204 440 q 115 240 144 310 q 67 123 86 171 q 35 45 47 75 q 15 -3 22 15 q -1 -14 11 -14 z "},"S":{"ha":724,"x_min":-49,"x_max":742,"o":"m 272 -57 q 240 -55 257 -57 q 208 -47 222 -53 q 183 -29 193 -40 q 172 -1 172 -18 q 192 44 172 29 q 241 64 213 58 q 299 69 269 69 q 346 68 328 68 q 427 69 386 68 q 490 72 468 69 q 507 96 500 82 q 519 126 514 110 q 526 156 524 142 q 528 181 528 171 q 497 299 528 239 q 429 422 467 360 q 392 485 410 454 q 358 547 374 515 q 249 384 306 468 q 138 219 192 300 q -17 -10 51 94 q -32 -17 -21 -17 q -44 -12 -39 -17 q -49 0 -49 -7 q -46 10 -49 4 l 108 239 q 227 414 167 325 q 342 586 288 503 q 319 699 319 646 q 335 783 319 743 q 356 829 343 806 q 387 872 369 853 q 425 903 404 892 q 471 915 446 915 q 522 889 504 915 q 532 851 532 874 q 510 783 532 818 q 451 690 483 740 q 381 582 418 639 q 417 511 396 546 q 458 440 438 476 q 531 311 497 376 q 564 179 564 246 q 539 82 564 129 q 620 132 579 97 q 713 225 661 167 q 726 231 718 231 q 738 225 735 231 q 742 214 742 219 q 738 201 742 207 q 620 88 672 126 q 508 39 568 49 q 459 -3 488 15 q 399 -33 431 -21 q 334 -51 367 -44 q 272 -57 301 -57 m 469 881 q 418 855 446 881 q 368 771 390 829 q 354 699 354 738 q 367 624 354 661 q 428 717 399 672 q 481 801 457 763 q 497 850 497 828 q 469 881 497 881 m 322 33 q 290 33 310 33 q 251 31 269 33 q 220 21 233 28 q 207 0 207 14 q 215 -12 207 -8 q 235 -19 224 -17 q 256 -22 246 -21 q 271 -22 267 -22 q 363 -8 315 -22 q 451 35 411 7 q 395 33 425 33 q 322 33 365 33 z "},"T":{"ha":424,"x_min":-46,"x_max":724,"o":"m 69 -4 q 51 11 51 -4 q 53 19 51 17 l 169 296 q 228 438 199 367 q 286 576 258 510 l 321 661 q 359 753 343 717 q 388 808 375 789 l 331 818 q 226 834 276 828 q 131 840 175 840 q 30 822 71 840 q -11 763 -11 803 q 0 724 -11 742 q 35 707 11 707 q 49 692 49 707 q 43 679 49 685 q 31 674 38 674 l 26 674 q -24 701 -1 674 q -46 763 -46 729 q -30 815 -46 793 q 12 851 -14 838 q 69 870 38 864 q 133 876 101 876 q 231 869 179 876 q 336 853 282 861 q 447 836 392 843 q 553 829 501 829 q 632 836 597 829 q 697 860 667 843 q 708 863 703 863 q 720 858 717 863 q 724 846 724 853 q 715 829 724 835 q 639 802 681 810 q 553 794 597 794 q 490 797 522 794 q 425 804 457 800 q 411 783 419 799 q 393 744 403 767 q 373 697 383 722 q 353 649 363 672 l 318 564 l 201 282 l 85 6 q 69 -4 79 -4 z "},"U":{"ha":754,"x_min":-21,"x_max":774,"o":"m 90 -14 q 24 15 42 -14 q 7 81 7 43 q 20 174 7 121 q 56 288 33 226 q 105 415 78 349 q 161 547 132 481 q 190 613 172 574 q 223 692 207 653 q 250 766 239 732 q 261 817 261 800 q 253 834 261 828 q 235 844 246 840 q 215 848 225 847 q 197 849 204 849 q 147 842 178 849 q 87 825 117 836 q 35 798 57 814 q 14 763 14 782 q 8 751 14 756 q -4 746 3 746 q -16 751 -11 746 q -21 763 -21 756 q 4 816 -21 793 q 64 854 29 839 q 135 876 99 869 q 196 883 172 883 q 231 880 213 883 q 263 869 249 876 q 287 848 278 861 q 296 817 296 835 q 283 756 296 794 q 254 676 271 718 q 220 596 238 635 q 193 535 203 557 q 140 409 167 474 q 91 284 113 344 q 56 171 69 224 q 42 82 42 118 q 50 38 42 54 q 89 21 58 21 q 183 56 131 21 q 288 143 235 90 q 389 260 340 196 q 474 381 438 324 q 549 505 508 439 q 626 634 589 571 q 692 751 663 697 q 733 840 721 806 q 749 851 736 851 q 767 833 767 851 q 765 828 767 831 q 764 825 764 826 q 743 779 749 793 q 736 764 739 771 q 693 669 718 725 q 640 547 668 613 q 583 413 611 482 q 533 281 556 344 q 496 165 510 217 q 482 81 482 113 q 489 42 482 61 q 515 24 496 24 q 567 47 536 24 q 630 103 597 71 q 693 169 663 135 q 743 225 724 204 q 757 231 749 231 q 769 225 764 231 q 774 214 774 219 q 768 201 774 207 q 621 47 682 106 q 514 -11 560 -11 q 482 -2 494 -11 q 463 20 469 7 q 452 49 456 33 q 449 81 449 65 q 480 239 449 143 q 564 461 511 335 l 504 363 q 460 297 488 335 q 400 217 433 258 q 328 133 367 175 q 249 59 289 92 q 168 6 208 26 q 90 -14 128 -14 z "},"V":{"ha":635,"x_min":-22,"x_max":753,"o":"m 133 -22 q 101 -13 114 -22 q 81 10 88 -4 q 71 40 74 24 q 68 72 68 57 q 102 267 68 146 q 186 544 136 389 q 208 608 196 575 q 229 674 219 642 q 245 733 239 706 q 251 781 251 761 q 228 829 251 815 q 178 843 206 843 q 133 838 161 843 q 77 821 104 832 q 31 794 50 810 q 11 756 11 778 q -6 738 11 738 q -17 741 -12 738 q -22 751 -22 744 q 1 812 -22 788 q 56 851 24 836 q 121 872 88 865 q 175 878 154 878 q 258 852 229 878 q 288 779 288 826 q 280 729 288 760 q 262 664 272 699 q 240 594 251 629 q 219 535 228 560 q 182 415 203 481 q 144 285 161 350 q 115 163 126 221 q 103 68 103 106 q 108 31 103 49 q 133 13 114 13 q 213 47 163 13 q 322 138 263 81 q 442 268 381 194 q 557 421 504 342 q 635 559 604 493 q 685 680 667 625 q 712 776 704 735 q 719 838 719 817 q 716 856 719 849 q 713 869 713 863 q 728 885 713 885 q 742 878 738 885 q 749 864 747 872 q 752 847 751 856 q 753 833 753 838 q 742 754 753 801 q 711 649 732 707 q 658 528 690 592 q 585 401 626 465 q 485 266 544 340 q 363 128 426 192 q 238 21 299 64 q 133 -22 176 -22 z "},"W":{"ha":1006,"x_min":-81,"x_max":1125,"o":"m 101 -18 q 65 -8 79 -18 q 42 16 50 1 q 30 49 33 31 q 26 85 26 68 q 57 278 26 158 q 132 554 88 399 q 151 620 142 586 q 169 685 161 654 q 183 742 178 717 q 189 783 189 768 q 167 832 189 818 q 114 846 146 846 q 59 838 88 846 q 7 818 31 831 q -32 791 -17 806 q -47 763 -47 776 q -52 755 -47 757 q -62 753 -57 753 q -78 760 -75 753 q -81 776 -81 768 q -62 810 -81 792 q -17 844 -44 828 q 45 871 11 860 q 113 882 79 882 q 195 856 165 882 q 225 783 225 829 q 219 740 225 768 q 203 677 213 711 q 184 608 194 643 q 165 544 174 574 q 131 427 150 492 q 97 299 113 363 q 72 177 82 235 q 61 81 61 119 q 69 37 61 57 q 100 17 76 17 q 181 53 135 17 q 278 149 226 89 q 385 286 331 208 q 493 446 440 364 q 527 577 508 513 q 566 696 546 642 q 606 789 586 750 q 642 843 625 828 q 655 853 647 849 q 669 857 663 857 q 701 838 690 857 q 711 804 711 819 q 696 737 711 776 q 656 649 681 697 q 597 546 631 601 q 525 431 563 490 q 497 283 508 356 q 486 149 486 211 q 487 106 486 128 q 492 67 488 85 q 506 39 497 50 q 532 28 515 28 q 602 51 563 28 q 684 111 642 74 q 769 196 726 149 q 853 290 813 243 q 901 358 875 317 q 953 447 926 399 q 1006 547 981 496 q 1049 646 1031 599 q 1080 733 1068 693 q 1092 797 1092 772 q 1078 838 1092 825 q 1071 850 1071 842 q 1076 863 1071 857 q 1088 868 1081 868 q 1099 864 1094 868 q 1125 796 1125 843 q 1112 715 1125 761 q 1077 619 1099 669 q 1029 517 1056 568 q 976 419 1003 465 q 926 336 950 374 q 885 276 901 299 q 817 194 860 243 q 724 100 774 144 q 623 24 674 56 q 531 -8 572 -8 q 487 8 503 -8 q 463 48 471 25 q 453 97 456 71 q 451 142 451 122 q 457 240 451 186 q 474 351 463 293 q 431 290 456 326 q 375 212 406 253 q 310 130 344 171 q 240 56 275 89 q 169 3 204 24 q 101 -18 133 -18 m 668 821 q 648 798 661 821 q 619 737 635 775 q 587 648 604 699 q 554 542 569 597 q 599 618 576 579 q 638 692 621 657 q 666 755 656 726 q 676 803 676 783 q 676 815 676 810 q 668 821 675 821 z "},"X":{"ha":764,"x_min":-56,"x_max":782,"o":"m -37 -18 q -51 -12 -47 -18 q -56 0 -56 -7 q -46 15 -56 10 q 47 93 -10 36 q 172 228 104 150 q 259 329 214 276 q 349 436 304 382 l 344 493 q 330 665 338 585 q 307 801 322 744 q 267 851 297 838 q 206 864 236 864 q 165 858 189 864 q 117 842 140 853 q 78 815 94 832 q 63 775 63 797 q 65 758 63 765 q 68 744 68 751 q 63 732 68 738 q 51 726 58 726 q 31 744 35 726 q 28 774 28 763 q 46 829 28 806 q 90 868 64 853 q 148 891 117 883 q 207 899 179 899 q 292 876 254 899 q 342 811 331 854 q 356 738 350 781 q 366 647 361 694 q 374 554 371 600 q 379 474 376 508 q 456 568 411 514 q 549 678 501 622 q 610 749 579 715 q 666 811 640 783 q 711 858 692 839 q 742 885 731 878 q 751 888 747 888 q 763 882 758 888 q 768 869 768 876 q 760 856 768 860 q 685 784 736 840 q 568 649 635 728 q 511 581 540 617 q 453 510 482 546 l 383 425 q 393 321 389 374 q 407 213 397 268 q 421 146 413 179 q 441 85 429 113 q 469 41 453 58 q 508 24 486 24 q 560 40 531 24 q 620 85 589 57 q 685 150 651 114 q 753 225 719 186 q 765 231 758 231 q 777 226 772 231 q 782 214 782 221 q 778 201 782 206 q 709 126 744 164 q 639 57 674 88 q 571 8 604 26 q 508 -11 538 -11 q 453 9 476 -11 q 413 62 429 29 q 385 136 396 94 q 369 221 375 178 q 360 302 363 261 q 351 386 357 343 q 271 289 311 336 q 192 197 231 242 q 67 64 125 121 q -28 -15 10 7 q -37 -18 -33 -18 z "},"Y":{"ha":782,"x_min":-21,"x_max":826,"o":"m 149 -12 q 83 15 103 -12 q 63 78 63 42 q 68 126 63 100 q 85 188 74 153 q 113 267 96 222 q 156 371 131 313 q 209 500 181 429 q 263 635 238 571 q 304 749 288 700 q 321 814 321 799 q 314 833 321 826 q 298 844 307 840 q 278 849 289 849 q 258 850 267 850 q 211 844 242 850 q 149 826 181 838 q 95 799 118 815 q 72 764 72 783 q 56 746 72 746 q 38 764 38 746 q 63 815 38 793 q 124 853 89 838 q 197 877 160 869 q 257 885 235 885 q 324 869 293 885 q 356 817 356 854 q 339 746 356 797 q 297 628 322 694 q 242 490 272 563 q 188 357 213 418 q 156 281 172 319 q 128 205 140 242 q 107 135 115 168 q 99 76 99 103 q 109 36 99 50 q 149 22 119 22 q 219 44 181 22 q 301 103 258 65 q 387 190 343 140 q 472 294 431 239 q 503 338 488 317 q 533 382 518 360 q 616 513 575 446 q 692 642 657 581 q 753 755 726 703 q 792 842 779 807 q 810 853 796 853 q 822 848 818 853 q 826 836 826 843 q 824 826 826 832 q 811 797 818 813 q 797 767 804 782 l 775 715 q 737 626 760 679 q 687 509 714 572 q 630 378 660 446 q 571 244 600 310 q 506 104 538 169 q 450 -8 475 39 q 542 42 497 17 q 629 96 586 67 q 697 151 663 119 q 771 225 732 182 q 785 232 775 232 q 801 215 801 232 q 796 201 801 207 q 647 67 728 125 q 532 -6 594 28 q 419 -68 469 -39 l 408 -89 q 364 -175 386 -133 q 315 -256 342 -217 q 256 -331 289 -294 q 179 -401 224 -367 q 131 -428 156 -421 q 83 -436 107 -436 q 11 -410 43 -436 q -21 -344 -21 -385 q 13 -264 -21 -306 q 116 -184 51 -219 q 256 -112 181 -149 q 325 -79 290 -96 q 393 -43 360 -62 q 465 99 428 24 q 536 250 501 175 q 588 367 563 308 q 639 482 614 425 q 584 397 606 431 q 547 339 563 363 q 519 299 531 315 q 496 268 508 283 q 422 176 464 225 q 333 85 379 126 q 240 15 288 43 q 149 -12 192 -12 m 365 -97 q 331 -114 347 -106 q 299 -129 315 -121 q 271 -143 283 -137 q 136 -211 199 -176 q 40 -286 74 -246 q 14 -347 14 -317 q 35 -386 14 -371 q 83 -401 56 -401 q 158 -374 122 -401 q 227 -311 197 -343 q 281 -244 257 -279 q 326 -173 306 -210 q 365 -97 346 -136 z "},"Z":{"ha":649,"x_min":-69,"x_max":667,"o":"m -4 -429 q -51 -414 -32 -429 q -69 -372 -69 -399 q -41 -300 -69 -340 q 40 -219 -12 -260 q 190 -124 114 -164 q 340 -36 267 -83 q 344 -9 343 -22 q 346 17 346 4 q 318 113 346 72 q 267 160 297 142 q 176 122 222 138 q 82 107 129 107 q 26 117 53 107 q -1 156 -1 128 q 16 192 -1 178 q 57 213 33 206 q 105 224 81 221 q 143 226 129 226 q 267 199 211 226 q 367 270 318 228 q 457 364 415 313 q 531 474 499 415 q 583 594 564 532 q 595 644 592 621 q 599 689 599 667 q 551 810 599 765 q 425 856 504 856 q 347 847 388 856 q 269 819 307 838 q 218 790 243 807 q 174 751 193 772 q 144 708 156 731 q 133 665 133 686 q 115 647 133 647 q 99 663 99 647 q 140 765 99 711 q 257 853 181 818 q 332 879 292 868 q 421 890 372 890 q 577 834 521 890 q 633 690 633 778 q 615 583 633 642 q 564 462 596 521 q 491 351 532 403 q 401 255 450 299 q 300 179 353 211 q 325 158 314 169 q 347 132 336 146 q 373 78 365 108 q 381 15 381 47 q 381 2 381 8 q 379 -11 381 -4 q 500 84 438 29 q 638 225 563 139 q 650 231 642 231 q 667 213 667 231 q 663 201 667 206 q 505 42 576 103 q 369 -58 433 -18 q 326 -165 353 -114 q 263 -261 299 -217 q 183 -342 226 -306 q 89 -403 139 -378 q -4 -429 36 -429 m 324 -87 q 190 -163 257 -128 q 61 -247 122 -199 q -14 -322 7 -289 q -35 -372 -35 -354 q -26 -390 -35 -385 q -6 -394 -18 -394 q 42 -385 17 -394 q 74 -372 67 -376 q 137 -335 103 -358 q 204 -277 171 -311 q 268 -197 238 -243 q 324 -87 299 -150 m 143 192 q 110 189 129 192 q 74 182 92 186 q 45 171 57 178 q 33 156 33 164 q 53 144 33 147 q 92 142 72 142 q 156 152 118 142 q 226 178 193 163 q 186 188 207 185 q 143 192 165 192 z "},"[":{"ha":556,"x_min":-117,"x_max":600,"o":"m 72 -410 l -99 -410 q -117 -396 -117 -410 q -115 -386 -117 -389 l 396 851 q 411 863 397 860 l 582 863 q 600 844 600 863 q 582 828 600 828 l 422 828 l -74 -375 l 72 -375 q 89 -393 89 -375 q 72 -410 89 -410 z "},"\\":{"ha":533,"x_min":-107,"x_max":353,"o":"m 333 -18 q 318 -7 322 -18 l -106 881 q -107 889 -107 883 q -101 901 -107 897 q -89 904 -96 904 q -75 894 -79 904 l 350 8 q 353 0 353 3 q 347 -13 353 -8 q 333 -18 340 -18 z "},"]":{"ha":556,"x_min":-117,"x_max":599,"o":"m 71 -410 l -100 -410 q -117 -393 -117 -410 q -100 -375 -117 -375 l 60 -375 l 556 826 l 411 826 q 393 844 393 826 q 411 861 393 861 l 582 861 q 594 856 589 861 q 599 844 599 851 q 597 838 599 840 l 88 -400 q 71 -410 82 -410 z "},"^":{"ha":572,"x_min":46,"x_max":540,"o":"m 522 347 q 507 356 511 347 l 293 778 l 79 356 q 57 349 72 342 q 48 358 50 351 q 49 372 46 365 l 278 825 q 293 833 282 833 q 308 825 304 833 l 538 372 q 539 358 540 365 q 531 349 538 351 q 522 347 528 347 z "},"_":{"ha":694,"x_min":0,"x_max":694,"o":"m 694 -121 l 0 -121 l 0 -86 l 694 -86 l 694 -121 z "},"`":{"ha":347,"x_min":126,"x_max":326,"o":"m 308 689 q 297 693 301 689 l 133 821 q 126 833 126 828 q 132 848 126 843 q 144 853 138 853 q 156 849 149 853 l 318 721 q 326 707 326 714 q 320 693 326 697 q 308 689 314 689 z "},"a":{"ha":514,"x_min":-50,"x_max":532,"o":"m 278 -10 q 224 15 242 -10 q 207 71 207 40 q 208 85 207 78 q 210 100 208 92 q 174 60 193 81 q 135 25 156 40 q 90 0 114 10 q 40 -10 67 -10 q -27 20 -4 -10 q -50 94 -50 50 q -19 211 -50 151 q 60 319 11 271 q 169 399 108 368 q 293 431 231 431 q 347 424 328 431 q 369 417 367 418 q 382 403 382 411 q 379 393 382 399 q 369 372 378 390 q 347 324 361 353 q 314 259 333 294 q 271 186 294 224 q 250 123 258 153 q 242 71 242 93 q 251 38 242 51 q 278 25 260 25 q 328 51 296 25 q 394 110 360 76 q 459 178 429 144 q 501 225 489 211 q 510 231 507 231 q 515 232 513 232 q 527 226 522 232 q 532 214 532 221 q 526 201 532 207 q 375 44 432 97 q 278 -10 318 -10 m 292 396 q 180 366 235 396 q 81 291 125 336 q 11 193 38 246 q -15 93 -15 140 q -2 45 -15 65 q 39 25 11 25 q 97 43 68 25 q 153 88 126 61 q 202 145 181 115 q 239 200 224 175 q 291 310 263 258 q 336 390 319 363 q 317 394 328 393 q 292 396 306 396 z "},"b":{"ha":496,"x_min":-15,"x_max":514,"o":"m 136 -10 q 61 22 85 -10 q 38 103 38 54 q 45 173 38 133 q 69 264 53 213 l 14 201 q 1 196 10 196 q -11 201 -7 196 q -15 214 -15 207 q -11 225 -15 221 q 19 260 3 240 q 99 351 49 293 q 157 498 128 429 q 217 635 186 567 q 310 811 271 754 q 382 879 349 868 q 401 882 389 882 q 447 863 429 882 q 464 818 464 843 q 459 781 464 803 q 439 733 454 760 q 371 627 413 685 q 285 514 329 569 q 198 410 240 458 q 129 335 156 363 q 72 103 72 178 q 138 25 72 25 q 212 57 175 25 q 279 139 249 89 q 239 202 250 163 q 228 278 228 242 q 233 321 228 296 q 249 368 238 346 q 277 406 260 390 q 319 422 294 422 q 349 412 338 422 q 367 387 361 401 q 376 356 374 372 q 378 326 378 339 q 363 234 378 278 q 326 151 347 190 q 361 144 347 144 q 418 165 389 144 q 483 225 447 186 q 497 232 490 232 q 510 227 507 232 q 514 215 514 222 q 508 201 514 207 q 441 138 476 167 q 361 110 406 110 q 310 121 339 110 q 229 27 274 64 q 136 -10 185 -10 m 403 849 q 361 819 386 849 q 304 734 333 786 q 249 626 275 682 q 201 517 222 569 q 168 432 181 465 q 256 533 210 478 q 341 642 303 589 q 404 742 379 696 q 429 818 429 789 q 420 841 429 833 q 403 849 411 849 m 319 388 q 293 374 304 388 q 275 343 282 361 q 265 306 268 325 q 263 276 263 288 q 270 219 263 249 q 297 169 278 189 q 330 247 317 208 q 343 325 343 285 q 342 342 343 331 q 339 363 342 353 q 332 380 336 372 q 319 388 328 388 z "},"c":{"ha":374,"x_min":-36,"x_max":392,"o":"m 63 -11 q -12 22 11 -11 q -36 103 -36 54 q 1 242 -36 167 q 100 378 38 318 q 192 421 147 421 q 248 395 231 421 q 265 331 265 369 q 262 305 265 318 q 246 292 258 292 q 233 297 238 292 q 228 308 228 301 q 229 322 228 317 q 231 335 231 328 q 222 370 231 354 q 192 386 214 386 q 125 351 160 386 q 30 224 63 292 q -3 103 -3 156 q 65 24 -3 24 q 141 39 104 24 q 215 81 178 54 q 288 145 251 108 q 363 225 325 182 q 374 231 368 231 q 386 225 381 231 q 392 213 392 219 q 388 201 392 206 q 308 119 346 157 q 231 51 269 81 q 151 6 193 22 q 63 -11 110 -11 z "},"d":{"ha":507,"x_min":-54,"x_max":535,"o":"m 36 -8 q -31 22 -8 -8 q -54 93 -54 53 q 10 256 -54 168 q 91 343 50 310 q 169 394 132 376 q 237 417 206 411 q 290 422 268 422 q 324 419 306 422 q 342 400 342 417 q 333 388 342 390 q 319 385 325 385 q 303 386 311 385 q 290 388 296 388 q 245 383 272 388 q 185 361 218 378 q 114 314 151 344 q 38 233 76 283 q -6 158 7 193 q -19 94 -19 122 q -6 47 -19 67 q 36 26 8 26 q 89 40 63 26 q 138 72 115 53 q 181 115 161 92 q 214 157 200 138 q 266 241 242 197 q 311 329 290 285 q 389 501 350 413 q 458 663 428 590 q 481 720 471 694 q 501 767 492 746 q 518 778 506 778 q 530 773 525 778 q 535 761 535 768 q 532 750 535 756 q 509 697 518 719 q 488 643 500 674 q 466 590 478 619 q 438 523 454 561 q 400 436 422 485 q 349 326 378 388 q 281 160 300 225 q 263 67 263 94 q 265 42 263 56 q 279 28 268 28 q 320 47 294 28 q 376 96 346 67 q 438 160 407 125 q 497 225 469 194 q 511 232 504 232 q 528 215 528 232 q 522 201 528 207 q 373 47 429 100 q 281 -7 317 -7 q 241 18 253 -7 q 229 65 229 43 q 238 129 229 93 q 196 80 218 104 q 149 36 174 56 q 95 4 124 17 q 36 -8 67 -8 z "},"e":{"ha":375,"x_min":-39,"x_max":392,"o":"m 67 -11 q -15 24 10 -11 q -39 106 -39 60 q -20 204 -39 149 q 31 308 -1 260 q 106 390 64 357 q 193 424 147 424 q 244 407 225 424 q 264 361 264 390 q 201 262 264 313 q 8 183 138 211 q -4 103 -4 139 q 12 45 -4 67 q 64 24 28 24 q 191 71 113 24 q 363 225 269 118 q 376 231 367 231 q 388 224 385 231 q 392 213 392 218 q 388 201 392 206 q 216 44 300 100 q 67 -11 132 -11 m 193 389 q 140 372 165 389 q 92 328 114 354 q 51 274 69 303 q 24 222 33 244 q 117 254 78 236 q 181 292 156 272 q 217 329 206 311 q 229 363 229 347 q 216 383 229 378 q 193 389 203 389 z "},"f":{"ha":289,"x_min":-201,"x_max":438,"o":"m -119 -437 q -181 -413 -160 -437 q -201 -357 -201 -389 q -188 -275 -201 -324 q -153 -167 -175 -226 q -100 -36 -131 -107 q -35 114 -69 35 q -18 152 -26 133 q 0 190 -10 171 q -13 196 -7 190 q -19 208 -19 201 q -15 219 -19 215 l 38 278 q 49 304 43 292 q 60 332 54 317 q 115 465 90 403 q 164 583 140 526 q 215 710 192 651 q 260 813 239 768 q 307 872 279 854 q 361 890 335 890 q 419 865 400 890 q 438 807 438 839 q 436 791 438 800 q 433 775 435 782 q 403 699 425 742 q 349 610 381 657 q 278 513 317 563 q 203 417 240 464 q 130 330 165 371 q 67 258 94 289 l -24 53 q 4 63 -15 63 q 32 62 19 63 q 54 61 44 61 q 108 72 82 61 q 192 133 150 90 q 278 225 233 175 q 292 231 283 231 q 303 225 300 231 q 307 213 307 219 q 303 201 307 206 q 205 97 244 135 q 122 40 165 58 q 44 26 89 26 q 24 27 33 26 q 7 28 15 28 q 1 26 3 28 q 0 25 0 26 q -1 18 -1 24 q 1 -27 -1 -6 q 7 -68 4 -49 q 17 -144 13 -103 q 22 -228 22 -185 q 9 -318 22 -279 q -24 -383 -4 -357 q -69 -424 -44 -410 q -119 -437 -94 -437 m 361 856 q 324 842 343 856 q 290 797 306 829 q 247 696 271 753 q 196 571 224 639 q 156 471 176 522 q 111 361 135 419 q 201 470 154 411 q 288 585 247 529 q 360 692 329 642 q 399 776 390 743 q 401 790 400 782 q 403 803 403 797 q 393 839 403 822 q 361 856 383 856 m -167 -357 q -152 -393 -167 -383 q -121 -403 -137 -403 q -85 -393 -104 -403 q -51 -362 -67 -383 q -24 -308 -35 -342 q -12 -226 -12 -275 q -17 -148 -12 -186 q -26 -74 -21 -110 q -33 -24 -31 -46 q -36 15 -36 -1 l -36 24 q -130 -201 -93 -101 q -167 -357 -167 -301 z "},"g":{"ha":460,"x_min":-137,"x_max":478,"o":"m -69 -433 q -122 -406 -106 -433 q -137 -346 -137 -379 q -125 -276 -137 -315 q -85 -196 -112 -237 q -15 -111 -58 -154 q 89 -28 28 -68 q 130 -1 111 -12 q 167 22 149 11 l 203 101 q 124 26 167 58 q 29 -7 82 -7 q -35 22 -12 -7 q -57 88 -57 50 q -34 182 -57 131 q 32 282 -11 233 q 109 356 71 328 q 182 399 147 383 q 246 421 217 415 q 299 426 275 426 q 342 422 326 426 q 360 417 357 418 q 372 403 372 411 q 369 394 372 400 l 218 53 q 285 91 256 74 q 340 127 314 108 q 391 169 365 146 q 447 225 417 192 q 460 231 453 231 q 472 226 467 231 q 478 214 478 221 q 472 201 478 207 q 413 142 440 168 q 353 94 385 117 q 284 50 322 72 q 194 -1 246 28 q 135 -139 163 -78 q 85 -249 108 -200 q 56 -308 72 -276 q 20 -368 39 -340 q -22 -415 1 -396 q -69 -433 -44 -433 m 299 392 q 253 387 279 392 q 195 367 226 382 q 129 326 164 353 q 58 258 94 300 q -3 165 17 210 q -22 88 -22 121 q -9 44 -22 60 q 29 28 4 28 q 60 32 44 28 q 139 83 100 43 q 213 175 178 122 q 278 285 249 228 q 329 389 308 342 q 315 391 322 390 q 299 392 308 392 m 143 -33 q 126 -45 135 -40 q 107 -57 117 -50 q 7 -136 47 -96 q -58 -215 -33 -176 q -92 -286 -82 -253 q -103 -344 -103 -319 q -96 -381 -103 -364 q -69 -397 -89 -397 q -11 -352 -42 -397 q 53 -236 19 -307 q 97 -138 75 -190 q 143 -33 119 -86 z "},"h":{"ha":544,"x_min":-26,"x_max":563,"o":"m -4 -19 q -17 -16 -7 -19 q -26 -1 -26 -12 q -24 11 -26 3 q -17 29 -21 19 q -8 49 -12 39 q 1 68 -3 60 l 88 286 q 46 237 63 257 q 14 201 29 217 q 3 196 10 196 q -10 201 -4 196 q -17 214 -17 207 q -11 225 -17 219 q 42 286 10 249 q 118 374 74 324 l 129 386 q 250 666 200 558 q 329 818 300 774 q 376 868 353 854 q 418 882 399 882 q 458 861 443 882 q 472 817 472 840 q 468 788 472 800 q 448 741 464 771 q 409 676 432 711 q 358 601 386 640 q 297 526 329 563 q 226 445 261 486 q 158 368 190 404 l 114 257 q 214 367 165 324 q 292 418 263 410 q 332 425 315 425 q 383 406 365 425 q 401 353 401 386 q 400 332 401 343 q 393 304 399 321 q 378 264 388 288 q 354 206 369 240 q 317 115 335 160 q 300 46 300 71 q 314 25 300 25 q 353 44 328 25 q 410 94 379 64 q 473 158 440 124 q 533 225 506 193 q 546 231 539 231 q 563 213 563 231 q 558 201 563 206 q 509 147 540 182 q 442 76 478 111 q 372 16 407 42 q 311 -10 338 -10 q 276 8 288 -10 q 265 44 265 25 q 281 119 265 75 q 322 218 297 164 q 357 306 347 272 q 367 351 367 339 q 332 390 367 390 q 301 385 317 390 q 251 353 285 379 q 180 283 218 326 q 102 181 142 239 q 33 56 63 124 q 25 36 29 49 q 17 11 21 24 q 7 -10 13 -1 q -4 -19 1 -19 m 418 847 q 358 800 390 847 q 201 469 308 725 q 274 553 242 515 q 333 626 307 592 q 406 735 382 692 q 435 796 429 778 q 438 817 438 804 q 433 838 438 828 q 418 847 429 847 z "},"i":{"ha":279,"x_min":-15,"x_max":299,"o":"m 47 -11 q 9 8 19 -11 q -1 47 -1 26 q 6 99 -1 69 q 25 160 14 129 q 50 220 36 190 q 75 274 64 250 q 51 245 60 257 q 35 226 42 233 q 23 213 28 218 q 13 201 18 207 q 1 196 7 196 q -10 201 -6 196 q -15 214 -15 207 q -11 225 -15 221 q 11 253 -6 232 q 58 308 28 274 l 149 414 q 163 421 153 421 q 179 406 179 421 q 179 400 179 403 q 178 394 179 397 q 144 335 171 383 q 90 224 118 286 q 53 131 69 176 q 33 53 36 85 q 35 32 33 40 q 49 24 38 24 q 68 28 57 24 q 92 44 79 33 q 158 108 126 76 q 215 166 190 140 q 253 208 239 192 q 268 225 268 225 q 282 231 272 231 q 294 225 290 231 q 299 214 299 219 q 293 201 299 207 q 250 153 292 200 q 114 19 208 107 q 47 -11 82 -11 m 282 565 q 269 532 282 540 q 244 524 256 524 q 224 533 229 524 q 218 556 218 543 q 228 584 218 572 q 254 596 239 596 q 276 586 269 596 q 282 565 282 576 z "},"j":{"ha":258,"x_min":-317,"x_max":274,"o":"m -257 -439 q -286 -432 -275 -439 q -304 -414 -297 -425 q -314 -390 -311 -403 q -317 -364 -317 -376 q -290 -269 -317 -324 q -194 -149 -262 -214 q -101 -70 -146 -103 q -26 -17 -56 -37 q 51 166 14 76 q 111 318 88 256 l 8 197 q -4 192 4 192 q -17 197 -12 192 q -22 208 -22 201 q -18 219 -22 215 l 151 419 q 164 425 157 425 q 176 420 171 425 q 182 408 182 415 q 181 401 182 404 q 165 363 178 396 q 132 277 153 329 q 85 159 111 225 q 28 22 58 93 q 123 101 71 54 q 244 225 175 147 q 258 231 250 231 q 270 225 267 231 q 274 213 274 219 q 269 201 274 206 q 188 115 225 151 q 117 50 150 78 q 56 1 85 22 q 1 -39 28 -21 q -47 -146 -22 -93 q -94 -244 -71 -199 q -139 -328 -117 -290 q -179 -390 -161 -365 q -257 -439 -215 -439 m -54 -78 q -109 -120 -81 -97 q -169 -174 -137 -143 q -256 -281 -229 -231 q -282 -364 -282 -331 q -277 -391 -282 -378 q -257 -404 -272 -404 q -235 -397 -247 -404 q -207 -369 -222 -389 q -135 -250 -175 -329 q -54 -78 -96 -171 m 268 553 q 255 519 268 528 q 231 511 242 511 q 210 521 215 511 q 204 543 204 531 q 215 572 204 560 q 240 583 225 583 q 262 574 256 583 q 268 553 268 564 z "},"k":{"ha":493,"x_min":-25,"x_max":511,"o":"m -7 -19 q -21 -15 -17 -19 q -25 -4 -25 -10 q -24 6 -25 1 q 4 76 -10 43 l 85 282 q 50 242 67 263 q 15 203 33 222 q 3 196 11 196 q -10 201 -4 196 q -15 214 -15 207 q -11 225 -15 221 q 64 311 32 274 q 126 385 96 349 q 329 825 268 732 q 376 875 353 861 q 418 889 399 889 q 460 868 446 889 q 474 822 474 847 q 440 733 474 790 q 342 594 406 676 q 257 488 304 546 q 157 367 210 429 q 138 322 147 344 q 119 274 129 299 q 160 322 136 296 q 212 371 185 349 q 267 408 239 393 q 319 422 294 422 q 368 402 351 422 q 385 354 385 382 q 363 287 385 318 q 306 231 340 256 q 228 190 271 207 q 147 168 186 174 q 156 135 149 158 q 176 89 164 113 q 208 47 189 65 q 251 29 226 29 q 344 84 290 29 q 481 225 399 139 q 494 231 485 231 q 507 226 503 231 q 511 214 511 221 q 506 201 511 207 q 422 111 458 150 q 356 47 386 72 q 299 8 325 21 q 246 -6 272 -6 q 198 9 218 -6 q 163 46 178 24 q 136 96 147 68 q 117 150 125 124 q 111 168 114 161 q 108 179 108 175 q 129 200 108 196 q 183 213 154 204 q 244 236 213 221 q 318 287 286 256 q 350 354 350 318 q 321 388 350 388 q 254 360 292 388 q 177 288 217 333 q 101 184 138 243 q 36 61 64 125 l 22 26 q 16 10 18 17 q 11 -3 14 3 q 6 -14 8 -8 q -7 -19 3 -19 m 418 854 q 391 843 407 854 q 358 807 375 832 q 335 767 349 792 q 303 703 322 743 q 258 608 283 664 q 201 475 233 551 q 289 583 246 529 q 365 684 332 638 q 419 767 399 731 q 439 821 439 803 q 434 844 439 833 q 418 854 429 854 z "},"l":{"ha":303,"x_min":-17,"x_max":438,"o":"m 74 -10 q 24 18 38 -10 q 10 75 10 46 q 20 158 10 118 q 43 235 31 199 l 14 203 q 1 197 8 197 q -12 202 -7 197 q -17 214 -17 207 q -12 225 -17 221 q 22 263 -1 236 q 78 333 44 290 q 153 526 121 447 q 209 657 186 606 q 247 736 232 708 q 268 776 261 764 q 338 868 307 847 q 389 889 369 889 q 426 869 415 889 q 438 828 438 850 q 424 769 438 797 q 367 672 404 729 q 287 553 331 615 q 196 428 243 490 q 108 315 149 367 q 69 204 86 257 q 47 114 53 151 q 45 93 46 103 q 44 76 44 83 q 49 41 44 56 q 78 26 54 26 q 122 49 94 26 q 179 104 149 72 q 240 170 210 136 q 290 225 269 204 q 304 232 297 232 q 317 226 313 232 q 321 214 321 221 q 315 201 321 207 q 263 143 293 179 q 199 73 232 107 q 133 15 165 39 q 74 -10 100 -10 m 388 854 q 352 833 375 854 q 299 760 329 813 q 259 683 279 725 q 220 597 239 642 q 184 510 201 553 q 153 429 167 467 q 224 526 188 476 q 292 624 260 576 q 351 713 325 671 q 392 785 376 754 q 401 808 399 797 q 403 828 403 819 q 399 847 403 839 q 388 854 396 854 z "},"m":{"ha":919,"x_min":-18,"x_max":939,"o":"m 368 -8 q 353 -2 358 -8 q 349 11 349 4 q 356 35 349 19 q 372 69 363 51 q 390 104 381 88 q 406 131 400 121 q 436 234 422 179 q 450 331 450 289 q 445 369 450 350 q 421 389 440 389 q 370 368 397 389 q 315 314 343 347 q 258 240 286 281 q 203 156 229 199 q 157 76 178 114 q 124 11 136 38 q 115 1 121 6 q 104 -4 110 -4 q 92 1 96 -4 q 88 13 88 7 q 97 41 88 26 q 111 65 106 56 q 147 134 128 97 q 181 208 165 171 q 208 281 197 246 q 218 344 218 317 q 213 373 218 360 q 193 386 208 386 q 158 368 176 386 q 119 328 143 354 q 73 274 96 301 q 33 226 50 247 q 13 201 15 204 q 0 194 6 194 q -12 199 -7 194 q -18 211 -18 204 q -12 225 -18 219 q 9 252 -8 231 q 49 300 26 274 q 96 352 72 326 q 135 393 119 378 q 194 419 164 419 q 240 396 226 419 q 253 346 253 372 q 249 310 253 328 q 242 278 244 293 q 333 381 286 338 q 421 424 379 424 q 451 415 439 424 q 472 392 464 406 q 482 363 479 379 q 485 332 485 346 q 481 283 485 308 q 471 229 478 257 q 527 300 497 265 q 588 362 557 335 q 651 406 619 389 q 714 422 683 422 q 758 406 743 422 q 774 363 774 389 q 756 285 774 329 q 718 190 739 240 q 685 109 701 150 q 669 44 669 68 q 682 28 669 28 q 908 225 735 28 q 922 232 915 232 q 939 215 939 232 q 933 201 939 207 q 776 42 835 90 q 682 -7 717 -7 q 647 8 658 -7 q 635 44 635 22 q 650 115 635 74 q 686 204 665 156 q 722 290 704 244 q 739 363 739 335 q 714 388 739 388 q 644 362 682 388 q 570 297 607 336 q 499 210 533 257 q 439 121 465 163 q 406 38 422 72 q 381 -4 389 3 q 368 -8 374 -8 z "},"n":{"ha":668,"x_min":-18,"x_max":686,"o":"m 103 -3 q 85 15 85 -3 q 92 36 85 22 q 135 122 113 74 q 178 217 158 169 q 210 304 197 264 q 224 367 224 344 q 221 383 224 376 q 208 390 218 390 q 174 375 194 390 q 142 347 163 367 q 99 301 122 326 q 53 249 76 275 q 13 201 31 222 q 0 196 8 196 q -12 201 -7 196 q -18 213 -18 206 q -12 225 -18 219 q 28 273 6 246 q 75 326 51 300 q 119 372 99 351 q 153 403 140 393 q 208 425 183 425 q 247 406 233 425 q 260 365 260 386 q 249 309 260 346 q 226 244 238 272 q 344 372 283 321 q 469 422 406 422 q 511 409 494 422 q 528 372 528 396 q 521 328 528 353 q 505 278 514 303 q 485 231 496 253 q 468 194 475 208 q 449 154 458 175 q 431 113 439 133 q 417 76 422 93 q 413 46 413 58 q 429 28 413 28 q 474 46 447 28 q 531 92 500 64 q 594 156 561 121 q 657 225 626 190 q 669 231 663 231 q 686 213 686 231 q 682 201 686 206 q 617 131 651 168 q 550 64 583 94 q 485 13 517 33 q 428 -7 453 -7 q 390 9 401 -7 q 378 43 378 25 q 395 117 378 74 q 436 208 413 160 q 456 250 446 228 q 474 294 465 272 q 488 334 482 315 q 493 365 493 353 q 487 384 493 381 q 469 388 481 388 q 370 346 421 388 q 274 247 319 304 q 225 179 249 215 q 181 110 201 143 q 146 51 161 78 q 122 10 131 24 q 111 -1 117 1 q 103 -3 106 -3 z "},"o":{"ha":443,"x_min":-36,"x_max":461,"o":"m 60 -8 q 17 2 35 -8 q -13 29 -1 13 q -31 67 -25 46 q -36 108 -36 88 q -25 184 -36 143 q 9 267 -14 225 q 65 347 32 308 q 143 415 99 386 q 151 418 149 418 q 164 413 158 418 q 169 401 169 408 q 161 386 169 392 q 92 326 122 361 q 42 253 63 290 q 10 177 21 215 q -1 108 -1 139 q 13 51 -1 76 q 60 26 28 26 q 136 53 101 26 q 196 106 171 79 q 146 228 146 143 q 153 288 146 253 q 177 353 161 322 q 216 407 193 385 q 268 429 239 429 q 299 419 286 429 q 317 393 311 408 q 326 361 324 378 q 329 331 329 344 q 306 217 329 271 q 250 118 282 163 q 271 115 264 115 q 432 225 336 115 q 446 231 438 231 q 458 225 454 231 q 461 213 461 219 q 457 201 461 206 q 367 117 414 153 q 269 81 321 81 q 226 89 249 81 q 150 21 192 50 q 60 -8 108 -8 m 268 394 q 233 376 249 394 q 205 332 217 358 q 187 277 193 306 q 181 228 181 249 q 187 179 181 208 q 217 133 193 150 q 272 227 250 178 q 294 329 294 276 q 294 347 294 336 q 290 369 293 358 q 282 387 288 379 q 268 394 276 394 z "},"p":{"ha":517,"x_min":-181,"x_max":535,"o":"m -164 -387 q -181 -371 -181 -387 q -179 -362 -181 -365 q -115 -215 -153 -304 q -35 -28 -76 -125 q 44 160 6 68 q 111 318 83 253 l 14 201 q 0 196 8 196 q -12 201 -8 196 q -17 213 -17 206 q -12 224 -17 219 l 158 426 q 171 432 164 432 q 189 414 189 432 q 188 408 189 410 l 125 258 q 183 325 153 294 q 244 379 214 356 q 301 415 276 406 q 343 425 326 425 q 394 398 379 425 q 410 338 410 371 q 401 275 410 308 q 378 207 393 242 q 342 140 363 172 q 296 79 321 107 q 211 13 254 35 q 329 53 274 17 q 417 129 372 82 q 506 225 461 176 q 518 231 510 231 q 531 225 526 231 q 535 213 535 219 q 531 201 535 206 q 438 99 481 143 q 349 25 394 56 q 186 -24 275 -24 q 119 -18 153 -24 q 65 -4 85 -12 q 53 13 53 1 q 58 25 53 19 q 71 31 64 31 q 90 26 81 31 q 108 21 99 21 q 202 47 161 21 q 269 103 243 74 q 348 224 321 158 q 375 338 375 290 q 368 373 375 356 q 342 390 361 390 q 312 383 331 390 q 265 353 293 376 q 206 299 236 329 q 148 232 176 268 q 94 158 119 196 q 50 82 69 119 l 47 78 q -6 -49 21 15 q -59 -173 -33 -112 q -108 -285 -85 -233 q -147 -376 -131 -337 q -164 -387 -151 -387 z "},"q":{"ha":453,"x_min":-57,"x_max":472,"o":"m 89 -439 q 39 -413 56 -439 q 22 -360 22 -387 q 33 -302 22 -337 q 65 -212 43 -267 q 122 -82 88 -158 q 203 100 156 -6 q 123 24 165 56 q 31 -7 81 -7 q -34 18 -11 -7 q -57 88 -57 43 q -34 182 -57 131 q 33 282 -11 233 q 110 354 72 326 q 181 397 147 382 q 244 418 215 413 q 297 424 274 424 q 342 419 325 424 q 361 414 358 415 q 372 399 372 410 q 371 392 372 396 q 363 373 369 389 q 344 333 356 357 l 203 15 q 256 42 232 26 q 306 81 279 57 q 365 140 332 106 q 442 225 397 175 q 454 231 447 231 q 467 226 461 231 q 472 214 472 221 q 467 201 472 207 q 413 142 439 172 q 360 85 388 113 q 301 33 332 57 q 235 -8 271 8 q 243 -83 243 -37 q 238 -161 243 -119 q 225 -242 233 -203 q 205 -317 217 -282 q 179 -375 193 -353 q 134 -425 158 -411 q 89 -439 110 -439 m 297 390 q 251 385 278 390 q 194 366 225 381 q 129 326 164 351 q 58 258 94 300 q -3 165 17 210 q -22 86 -22 119 q -10 44 -22 60 q 29 28 1 28 q 90 44 61 28 q 142 84 118 60 q 185 135 165 108 q 221 185 206 163 q 281 288 253 235 q 331 386 310 342 q 297 390 318 390 m 194 -4 q 133 -143 158 -85 q 90 -243 107 -201 q 65 -313 74 -285 q 57 -360 57 -342 q 65 -390 57 -375 q 89 -404 74 -404 q 118 -393 101 -404 q 150 -357 135 -382 q 174 -301 164 -335 q 192 -228 185 -267 q 204 -152 200 -190 q 208 -82 208 -114 q 206 -37 208 -57 q 194 -4 203 -17 z "},"r":{"ha":400,"x_min":-15,"x_max":418,"o":"m 174 -10 q 133 7 149 -10 q 117 47 117 24 q 124 84 117 64 q 141 125 131 104 q 163 166 151 146 q 185 201 175 186 q 204 233 194 218 q 221 263 213 247 q 236 294 229 279 q 246 326 246 317 q 242 337 246 333 q 226 340 239 340 l 197 340 q 172 346 183 340 q 154 367 160 351 q 90 289 126 331 q 14 201 54 247 q 1 196 10 196 q -11 201 -7 196 q -15 213 -15 206 q -11 225 -15 218 q 65 313 29 271 q 129 390 101 356 q 155 422 144 410 q 174 444 165 433 q 189 453 179 453 q 203 448 199 453 q 207 438 207 443 q 200 418 207 429 q 190 393 192 403 q 188 381 188 383 q 193 376 188 376 q 206 375 199 375 l 235 375 q 267 363 254 375 q 281 332 281 350 q 274 299 281 318 q 257 260 267 281 q 235 220 247 240 q 214 183 224 200 q 192 147 203 165 q 172 110 182 128 q 157 76 163 92 q 151 47 151 60 q 158 31 151 36 q 174 25 165 25 q 192 31 185 25 q 245 76 218 50 q 297 128 272 101 q 345 180 322 154 q 388 225 368 206 q 400 231 393 231 q 413 226 407 231 q 418 214 418 221 q 413 201 418 207 q 372 156 396 183 q 320 101 347 129 q 265 46 293 72 q 211 1 236 19 q 174 -10 193 -10 z "},"s":{"ha":351,"x_min":-147,"x_max":369,"o":"m 22 -21 q -71 5 -29 -21 q -142 68 -112 31 q -145 74 -143 71 q -147 82 -147 76 q -140 96 -147 89 q -75 162 -108 128 q -11 232 -42 196 q 63 328 29 279 q 125 417 97 376 q 138 433 129 424 q 157 443 146 443 q 168 438 164 443 q 172 425 172 432 q 165 409 172 417 q 153 394 158 401 q 146 368 147 383 q 144 333 144 353 q 149 245 144 286 q 153 164 153 204 q 149 101 153 132 q 132 46 144 71 q 243 126 190 76 q 340 225 296 176 q 353 231 344 231 q 365 226 361 231 q 369 214 369 221 q 365 201 369 206 q 292 124 332 164 q 208 52 253 85 q 117 -1 164 19 q 22 -21 69 -21 m -107 79 q -48 31 -79 47 q 28 15 -17 15 q 72 26 54 15 q 99 58 89 38 q 114 104 110 78 q 118 161 118 131 q 113 250 118 210 q 108 331 108 290 q 8 201 71 276 q -44 142 -15 174 q -107 79 -74 111 z "},"t":{"ha":343,"x_min":-18,"x_max":363,"o":"m 0 196 q -13 201 -8 196 q -18 213 -18 206 q -12 225 -18 219 q 54 305 28 268 q 104 382 81 342 l 36 382 q 18 400 18 382 q 36 417 18 417 l 122 417 q 140 454 132 435 q 158 493 149 474 q 188 567 175 538 q 207 614 200 596 q 221 647 215 635 q 238 658 225 658 q 249 653 244 658 q 254 642 254 649 q 251 629 254 635 q 213 533 232 579 q 171 433 193 486 l 164 417 l 306 417 q 324 400 324 417 q 306 382 324 382 l 150 382 q 124 313 138 351 q 98 235 110 275 q 78 158 86 196 q 71 92 71 121 q 78 49 71 72 q 108 26 86 26 q 149 45 124 26 q 206 92 175 64 q 269 156 236 121 q 332 225 303 192 q 344 231 338 231 q 357 226 351 231 q 363 214 363 221 q 357 201 363 207 q 309 146 340 181 q 242 76 278 111 q 171 17 207 42 q 108 -8 135 -8 q 54 23 71 -8 q 38 90 38 54 q 75 275 38 156 q 46 239 60 256 q 13 201 32 222 q 0 196 7 196 z "},"u":{"ha":538,"x_min":-15,"x_max":557,"o":"m 304 -10 q 286 -6 293 -10 q 274 1 279 -3 q 261 17 267 7 q 256 47 256 28 q 261 84 256 63 q 274 130 267 106 q 292 178 282 154 q 310 222 301 203 q 261 156 286 189 q 208 93 236 122 q 131 24 169 51 q 56 -6 92 -4 q 23 2 33 -6 q 7 17 13 10 q -3 57 -3 32 q 13 138 -3 90 q 57 249 29 186 l 15 201 q 1 196 10 196 q -11 201 -7 196 q -15 213 -15 206 q -10 225 -15 219 q 42 285 21 260 q 77 331 63 311 q 101 366 92 350 q 119 397 111 382 q 127 411 124 404 q 143 418 131 418 q 154 412 150 418 q 158 399 158 406 q 154 386 158 394 l 90 238 q 49 133 67 182 q 32 56 32 85 q 54 29 32 29 q 116 54 82 29 q 186 119 150 79 q 247 192 217 153 q 303 270 276 231 q 351 347 329 310 q 388 410 372 383 q 403 421 393 421 q 417 415 414 421 q 421 406 421 410 q 415 389 421 400 q 392 328 404 360 q 367 265 381 297 q 342 208 356 240 q 317 145 329 176 q 298 87 306 114 q 290 46 290 60 q 306 25 290 25 q 350 47 322 25 q 410 101 378 69 q 473 167 442 132 q 526 225 504 201 q 539 231 532 231 q 551 226 546 231 q 557 214 557 221 q 551 201 557 207 q 500 145 531 181 q 435 75 469 110 q 367 15 401 40 q 304 -10 332 -10 z "},"v":{"ha":618,"x_min":-18,"x_max":636,"o":"m 144 -8 q 122 -4 132 -8 q 94 47 94 10 q 113 132 94 83 q 158 242 132 181 q 191 318 175 279 q 207 375 207 357 q 199 390 207 390 q 175 379 192 390 q 151 358 164 371 q 119 325 138 346 q 74 274 100 304 q 13 201 49 244 q -1 196 7 196 q -18 213 -18 196 q -12 225 -18 219 q 28 271 4 243 q 75 326 51 299 q 120 377 99 354 q 154 408 142 400 q 200 426 178 426 q 232 409 221 426 q 243 375 243 392 q 228 317 243 353 q 190 228 214 281 q 171 183 182 208 q 151 133 160 158 q 135 86 142 108 q 129 49 129 64 q 149 25 129 25 q 203 49 169 25 q 274 112 236 74 q 350 197 311 150 q 422 288 389 243 q 454 349 435 315 q 492 403 474 383 q 508 410 499 410 q 524 403 518 410 q 529 390 529 397 q 519 366 529 382 q 497 333 510 350 q 473 299 485 315 q 457 278 461 283 q 440 200 440 236 q 450 159 440 176 q 485 142 460 142 q 607 225 529 142 q 619 231 611 231 q 632 225 628 231 q 636 213 636 219 q 632 201 636 206 q 606 174 622 190 q 571 143 590 158 q 529 117 551 128 q 485 106 507 106 q 428 130 450 106 q 406 186 406 154 l 404 210 q 338 131 372 169 q 269 61 303 92 q 202 11 235 31 q 144 -8 169 -8 z "},"w":{"ha":744,"x_min":-15,"x_max":763,"o":"m 615 107 q 566 122 588 107 q 542 164 544 138 q 497 98 521 129 q 447 43 474 67 q 393 6 421 19 q 335 -8 365 -8 q 276 18 290 -8 q 263 76 263 44 q 274 157 263 110 q 219 94 247 124 q 164 40 192 64 q 110 3 136 17 q 60 -11 83 -11 q 15 8 28 -11 q 1 53 1 26 q 19 141 1 89 q 68 263 38 193 l 14 201 q 1 196 8 196 q -11 201 -7 196 q -15 214 -15 207 q -11 225 -15 221 q 45 289 22 263 q 84 336 68 315 q 110 373 100 357 q 129 406 121 389 l 131 407 q 133 413 131 407 q 149 419 138 419 q 165 401 165 419 q 163 393 165 399 q 141 341 151 367 q 117 285 131 315 q 89 221 103 254 q 63 156 75 188 q 44 97 51 125 q 36 51 36 69 q 40 31 36 38 q 58 24 44 24 q 119 47 86 24 q 187 108 153 71 q 254 188 221 144 q 314 272 288 232 q 349 349 332 317 q 375 394 367 382 q 383 403 378 399 q 397 408 389 408 q 410 403 406 408 q 415 392 415 399 q 407 363 415 382 q 387 324 399 344 q 363 285 375 304 q 344 256 351 265 q 310 161 325 210 q 296 76 296 113 q 304 39 296 53 q 336 25 313 25 q 399 47 368 25 q 457 101 429 68 q 509 176 485 135 q 554 257 533 217 q 586 339 568 301 q 617 396 604 376 q 635 408 625 408 q 649 402 644 408 q 653 389 653 396 q 644 367 653 385 q 625 326 636 349 q 603 278 614 303 q 585 240 592 254 q 574 183 574 204 q 615 142 574 142 q 733 225 664 142 q 747 231 739 231 q 759 226 756 231 q 763 214 763 221 q 758 201 763 207 q 615 107 679 107 z "},"x":{"ha":569,"x_min":-19,"x_max":588,"o":"m 47 -6 q 35 0 40 -6 q 31 13 31 6 q 33 21 31 15 q 61 49 40 29 q 112 96 82 69 q 178 153 142 122 q 254 217 214 185 q 251 295 253 253 q 240 363 250 338 q 211 386 233 386 q 181 378 197 386 q 117 324 150 361 q 54 251 85 288 q 32 224 42 236 q 11 201 22 213 q -1 196 6 196 q -14 201 -8 196 q -19 213 -19 206 q -14 225 -19 219 q 6 247 -4 235 q 28 274 15 258 q 94 351 60 313 q 164 408 129 389 q 213 421 189 421 q 251 406 236 421 q 272 375 265 392 q 285 317 282 350 q 289 244 288 283 q 364 303 328 275 q 430 355 400 332 q 481 394 460 378 q 511 417 503 410 q 524 421 515 421 q 536 415 532 421 q 540 403 540 410 q 532 389 540 393 q 415 298 478 347 q 290 200 351 249 q 292 122 290 160 q 301 60 293 85 q 342 26 313 26 q 371 36 357 26 q 449 107 404 60 q 558 225 494 154 q 571 231 564 231 q 588 213 588 231 q 583 201 588 206 q 472 82 518 131 q 390 7 426 33 q 367 -5 379 0 q 342 -10 354 -10 q 294 8 314 -10 q 268 50 275 26 q 258 106 261 75 q 256 172 256 138 q 185 114 218 142 q 127 64 153 86 q 85 26 101 42 q 63 3 68 10 q 47 -6 54 -6 z "},"y":{"ha":667,"x_min":-18,"x_max":685,"o":"m 113 -428 q 51 -400 75 -428 q 26 -337 26 -372 q 37 -284 26 -310 q 64 -235 47 -258 q 100 -193 81 -212 q 139 -158 119 -174 q 242 -80 188 -117 q 342 -15 297 -43 q 395 116 369 53 q 442 232 421 179 q 383 156 417 197 q 314 80 350 115 q 242 21 278 44 q 178 -3 207 -3 q 138 13 150 -3 q 126 51 126 29 q 140 123 126 82 q 169 207 154 164 q 199 288 185 247 q 213 357 213 329 q 208 377 213 368 q 193 386 204 386 q 154 363 178 386 q 104 310 131 340 q 53 249 78 281 q 13 201 28 218 q -1 196 7 196 q -14 201 -10 196 q -18 213 -18 206 q -12 225 -18 219 q 62 313 31 276 q 117 374 93 350 q 160 408 142 397 q 194 419 178 419 q 236 400 225 419 q 247 357 247 381 q 233 283 247 325 q 203 194 219 240 q 175 118 189 158 q 161 54 161 78 q 165 38 161 44 q 178 31 169 31 q 249 67 206 31 q 339 158 292 104 q 430 274 386 213 q 501 383 474 335 q 518 393 506 393 q 535 375 535 393 q 532 364 535 369 q 490 258 508 306 q 454 169 471 210 q 422 90 438 128 q 392 15 407 53 q 458 56 426 36 q 520 99 489 75 q 584 152 551 122 q 656 225 617 182 q 669 231 661 231 q 681 225 678 231 q 685 213 685 219 q 681 201 685 206 q 531 63 610 117 q 369 -39 453 8 l 347 -92 q 312 -181 328 -137 q 276 -268 296 -225 q 248 -324 264 -296 q 212 -376 232 -353 q 167 -413 192 -399 q 113 -428 142 -428 m 319 -69 q 238 -124 281 -94 q 160 -185 196 -153 q 124 -219 142 -200 q 93 -258 107 -237 q 70 -298 79 -278 q 61 -336 61 -318 q 76 -376 61 -360 q 114 -393 90 -393 q 183 -357 151 -393 q 243 -257 214 -321 q 267 -203 256 -231 q 288 -149 278 -175 q 306 -101 299 -122 q 319 -69 314 -81 z "},"z":{"ha":531,"x_min":-124,"x_max":549,"o":"m -40 -435 q -103 -406 -83 -435 q -124 -346 -124 -378 q -69 -229 -124 -286 q 47 -130 -21 -178 q 190 -33 115 -82 l 218 -15 q 225 22 225 10 q 210 58 225 43 q 133 10 172 29 q 63 -8 94 -8 q 32 2 44 -8 q 19 29 19 13 q 34 68 19 49 q 75 100 49 88 q 108 113 89 107 q 149 119 126 119 q 179 116 164 119 q 210 103 194 113 q 274 167 244 132 q 321 236 303 201 q 343 313 343 276 q 319 367 343 350 q 260 385 296 385 q 174 360 213 385 q 100 299 136 335 q 56 250 76 275 q 13 201 36 225 q 0 196 8 196 q -12 201 -8 196 q -17 214 -17 207 q -12 225 -17 221 q 38 281 15 256 q 83 331 60 307 q 167 396 124 371 q 260 421 210 421 q 347 390 315 421 q 379 311 379 360 q 374 271 379 293 q 353 221 368 249 q 303 149 333 185 q 238 81 274 113 q 254 53 249 68 q 260 26 260 38 q 258 13 260 17 q 334 62 300 39 q 399 109 368 85 q 460 161 431 133 q 519 225 489 189 q 533 231 525 231 q 545 226 542 231 q 549 214 549 221 q 544 201 549 207 q 488 140 515 167 q 427 88 460 114 q 351 32 394 61 q 247 -37 308 3 q 194 -166 224 -99 q 129 -292 165 -233 q 45 -399 85 -362 q -40 -435 6 -435 m 197 -69 q 65 -161 126 -117 q -44 -254 3 -206 q -78 -300 -67 -278 q -90 -346 -90 -322 q -78 -383 -90 -367 q -43 -400 -65 -400 q 31 -365 -3 -400 q 101 -269 65 -331 q 158 -160 133 -217 q 197 -69 182 -104 m 149 85 q 119 80 135 85 q 88 67 103 75 q 64 50 74 60 q 54 31 54 40 q 63 26 54 26 q 117 41 86 26 q 179 79 147 56 q 149 85 167 85 z "},"{":{"ha":556,"x_min":-29,"x_max":638,"o":"m 75 -439 q -3 -412 22 -439 q -29 -340 -29 -385 q -17 -267 -29 -310 q 12 -181 -6 -225 q 49 -94 29 -136 q 85 -18 69 -51 q 109 34 96 6 q 133 88 122 63 q 152 136 144 114 q 160 169 160 158 q 154 184 160 178 q 140 194 149 190 q 124 199 132 197 q 110 201 115 201 q 90 221 90 201 q 110 246 90 246 q 154 254 135 246 q 190 274 174 263 q 215 301 203 282 q 237 349 226 321 q 258 410 247 376 q 279 479 268 443 q 308 568 293 522 q 340 657 322 614 q 378 739 357 700 q 425 810 399 778 q 506 873 465 858 q 578 888 547 888 q 594 887 583 888 q 614 884 604 886 q 631 877 624 882 q 638 865 638 872 q 632 851 638 857 q 619 846 626 846 q 607 849 614 846 q 579 851 600 851 q 520 840 554 851 q 451 788 486 828 q 406 718 426 758 q 367 633 385 678 q 336 546 350 589 q 313 469 322 503 q 291 402 301 436 q 268 338 281 368 q 242 282 256 307 q 210 244 228 257 q 185 229 197 235 q 163 221 174 224 q 186 199 178 210 q 194 171 194 188 q 174 92 194 142 q 117 -33 153 43 q 78 -114 97 -72 q 42 -197 58 -156 q 16 -274 26 -237 q 6 -340 6 -311 q 24 -390 6 -376 q 78 -404 42 -404 q 105 -401 97 -404 q 119 -399 113 -399 q 131 -403 126 -399 q 136 -415 136 -408 q 124 -433 136 -429 q 106 -437 117 -436 q 75 -439 94 -439 z "},"|":{"ha":556,"x_min":-58,"x_max":461,"o":"m -42 -356 q -55 -350 -51 -356 q -58 -339 -58 -344 q -57 -332 -58 -335 l 428 838 q 443 847 432 847 q 458 842 454 847 q 461 831 461 838 q 460 824 461 826 l -25 -344 q -42 -356 -29 -356 z "},"}":{"ha":556,"x_min":-143,"x_max":524,"o":"m -85 -439 q -117 -436 -104 -439 q -132 -432 -129 -433 q -143 -417 -143 -428 q -138 -403 -143 -407 q -126 -399 -133 -399 q -112 -401 -121 -399 q -85 -404 -104 -404 q -26 -392 -60 -404 q 43 -339 8 -381 q 88 -270 68 -310 q 126 -187 108 -231 q 157 -101 143 -144 q 182 -21 171 -57 q 228 118 207 63 q 285 203 250 174 q 308 218 296 213 q 331 226 321 224 q 308 247 317 238 q 300 278 300 257 q 307 315 300 292 q 325 365 314 338 q 350 423 336 393 q 378 482 364 453 q 414 558 394 517 q 450 642 433 600 q 478 724 467 683 q 489 797 489 764 q 468 840 489 828 q 419 851 447 851 q 397 849 407 851 q 379 847 386 847 q 357 865 357 847 q 363 876 357 872 q 378 883 369 881 q 397 887 388 886 q 414 888 407 888 q 490 867 457 888 q 524 800 524 846 q 513 721 524 764 q 485 634 501 678 q 448 547 468 590 q 410 467 428 504 q 386 417 399 444 q 362 362 374 389 q 342 313 350 335 q 335 278 335 290 q 340 263 335 269 q 354 253 346 257 q 371 247 363 249 q 385 246 379 246 q 399 241 392 246 q 407 225 407 236 q 401 208 407 215 q 385 201 394 201 q 304 174 336 201 q 256 94 274 147 q 215 -31 238 40 q 188 -117 203 -72 q 155 -206 172 -162 q 116 -290 138 -250 q 69 -362 94 -331 q -12 -425 29 -411 q -85 -439 -54 -439 z "},"~":{"ha":668,"x_min":63,"x_max":600,"o":"m 457 292 q 408 300 431 292 q 367 322 386 308 q 333 353 349 336 q 303 385 317 369 q 250 437 276 415 q 190 458 224 458 q 157 453 174 458 q 123 428 135 446 q 106 391 111 411 q 99 351 100 371 q 97 317 97 331 q 82 294 97 294 q 65 309 68 294 q 63 331 63 324 q 65 365 63 343 q 76 411 68 388 q 101 456 85 435 q 146 486 118 476 q 190 494 168 494 q 267 467 233 494 q 328 408 300 439 q 386 353 356 379 q 454 326 417 326 q 506 343 482 326 q 534 376 522 356 q 553 415 546 396 q 563 448 560 433 q 565 467 565 463 q 570 478 565 474 q 582 482 575 482 q 600 463 600 482 q 596 439 600 457 q 583 399 592 421 q 561 353 575 376 q 526 315 547 331 q 457 292 494 292 z "},"":{"ha":342,"x_min":0,"x_max":0,"o":""},"":{"ha":342,"x_min":-117,"x_max":268,"o":"m 149 343 q 161 338 157 343 q 165 326 165 333 q 164 319 165 322 l -83 -257 q -99 -268 -87 -268 q -112 -263 -107 -268 q -117 -251 -117 -258 q -115 -244 -117 -247 l 132 332 q 149 343 136 343 m 210 560 q 219 581 210 572 q 239 589 228 589 q 260 581 251 589 q 268 560 268 572 q 260 540 268 549 q 239 531 251 531 q 219 540 228 531 q 210 560 210 549 z "},"":{"ha":464,"x_min":32,"x_max":450,"o":"m 157 175 q 143 175 150 175 q 129 178 136 175 l 68 31 q 51 19 64 19 q 40 24 44 19 q 35 36 35 29 q 36 44 35 42 l 96 190 q 46 253 60 213 q 32 332 32 293 q 67 485 32 408 q 154 619 103 563 q 235 690 193 663 q 318 724 278 717 l 376 863 q 392 872 379 872 q 405 867 400 872 q 410 854 410 861 q 409 851 410 853 q 408 849 408 850 l 357 725 q 449 663 417 718 q 450 654 450 660 q 445 642 450 646 q 433 638 440 638 q 418 646 422 638 q 388 679 407 668 q 347 690 368 690 l 342 690 l 142 210 q 148 209 144 210 q 156 208 151 208 q 201 217 178 208 q 246 240 224 226 q 287 270 268 253 q 321 304 306 288 q 335 310 326 310 q 347 304 343 310 q 351 292 351 299 q 347 281 351 285 q 257 205 306 235 q 157 175 208 175 m 179 596 q 97 465 126 538 q 67 329 67 393 q 76 269 67 297 q 110 222 86 240 l 301 683 q 179 596 239 661 z "},"":{"ha":513,"x_min":-107,"x_max":556,"o":"m 311 376 l 135 376 q 70 211 107 297 q -7 63 33 125 q 76 76 32 76 q 152 65 115 76 q 221 42 189 53 q 289 19 257 29 q 347 10 321 10 q 372 13 364 10 q 388 17 381 17 q 400 12 396 17 q 404 0 404 7 q 397 -14 404 -8 q 379 -22 389 -19 q 360 -24 369 -24 q 346 -25 350 -25 q 282 -15 315 -25 q 210 8 249 -4 q 140 31 174 19 q 69 43 106 43 q 19 35 43 43 q -23 18 -4 28 q -54 -1 -42 8 q -71 -12 -67 -10 q -86 -19 -78 -19 q -102 -13 -97 -19 q -107 0 -107 -7 q -96 17 -107 13 q -51 58 -76 24 q -1 143 -26 93 q 51 254 25 193 q 99 376 76 315 l 33 376 q 21 381 26 376 q 15 393 15 386 q 33 411 15 411 l 111 411 q 127 463 119 438 q 142 513 135 489 q 210 706 174 632 q 282 819 246 779 q 351 873 318 860 q 411 886 385 886 q 517 844 478 886 q 556 736 556 801 q 544 669 556 703 q 511 604 533 635 q 497 599 507 599 q 485 604 489 599 q 481 615 481 610 q 483 625 481 622 q 519 735 519 676 q 490 819 519 788 q 413 851 460 851 q 281 762 343 851 q 175 504 219 672 q 163 463 169 486 q 146 411 156 439 l 311 411 q 329 393 329 411 q 324 381 329 386 q 311 376 318 376 z "},"":{"ha":558,"x_min":-24,"x_max":581,"o":"m -6 197 q -19 204 -12 197 q -23 217 -24 210 q -17 228 -22 224 l 101 321 q 82 458 61 379 q 119 536 93 500 q 182 599 146 572 l 118 686 q 122 711 110 699 q 147 707 135 719 l 213 617 q 265 638 238 631 q 319 646 292 646 q 424 610 381 646 l 425 611 l 551 710 q 576 707 565 721 q 580 694 581 701 q 574 683 579 688 l 447 583 q 464 450 486 526 q 428 376 453 410 q 371 315 404 342 l 438 225 q 435 200 446 211 q 424 197 426 197 q 410 204 417 197 l 343 296 q 286 272 315 281 q 226 263 257 263 q 125 296 164 263 l 6 201 q -6 197 -1 197 m 319 611 q 253 599 286 611 q 193 564 221 586 q 144 513 165 542 q 115 450 124 483 q 132 339 99 383 q 226 297 165 297 q 292 310 260 297 q 353 344 325 322 q 401 396 381 367 q 431 458 422 425 q 414 569 447 525 q 319 611 381 611 z "},"":{"ha":513,"x_min":19,"x_max":619,"o":"m 360 369 l 224 369 l 196 294 l 347 294 q 365 276 365 294 q 360 265 365 269 q 347 260 354 260 l 183 260 l 85 -11 q 68 -22 81 -22 q 50 -7 50 -22 q 51 1 50 -1 l 147 260 l 36 260 q 24 265 29 260 q 19 276 19 269 q 36 294 19 294 l 160 294 l 188 369 l 49 369 q 31 388 31 369 q 49 404 31 404 l 196 404 l 169 864 q 188 882 168 882 q 199 878 194 882 q 204 867 204 874 l 229 442 l 589 876 q 603 882 593 882 q 615 876 611 882 q 619 865 619 871 q 615 854 619 858 l 243 404 l 360 404 q 376 388 376 404 q 360 369 376 369 z "},"":{"ha":558,"x_min":-58,"x_max":464,"o":"m -40 -353 q -53 -347 -49 -353 q -58 -336 -58 -342 q -57 -329 -58 -332 l 147 164 q 163 174 151 174 q 176 169 171 174 q 181 157 181 164 q 179 150 181 153 l -25 -342 q -40 -353 -29 -353 m 240 321 q 228 326 232 321 q 224 338 224 332 q 225 344 224 342 l 429 838 q 444 849 435 849 q 459 844 454 849 q 464 832 464 839 q 461 824 464 826 l 257 332 q 240 321 253 321 z "},"":{"ha":694,"x_min":-143,"x_max":682,"o":"m 78 -407 q -13 -391 28 -407 q -83 -347 -54 -375 q -127 -279 -111 -318 q -143 -196 -143 -240 q -142 -170 -143 -185 q -139 -147 -142 -156 q -122 -133 -135 -133 q -106 -151 -106 -133 q -107 -167 -106 -162 q -108 -193 -108 -172 q -93 -268 -108 -235 q -53 -324 -78 -301 q 6 -360 -28 -347 q 78 -372 40 -372 q 159 -356 121 -372 q 226 -311 197 -339 q 271 -247 254 -283 q 288 -168 288 -210 q 247 -21 288 -100 q 142 168 207 58 q 102 258 114 214 q 90 346 90 301 q 126 493 90 426 q 225 599 163 560 q 238 687 225 649 q 265 749 250 725 q 356 843 300 808 q 472 878 413 878 q 632 817 578 878 q 673 735 664 781 q 682 646 682 690 q 681 628 682 638 q 676 607 681 618 q 657 592 672 592 q 640 606 640 592 q 644 622 640 613 q 647 660 647 631 q 639 731 647 696 q 607 793 631 765 q 472 843 563 843 q 374 812 422 843 q 296 731 326 781 q 272 678 283 711 q 261 604 261 646 q 274 515 261 556 q 308 436 286 474 q 420 227 378 313 q 463 69 463 142 q 422 -58 463 0 q 319 -137 382 -115 q 321 -153 321 -146 q 321 -169 321 -161 q 301 -263 321 -219 q 247 -339 281 -307 q 169 -389 214 -371 q 78 -407 125 -407 m 314 -104 q 371 -64 349 -87 q 406 -15 393 -40 q 422 32 418 10 q 426 69 426 54 q 416 138 426 101 q 387 216 406 174 q 340 308 368 258 q 278 419 313 358 q 244 492 256 457 q 228 558 232 526 q 151 462 178 518 q 124 344 124 406 q 133 273 124 311 q 167 193 143 235 q 260 29 221 100 q 314 -104 299 -42 z "},"":{"ha":347,"x_min":161,"x_max":340,"o":"m 228 775 q 213 742 228 751 q 189 732 199 732 q 167 742 174 732 q 161 764 161 753 q 173 794 161 782 q 200 806 185 806 q 221 796 214 806 q 228 775 228 786 m 340 774 q 327 742 340 751 q 303 732 314 732 q 281 742 288 732 q 274 764 274 753 q 286 793 274 781 q 314 806 299 806 q 333 797 325 806 q 340 774 340 789 z "},"":{"ha":972,"x_min":47,"x_max":913,"o":"m 340 -21 q 213 3 268 -21 q 122 69 158 28 q 66 167 85 111 q 47 283 47 222 q 54 358 47 319 q 74 438 61 397 q 162 609 104 529 q 293 749 219 689 q 451 843 367 808 q 619 878 536 878 q 740 855 686 878 q 833 792 794 832 q 892 696 871 751 q 913 574 913 640 q 906 499 913 538 q 886 419 899 460 q 797 248 856 328 q 665 108 739 168 q 507 14 592 49 q 340 -21 422 -21 m 619 843 q 463 810 542 843 q 314 721 383 778 q 190 588 244 664 q 107 426 136 513 q 82 283 82 351 q 99 177 82 226 q 149 92 117 128 q 229 35 182 56 q 338 14 276 14 q 496 47 417 14 q 645 136 575 79 q 769 269 715 193 q 853 431 824 344 q 878 574 878 506 q 859 688 878 638 q 806 772 840 738 q 724 824 771 806 q 619 843 676 842 m 413 174 q 349 185 375 174 q 306 216 322 196 q 281 263 289 236 q 274 319 274 289 q 292 426 274 369 q 341 533 310 482 q 414 624 372 583 q 504 685 456 665 q 532 694 518 690 q 560 697 546 697 q 615 672 596 697 q 633 615 633 647 q 626 572 633 594 q 606 528 618 549 q 578 495 593 508 q 547 482 563 482 q 531 493 536 482 q 530 496 531 494 q 529 499 529 497 q 542 517 529 513 q 582 557 567 526 q 597 615 597 588 q 560 663 597 663 q 535 659 546 663 q 513 651 524 656 q 433 596 469 633 q 368 512 396 558 q 324 415 340 465 q 308 321 308 364 q 331 238 308 268 q 411 208 353 208 q 470 219 443 208 q 521 247 497 229 q 565 285 544 264 q 603 326 585 306 q 615 333 610 333 q 628 328 622 333 q 633 315 633 322 q 629 304 633 308 q 588 260 610 283 q 539 217 565 236 q 481 186 513 199 q 413 174 450 174 z "},"":{"ha":382,"x_min":68,"x_max":404,"o":"m 146 490 q 109 499 124 490 q 85 522 94 508 q 72 553 76 536 q 68 588 68 571 q 85 668 68 626 q 119 732 99 703 q 164 782 139 761 q 216 815 189 803 q 271 828 243 828 q 322 815 299 828 q 358 778 346 803 l 372 803 q 386 811 376 811 q 399 805 394 811 q 404 792 404 799 q 403 785 404 788 q 383 748 393 768 q 357 696 372 728 q 324 613 338 653 q 310 549 310 574 q 313 531 310 538 q 328 522 317 524 q 344 506 344 519 q 325 488 344 488 q 288 506 300 488 q 275 547 275 525 q 279 581 275 561 q 213 517 247 544 q 146 490 179 490 m 274 793 q 183 753 226 793 q 117 656 140 714 q 106 619 110 638 q 103 586 103 601 q 112 544 103 564 q 144 525 121 525 q 196 546 169 525 q 247 594 222 567 q 290 651 271 622 q 317 694 308 679 l 335 732 q 274 793 329 793 z "},"":{"ha":431,"x_min":25,"x_max":335,"o":"m 186 -17 q 169 -1 172 -17 l 146 207 q 149 219 146 215 l 304 428 q 317 433 308 433 q 331 428 326 433 q 335 417 335 424 q 332 407 335 410 l 181 204 l 204 3 q 200 -10 206 -4 q 186 -17 194 -17 m 67 -17 q 47 -1 50 -17 l 25 207 q 28 219 25 215 l 182 428 q 196 433 186 433 q 208 428 204 433 q 213 417 213 422 q 210 407 213 410 l 60 204 l 82 3 q 78 -10 83 -4 q 67 -17 74 -17 z "},"":{"ha":594,"x_min":78,"x_max":485,"o":"m 413 232 q 398 236 403 232 q 393 244 393 240 q 393 249 393 246 q 394 256 393 253 l 442 406 l 94 406 q 82 410 86 406 q 78 422 78 415 q 94 440 78 440 l 465 440 q 483 433 481 440 q 482 418 485 425 l 428 246 q 422 236 425 240 q 413 232 419 232 z "},"":{"ha":538,"x_min":51,"x_max":474,"o":"m 457 347 l 69 347 q 51 365 51 347 q 69 382 51 382 l 457 382 q 474 365 474 382 q 457 347 474 347 z "},"":{"ha":972,"x_min":44,"x_max":910,"o":"m 338 -21 q 123 62 201 -14 q 44 283 44 138 q 51 358 44 319 q 71 438 58 397 q 160 609 101 529 q 292 749 218 689 q 450 843 365 808 q 617 878 535 878 q 738 855 683 878 q 830 791 792 832 q 889 694 868 750 q 910 574 910 639 q 903 499 910 538 q 883 419 896 460 q 794 248 853 328 q 662 108 736 168 q 503 14 588 49 q 338 -21 418 -21 m 619 843 q 461 810 540 843 q 312 721 382 778 q 188 588 242 664 q 104 426 133 513 q 79 283 79 351 q 98 171 79 221 q 150 86 117 121 q 231 33 183 51 q 335 14 278 14 q 493 47 414 14 q 642 136 572 79 q 767 269 713 193 q 850 431 821 344 q 875 574 875 506 q 856 683 875 633 q 803 769 838 733 q 722 824 769 804 q 619 843 675 843 m 263 185 q 251 190 256 185 q 246 201 246 194 q 247 208 246 206 q 269 265 254 226 q 303 352 285 304 q 341 453 321 400 q 379 553 361 506 q 410 635 397 600 q 429 686 424 671 q 446 699 433 699 q 458 694 453 699 q 463 682 463 689 q 461 675 463 678 l 425 576 q 456 617 440 597 q 491 653 472 638 q 531 679 510 669 q 575 689 551 689 q 628 661 613 689 q 644 600 644 633 q 628 522 644 564 q 575 444 611 479 q 486 388 533 404 q 404 372 439 372 l 389 372 q 413 319 397 346 q 449 272 428 293 q 494 237 469 250 q 546 224 519 224 q 622 253 589 224 q 633 257 626 257 q 651 240 651 257 q 644 225 651 232 q 547 189 600 189 q 480 206 513 189 q 421 249 447 222 q 376 311 394 276 q 350 382 357 346 l 279 196 q 263 185 275 185 m 369 414 q 404 407 388 407 q 472 420 432 407 q 550 469 513 433 q 597 537 582 501 q 611 600 611 572 q 603 637 611 619 q 575 654 594 654 q 544 646 561 654 q 463 568 503 626 q 369 414 422 510 z "},"":{"ha":347,"x_min":117,"x_max":400,"o":"m 383 753 l 135 753 q 117 771 117 753 q 135 788 117 788 l 383 788 q 400 771 400 788 q 383 753 400 753 z "},"":{"ha":297,"x_min":82,"x_max":321,"o":"m 201 613 q 117 647 151 613 q 82 732 82 682 q 117 817 82 782 q 201 851 151 851 q 286 817 251 851 q 321 732 321 782 q 286 647 321 682 q 201 613 251 613 m 201 817 q 141 792 165 817 q 117 732 117 768 q 141 672 117 696 q 201 647 165 647 q 262 672 238 647 q 286 732 286 696 q 262 792 286 768 q 201 817 238 817 z "},"":{"ha":594,"x_min":-4,"x_max":522,"o":"m 504 358 l 283 358 l 206 161 q 189 151 200 151 q 176 156 181 151 q 172 167 172 161 q 174 175 172 172 l 247 358 l 47 358 q 35 364 40 358 q 31 376 31 369 q 35 388 31 383 q 47 393 40 393 l 261 393 l 347 608 q 364 619 351 619 q 381 601 381 619 q 379 596 381 597 l 297 393 l 504 393 q 522 376 522 393 q 504 358 522 358 m 400 49 l 13 49 q -4 67 -4 49 q 1 78 -4 74 q 13 83 6 83 l 400 83 q 413 78 407 83 q 418 67 418 74 q 400 49 418 49 z "},"":{"ha":278,"x_min":35,"x_max":299,"o":"m 53 474 q 35 492 35 474 q 43 506 35 501 q 128 565 88 531 q 197 633 169 600 q 243 701 222 663 q 264 769 264 740 q 245 809 264 796 q 204 822 226 822 q 178 817 193 822 q 151 803 164 813 q 128 782 138 794 q 119 756 119 769 q 122 746 119 749 q 124 739 124 743 q 118 727 124 731 q 106 724 113 724 q 90 735 94 724 q 85 756 85 746 q 97 795 85 776 q 126 828 108 814 q 165 850 143 842 q 206 858 186 858 q 272 832 246 858 q 299 768 299 806 q 291 727 299 749 q 272 683 283 706 q 246 641 260 661 q 218 606 232 621 q 126 519 179 560 q 181 510 164 513 q 210 507 199 507 q 239 513 232 507 q 257 519 246 519 q 269 515 265 519 q 274 503 274 510 q 267 488 274 494 q 210 472 242 472 q 155 480 181 472 q 103 488 129 488 q 75 481 88 488 q 53 474 64 474 z "},"":{"ha":278,"x_min":39,"x_max":318,"o":"m 144 653 q 129 669 129 653 q 133 681 129 676 q 144 686 138 686 q 257 726 215 686 q 276 750 268 738 q 283 778 283 763 q 262 816 283 804 q 219 828 240 828 q 205 826 214 828 q 187 822 196 825 q 171 815 178 819 q 164 804 164 811 q 159 792 164 797 q 147 786 154 786 q 129 804 129 789 q 139 831 129 819 q 162 849 149 842 q 190 859 175 856 q 218 863 206 863 q 287 842 256 863 q 318 778 318 821 q 294 717 318 743 q 243 675 271 690 q 289 594 289 642 q 276 540 289 564 q 243 500 264 517 q 197 475 222 483 q 147 467 172 467 q 112 472 131 467 q 77 485 93 476 q 50 506 61 493 q 39 533 39 518 q 57 553 39 553 q 72 539 72 553 q 81 522 72 529 q 101 510 89 515 q 124 503 113 506 q 144 500 136 500 q 224 528 193 500 q 254 593 254 557 q 235 637 254 618 q 193 654 217 656 l 144 653 z "},"":{"ha":347,"x_min":165,"x_max":363,"o":"m 182 689 q 169 694 174 689 q 165 706 165 699 q 171 719 165 715 l 335 847 q 346 850 339 850 q 363 835 363 850 q 356 819 363 826 l 193 692 q 182 689 185 689 z "},"":{"ha":543,"x_min":-187,"x_max":472,"o":"m 299 -11 q 259 8 272 -11 q 246 50 246 28 q 249 74 246 57 q 263 119 251 92 q 179 31 224 68 q 90 -7 135 -7 q 42 6 64 -7 q 13 42 19 19 q -35 -79 -11 -19 q -82 -193 -60 -139 q -123 -293 -104 -247 q -154 -369 -142 -339 q -169 -381 -158 -381 q -187 -362 -187 -381 q -186 -356 -187 -358 q -149 -264 -172 -321 q -98 -140 -125 -207 q -42 -1 -71 -72 q 13 136 -12 71 q 67 279 42 210 q 119 414 93 349 q 136 425 124 425 q 149 419 144 425 q 153 407 153 414 q 146 383 153 403 q 128 337 139 364 q 106 278 118 310 q 82 217 93 246 q 62 166 71 189 q 49 135 53 143 q 41 108 43 121 q 39 85 39 96 q 52 43 39 58 q 90 28 65 28 q 159 59 122 28 q 231 135 196 90 q 294 228 265 179 q 339 314 322 278 q 362 367 351 342 q 382 418 372 393 q 399 429 386 429 q 410 424 406 429 q 415 411 415 418 q 408 391 415 408 q 393 352 401 374 q 376 310 385 331 q 364 282 368 290 q 340 224 354 258 q 312 155 325 189 q 290 92 299 121 q 281 51 281 64 q 284 33 281 42 q 299 24 288 24 q 314 26 306 24 q 382 79 354 49 q 443 143 410 110 q 454 149 449 149 q 467 143 461 149 q 472 131 472 138 q 468 119 472 124 q 391 41 424 74 q 326 -6 358 8 q 299 -11 314 -11 z "},"":{"ha":833,"x_min":7,"x_max":740,"o":"m 257 -201 q 244 -197 249 -201 q 239 -185 239 -192 q 240 -178 239 -181 l 640 822 q 465 869 561 865 l 40 -190 q 25 -201 36 -201 q 7 -186 7 -201 q 8 -178 7 -181 l 240 400 q 137 499 174 440 q 100 625 100 558 q 128 733 100 682 q 203 822 156 783 q 316 882 251 860 q 456 904 381 904 q 613 875 539 904 q 735 793 686 846 q 740 781 740 785 q 735 768 740 774 q 722 763 729 763 q 710 769 717 763 q 692 788 701 779 q 671 804 682 796 l 272 -190 q 257 -201 268 -201 m 135 625 q 166 518 135 568 q 253 433 197 468 l 426 868 q 313 844 365 864 q 220 791 260 824 q 158 715 181 758 q 135 625 135 672 z "},"":{"ha":253,"x_min":86,"x_max":143,"o":"m 143 457 q 135 436 143 444 q 114 428 126 428 q 94 436 103 428 q 86 457 86 444 q 94 477 86 468 q 114 486 103 486 q 135 477 126 486 q 143 457 143 468 z "},"":{"ha":403,"x_min":18,"x_max":285,"o":"m 64 -306 q 34 -303 50 -306 q 18 -285 18 -300 q 23 -273 18 -278 q 35 -268 28 -268 q 50 -270 43 -268 q 64 -272 57 -272 q 105 -267 82 -272 q 151 -250 128 -261 q 197 -223 175 -239 q 235 -185 219 -207 q 249 -147 249 -165 q 235 -122 249 -126 q 210 -118 221 -118 q 187 -120 199 -118 q 165 -125 175 -122 l 144 -132 q 139 -133 143 -133 q 126 -128 131 -133 q 121 -117 121 -124 q 125 -104 121 -111 l 224 18 q 238 25 231 25 q 250 19 246 25 q 254 7 254 14 q 251 -3 254 0 l 185 -85 q 199 -83 192 -83 q 214 -83 207 -83 q 263 -101 242 -83 q 285 -146 285 -118 q 263 -206 285 -172 q 221 -249 246 -231 q 169 -281 196 -268 q 114 -299 142 -293 q 64 -306 86 -306 z "},"":{"ha":278,"x_min":122,"x_max":289,"o":"m 203 771 q 190 776 194 771 q 186 789 186 782 q 196 804 186 800 l 264 840 q 272 842 267 842 q 289 826 289 842 q 288 819 289 822 q 286 814 288 817 l 156 469 q 139 458 151 458 q 127 463 132 458 q 122 474 122 468 q 124 482 122 479 l 239 788 l 211 774 q 203 771 206 771 z "},"":{"ha":382,"x_min":97,"x_max":382,"o":"m 182 490 q 118 520 139 490 q 97 588 97 550 q 114 667 97 625 q 147 729 126 700 q 193 779 168 758 q 245 813 218 800 q 297 825 272 825 q 360 794 339 825 q 382 726 382 763 q 365 647 382 689 q 331 585 351 614 q 285 535 310 557 q 233 502 260 514 q 182 490 207 490 m 299 790 q 255 779 278 790 q 211 749 232 768 q 173 706 190 731 q 146 654 156 681 q 132 588 132 615 q 144 544 132 564 q 181 525 157 525 q 224 535 201 525 q 267 564 246 546 q 305 606 288 582 q 333 660 322 631 q 347 726 347 699 q 335 770 347 750 q 299 790 322 790 z "},"":{"ha":431,"x_min":64,"x_max":351,"o":"m 82 -8 q 69 -3 74 -8 q 64 10 64 3 q 67 18 64 13 l 196 206 l 143 406 q 147 421 140 414 q 161 428 153 428 q 178 414 174 428 l 232 206 q 229 192 233 199 l 96 -1 q 82 -8 92 -8 m 200 -10 q 182 6 182 -10 q 186 18 182 14 l 314 204 l 263 404 q 265 419 260 413 q 278 426 271 426 q 296 414 290 426 l 350 206 q 347 192 351 199 l 214 -1 q 200 -10 210 -10 z "},"":{"ha":740,"x_min":-17,"x_max":669,"o":"m 0 -4 q -12 1 -8 -4 q -17 13 -17 6 q -14 24 -17 21 l 639 882 q 653 888 643 888 q 665 882 661 888 q 669 871 669 876 q 667 861 669 864 l 14 3 q 0 -4 10 -4 m 182 771 q 169 776 174 771 q 165 789 165 782 q 175 804 165 800 l 243 840 q 251 842 246 842 q 268 826 268 842 q 267 819 268 822 q 265 814 267 817 l 135 469 q 118 458 131 458 q 106 463 111 458 q 101 474 101 468 q 103 482 101 479 l 218 788 l 190 774 q 182 771 185 771 m 342 154 l 599 400 q 611 406 606 406 q 629 390 629 406 q 628 382 629 386 l 540 157 l 575 157 q 588 152 582 157 q 593 140 593 147 q 575 122 593 122 l 526 122 l 481 4 q 464 -7 476 -7 q 447 8 447 -7 q 449 17 447 14 l 489 122 l 353 122 q 336 140 336 122 q 342 154 336 149 m 503 157 l 568 324 l 394 157 l 503 157 z "},"":{"ha":733,"x_min":8,"x_max":694,"o":"m 25 -4 q 13 1 17 -4 q 8 13 8 6 q 11 24 8 21 l 664 882 q 678 888 668 888 q 690 882 686 888 q 694 871 694 876 q 692 861 694 864 l 39 3 q 25 -4 35 -4 m 207 771 q 194 776 199 771 q 190 789 190 782 q 200 804 190 800 l 268 840 q 276 842 271 842 q 293 826 293 842 q 292 819 293 822 q 290 814 292 817 l 160 469 q 143 458 156 458 q 131 463 136 458 q 126 474 126 468 q 128 482 126 479 l 243 788 l 215 774 q 207 771 210 771 m 386 7 q 368 25 368 7 q 376 39 368 35 q 462 99 421 64 q 531 167 503 133 q 576 235 556 196 q 597 303 597 274 q 578 342 597 329 q 538 356 560 356 q 512 351 526 356 q 484 337 497 346 q 462 315 471 328 q 453 289 453 303 q 455 279 453 282 q 457 272 457 276 q 451 260 457 264 q 439 257 446 257 q 423 268 428 257 q 418 289 418 279 q 430 328 418 310 q 459 361 442 347 q 498 383 476 375 q 539 392 519 392 q 606 365 579 392 q 632 301 632 339 q 624 260 632 282 q 605 217 617 239 q 579 174 593 194 q 551 139 565 154 q 460 53 513 93 q 515 43 497 46 q 543 40 532 40 q 572 47 565 40 q 590 53 579 53 q 603 48 599 53 q 607 36 607 43 q 600 21 607 28 q 543 6 575 6 q 488 13 514 6 q 436 21 463 21 q 408 14 421 21 q 386 7 397 7 z "},"":{"ha":749,"x_min":38,"x_max":724,"o":"m 54 -4 q 42 1 46 -4 q 38 13 38 6 q 40 24 38 21 l 693 882 q 707 888 697 888 q 719 882 715 888 q 724 871 724 876 q 721 861 724 864 l 68 3 q 54 -4 64 -4 m 386 154 l 643 400 q 656 406 650 406 q 674 390 674 406 q 672 382 674 386 l 585 157 l 619 157 q 632 152 626 157 q 638 140 638 147 q 619 122 638 122 l 571 122 l 525 4 q 508 -7 521 -7 q 492 8 492 -7 q 493 17 492 14 l 533 122 l 397 122 q 381 140 381 122 q 386 154 381 149 m 547 157 l 613 324 l 439 157 l 547 157 m 158 653 q 143 669 143 653 q 147 681 143 676 q 158 686 151 686 q 271 726 229 686 q 290 750 282 738 q 297 778 297 763 q 276 816 297 804 q 233 828 254 828 q 219 826 228 828 q 201 822 210 825 q 185 815 192 819 q 178 804 178 811 q 173 792 178 797 q 161 786 168 786 q 143 804 143 789 q 153 831 143 819 q 176 849 163 842 q 204 859 189 856 q 232 863 219 863 q 301 842 269 863 q 332 778 332 821 q 308 717 332 743 q 257 675 285 690 q 303 594 303 642 q 290 540 303 564 q 257 500 278 517 q 211 475 236 483 q 161 467 186 467 q 126 472 144 467 q 91 485 107 476 q 64 506 75 493 q 53 533 53 518 q 71 553 53 553 q 86 539 86 553 q 94 522 86 529 q 115 510 103 515 q 138 503 126 506 q 158 500 150 500 q 238 528 207 500 q 268 593 268 557 q 249 637 268 618 q 207 654 231 656 l 158 653 z "},"":{"ha":521,"x_min":-100,"x_max":422,"o":"m 275 349 q 288 344 282 349 q 293 332 293 339 q 290 322 293 328 q 213 233 260 275 q 110 147 167 192 q -23 1 18 75 q -64 -131 -64 -74 q -53 -183 -64 -161 q -26 -218 -43 -204 q 13 -238 -10 -232 q 60 -244 35 -244 q 175 -204 118 -244 q 223 -160 201 -185 q 260 -111 244 -136 q 285 -63 276 -86 q 293 -25 293 -40 q 299 -13 293 -18 q 313 -8 306 -8 q 324 -15 319 -8 q 328 -28 328 -21 q 319 -72 328 -46 q 292 -125 310 -97 q 250 -181 275 -153 q 194 -232 225 -210 q 58 -279 128 -279 q -56 -240 -11 -279 q -100 -129 -100 -201 q -50 25 -100 -56 q 88 175 0 106 q 188 258 143 218 q 261 340 233 297 q 275 349 265 349 m 365 568 q 374 589 365 581 q 394 597 382 597 q 414 589 406 597 q 422 568 422 581 q 414 549 422 557 q 394 540 406 540 q 374 549 382 540 q 365 568 365 557 z "},"":{"ha":783,"x_min":-28,"x_max":803,"o":"m 126 -12 q 53 6 83 -12 q 6 53 24 24 q -20 119 -12 82 q -28 193 -28 156 q 10 386 -28 278 q 139 607 49 494 q 290 756 214 700 q 433 840 365 811 q 555 878 500 869 q 642 886 610 886 q 727 877 692 886 q 782 849 763 868 q 788 838 788 843 q 784 826 788 829 q 778 822 781 824 q 760 782 776 821 q 719 685 744 743 q 665 556 694 626 q 607 421 635 486 l 589 379 q 550 289 569 333 q 515 203 531 244 q 491 128 500 163 q 482 69 482 94 q 525 22 482 22 q 585 44 551 22 q 652 98 618 67 q 718 164 686 129 q 774 225 750 199 q 786 231 778 231 q 799 225 794 231 q 803 213 803 219 q 799 201 803 206 q 726 122 763 160 q 656 53 690 83 q 588 6 621 24 q 525 -12 554 -12 q 467 10 486 -12 q 449 68 449 33 q 465 158 449 106 q 506 272 481 210 q 423 170 468 221 q 328 78 378 119 q 228 13 279 38 q 126 -12 176 -12 m 743 835 q 705 847 731 842 q 642 851 679 851 q 561 843 613 851 q 445 808 510 835 q 308 727 381 781 q 165 585 236 674 q 42 375 79 476 q 6 194 6 274 q 12 133 6 164 q 32 78 18 103 q 69 38 46 53 q 124 22 92 22 q 210 42 165 22 q 297 97 254 63 q 382 175 340 131 q 460 268 424 219 q 529 367 497 317 q 585 460 561 417 q 667 651 625 554 q 743 835 710 749 m 749 963 q 738 967 742 963 l 574 1094 q 567 1107 567 1101 q 572 1122 567 1117 q 585 1126 578 1126 q 596 1122 589 1126 l 758 994 q 767 981 767 988 q 760 967 767 971 q 749 963 754 963 z "},"":{"ha":783,"x_min":-28,"x_max":803,"o":"m 126 -12 q 53 6 83 -12 q 6 53 24 24 q -20 119 -12 82 q -28 193 -28 156 q 10 386 -28 278 q 139 607 49 494 q 290 756 214 700 q 433 840 365 811 q 555 878 500 869 q 642 886 610 886 q 727 877 692 886 q 782 849 763 868 q 788 838 788 843 q 784 826 788 829 q 778 822 781 824 q 760 782 776 821 q 719 685 744 743 q 665 556 694 626 q 607 421 635 486 l 589 379 q 550 289 569 333 q 515 203 531 244 q 491 128 500 163 q 482 69 482 94 q 525 22 482 22 q 585 44 551 22 q 652 98 618 67 q 718 164 686 129 q 774 225 750 199 q 786 231 778 231 q 799 225 794 231 q 803 213 803 219 q 799 201 803 206 q 726 122 763 160 q 656 53 690 83 q 588 6 621 24 q 525 -12 554 -12 q 467 10 486 -12 q 449 68 449 33 q 465 158 449 106 q 506 272 481 210 q 423 170 468 221 q 328 78 378 119 q 228 13 279 38 q 126 -12 176 -12 m 743 835 q 705 847 731 842 q 642 851 679 851 q 561 843 613 851 q 445 808 510 835 q 308 727 381 781 q 165 585 236 674 q 42 375 79 476 q 6 194 6 274 q 12 133 6 164 q 32 78 18 103 q 69 38 46 53 q 124 22 92 22 q 210 42 165 22 q 297 97 254 63 q 382 175 340 131 q 460 268 424 219 q 529 367 497 317 q 585 460 561 417 q 667 651 625 554 q 743 835 710 749 m 594 961 q 582 966 586 961 q 578 978 578 971 q 583 992 578 988 l 747 1119 q 758 1122 751 1122 q 775 1107 775 1122 q 768 1092 775 1099 l 606 964 q 594 961 597 961 z "},"":{"ha":783,"x_min":-28,"x_max":803,"o":"m 126 -12 q 53 6 83 -12 q 6 53 24 24 q -20 119 -12 82 q -28 193 -28 156 q 10 386 -28 278 q 139 607 49 494 q 290 756 214 700 q 433 840 365 811 q 555 878 500 869 q 642 886 610 886 q 727 877 692 886 q 782 849 763 868 q 788 838 788 843 q 784 826 788 829 q 778 822 781 824 q 760 782 776 821 q 719 685 744 743 q 665 556 694 626 q 607 421 635 486 l 589 379 q 550 289 569 333 q 515 203 531 244 q 491 128 500 163 q 482 69 482 94 q 525 22 482 22 q 585 44 551 22 q 652 98 618 67 q 718 164 686 129 q 774 225 750 199 q 786 231 778 231 q 799 225 794 231 q 803 213 803 219 q 799 201 803 206 q 726 122 763 160 q 656 53 690 83 q 588 6 621 24 q 525 -12 554 -12 q 467 10 486 -12 q 449 68 449 33 q 465 158 449 106 q 506 272 481 210 q 423 170 468 221 q 328 78 378 119 q 228 13 279 38 q 126 -12 176 -12 m 743 835 q 705 847 731 842 q 642 851 679 851 q 561 843 613 851 q 445 808 510 835 q 308 727 381 781 q 165 585 236 674 q 42 375 79 476 q 6 194 6 274 q 12 133 6 164 q 32 78 18 103 q 69 38 46 53 q 124 22 92 22 q 210 42 165 22 q 297 97 254 63 q 382 175 340 131 q 460 268 424 219 q 529 367 497 317 q 585 460 561 417 q 667 651 625 554 q 743 835 710 749 m 478 969 q 465 975 469 969 q 461 988 461 981 q 469 1003 461 999 l 628 1117 q 638 1119 631 1119 q 651 1114 647 1119 l 749 1000 q 753 988 753 993 q 748 975 753 979 q 736 971 743 971 q 722 976 728 971 l 635 1079 l 490 974 q 478 969 483 969 z "},"":{"ha":783,"x_min":-28,"x_max":833,"o":"m 126 -12 q 53 6 83 -12 q 6 53 24 24 q -20 119 -12 82 q -28 193 -28 156 q 10 386 -28 278 q 139 607 49 494 q 290 756 214 700 q 433 840 365 811 q 555 878 500 869 q 642 886 610 886 q 727 877 692 886 q 782 849 763 868 q 788 838 788 843 q 784 826 788 829 q 778 822 781 824 q 760 782 776 821 q 719 685 744 743 q 665 556 694 626 q 607 421 635 486 l 589 379 q 550 289 569 333 q 515 203 531 244 q 491 128 500 163 q 482 69 482 94 q 525 22 482 22 q 585 44 551 22 q 652 98 618 67 q 718 164 686 129 q 774 225 750 199 q 786 231 778 231 q 799 225 794 231 q 803 213 803 219 q 799 201 803 206 q 726 122 763 160 q 656 53 690 83 q 588 6 621 24 q 525 -12 554 -12 q 467 10 486 -12 q 449 68 449 33 q 465 158 449 106 q 506 272 481 210 q 423 170 468 221 q 328 78 378 119 q 228 13 279 38 q 126 -12 176 -12 m 743 835 q 705 847 731 842 q 642 851 679 851 q 561 843 613 851 q 445 808 510 835 q 308 727 381 781 q 165 585 236 674 q 42 375 79 476 q 6 194 6 274 q 12 133 6 164 q 32 78 18 103 q 69 38 46 53 q 124 22 92 22 q 210 42 165 22 q 297 97 254 63 q 382 175 340 131 q 460 268 424 219 q 529 367 497 317 q 585 460 561 417 q 667 651 625 554 q 743 835 710 749 m 732 981 q 689 997 706 981 q 660 1032 672 1013 q 641 1056 649 1047 q 622 1064 633 1064 q 579 1045 596 1064 q 563 996 563 1026 q 558 986 563 990 q 546 982 553 982 q 530 991 532 982 q 528 1007 528 1000 q 553 1069 529 1040 q 622 1099 578 1099 q 663 1083 649 1099 q 688 1051 676 1067 q 706 1027 696 1038 q 732 1017 715 1017 q 760 1026 747 1017 q 781 1049 772 1036 q 795 1072 790 1061 q 800 1082 800 1082 q 817 1093 804 1093 q 828 1088 824 1093 q 833 1076 833 1083 q 832 1069 833 1072 q 824 1052 831 1067 q 806 1022 818 1038 q 775 993 793 1006 q 732 981 757 981 z "},"":{"ha":783,"x_min":-28,"x_max":803,"o":"m 126 -12 q 53 6 83 -12 q 6 53 24 24 q -20 119 -12 82 q -28 193 -28 156 q 10 386 -28 278 q 139 607 49 494 q 290 756 214 700 q 433 840 365 811 q 555 878 500 869 q 642 886 610 886 q 727 877 692 886 q 782 849 763 868 q 788 838 788 843 q 784 826 788 829 q 778 822 781 824 q 760 782 776 821 q 719 685 744 743 q 665 556 694 626 q 607 421 635 486 l 589 379 q 550 289 569 333 q 515 203 531 244 q 491 128 500 163 q 482 69 482 94 q 525 22 482 22 q 585 44 551 22 q 652 98 618 67 q 718 164 686 129 q 774 225 750 199 q 786 231 778 231 q 799 225 794 231 q 803 213 803 219 q 799 201 803 206 q 726 122 763 160 q 656 53 690 83 q 588 6 621 24 q 525 -12 554 -12 q 467 10 486 -12 q 449 68 449 33 q 465 158 449 106 q 506 272 481 210 q 423 170 468 221 q 328 78 378 119 q 228 13 279 38 q 126 -12 176 -12 m 743 835 q 705 847 731 842 q 642 851 679 851 q 561 843 613 851 q 445 808 510 835 q 308 727 381 781 q 165 585 236 674 q 42 375 79 476 q 6 194 6 274 q 12 133 6 164 q 32 78 18 103 q 69 38 46 53 q 124 22 92 22 q 210 42 165 22 q 297 97 254 63 q 382 175 340 131 q 460 268 424 219 q 529 367 497 317 q 585 460 561 417 q 667 651 625 554 q 743 835 710 749 m 554 1046 q 540 1013 554 1022 q 515 1003 525 1003 q 494 1013 500 1003 q 488 1035 488 1024 q 499 1065 488 1053 q 526 1076 511 1076 q 547 1067 540 1076 q 554 1046 554 1057 m 667 1044 q 653 1013 667 1022 q 629 1003 640 1003 q 607 1013 614 1003 q 600 1035 600 1024 q 613 1064 600 1051 q 640 1076 625 1076 q 659 1068 651 1076 q 667 1044 667 1060 z "},"":{"ha":783,"x_min":-28,"x_max":807,"o":"m 126 -12 q 53 6 83 -12 q 6 53 24 24 q -20 119 -12 82 q -28 193 -28 156 q 10 386 -28 278 q 139 607 49 494 q 290 756 214 700 q 433 840 365 811 q 555 878 500 869 q 642 886 610 886 q 727 877 692 886 q 782 849 763 868 q 788 838 788 843 q 784 826 788 829 q 778 822 781 824 q 760 782 776 821 q 719 685 744 743 q 665 556 694 626 q 607 421 635 486 l 589 379 q 550 289 569 333 q 515 203 531 244 q 491 128 500 163 q 482 69 482 94 q 525 22 482 22 q 585 44 551 22 q 652 98 618 67 q 718 164 686 129 q 774 225 750 199 q 786 231 778 231 q 799 225 794 231 q 803 213 803 219 q 799 201 803 206 q 726 122 763 160 q 656 53 690 83 q 588 6 621 24 q 525 -12 554 -12 q 467 10 486 -12 q 449 68 449 33 q 465 158 449 106 q 506 272 481 210 q 423 170 468 221 q 328 78 378 119 q 228 13 279 38 q 126 -12 176 -12 m 743 835 q 705 847 731 842 q 642 851 679 851 q 561 843 613 851 q 445 808 510 835 q 308 727 381 781 q 165 585 236 674 q 42 375 79 476 q 6 194 6 274 q 12 133 6 164 q 32 78 18 103 q 69 38 46 53 q 124 22 92 22 q 210 42 165 22 q 297 97 254 63 q 382 175 340 131 q 460 268 424 219 q 529 367 497 317 q 585 460 561 417 q 667 651 625 554 q 743 835 710 749 m 685 947 q 628 970 650 947 q 606 1025 606 993 q 617 1072 606 1050 q 645 1110 628 1093 q 685 1135 663 1126 q 728 1144 707 1144 q 785 1122 763 1144 q 807 1067 807 1099 q 796 1020 807 1042 q 767 982 785 999 q 728 956 750 965 q 685 947 706 947 m 728 1110 q 695 1103 711 1110 q 667 1084 679 1096 q 648 1057 656 1072 q 640 1026 640 1042 q 653 994 640 1006 q 685 982 667 982 q 717 989 701 982 q 745 1008 733 996 q 765 1035 757 1019 q 772 1065 772 1050 q 759 1098 772 1086 q 728 1110 746 1110 z "},"":{"ha":1135,"x_min":-28,"x_max":1154,"o":"m 117 -12 q 49 4 76 -12 q 4 47 21 21 q -20 108 -12 74 q -28 178 -28 142 q 13 375 -28 264 q 149 607 53 486 q 298 756 224 700 q 438 840 372 811 q 556 878 503 869 q 639 886 608 886 q 722 876 686 886 q 774 849 758 867 q 778 838 778 844 q 771 824 778 831 q 753 786 768 821 q 713 690 739 751 q 651 546 686 629 q 575 361 617 463 q 776 464 654 432 q 749 538 757 500 q 740 614 740 576 q 755 712 740 664 q 798 798 769 760 q 867 860 826 836 q 963 883 908 883 q 1012 877 986 883 q 1059 858 1038 871 q 1094 825 1081 844 q 1108 779 1108 806 q 1103 767 1108 771 q 1090 764 1097 764 q 1075 779 1075 764 q 1065 807 1075 794 q 1040 829 1056 819 q 1003 844 1024 839 q 963 849 983 849 q 881 826 915 849 q 822 769 846 804 q 787 693 799 735 q 775 613 775 651 q 784 538 775 575 q 813 472 793 501 q 881 481 851 481 q 912 478 894 481 q 945 469 929 475 q 972 451 961 463 q 982 424 982 440 q 975 403 982 411 q 958 389 968 394 q 936 381 947 383 q 915 379 925 379 q 849 394 879 379 q 797 433 819 410 q 637 366 706 411 q 535 258 568 321 l 513 199 q 510 182 510 190 q 510 165 510 174 q 526 90 510 122 q 572 37 543 58 q 637 4 600 15 q 714 -7 674 -7 q 806 5 758 -7 q 903 40 854 17 q 1008 110 956 67 q 1124 225 1061 154 q 1136 232 1131 232 q 1149 227 1143 232 q 1154 215 1154 222 q 1149 201 1154 207 q 1045 97 1101 149 q 918 10 989 44 q 711 -43 808 -43 q 562 -1 624 -43 q 482 113 500 40 q 462 53 471 81 q 444 1 453 25 q 428 -10 440 -10 q 410 7 410 -6 q 411 13 410 10 q 434 80 421 43 q 460 154 447 117 q 487 228 474 192 q 513 297 500 265 q 427 188 474 243 q 329 88 381 133 q 224 15 278 43 q 117 -12 169 -12 m 736 835 q 697 847 719 842 q 639 851 675 851 q 560 843 610 851 q 449 808 511 835 q 317 727 388 781 q 176 585 247 674 q 47 366 88 472 q 7 178 7 260 q 13 119 7 147 q 31 70 18 92 q 66 35 44 49 q 118 22 88 22 q 209 47 163 22 q 301 110 256 71 q 388 197 346 149 q 466 296 429 246 q 532 392 503 346 q 581 471 561 438 q 627 576 604 522 q 670 679 650 631 q 707 769 690 728 q 736 835 724 810 m 839 442 q 878 420 857 426 q 919 414 899 414 q 947 425 947 414 q 931 438 947 431 q 881 446 914 446 q 839 442 864 446 z "},"":{"ha":643,"x_min":-28,"x_max":663,"o":"m 18 -319 q -12 -317 4 -319 q -28 -299 -28 -314 q -23 -287 -28 -292 q -11 -282 -18 -282 q 4 -284 -3 -282 q 18 -286 11 -286 q 59 -281 36 -286 q 106 -264 82 -275 q 151 -237 129 -253 q 189 -199 174 -221 q 203 -161 203 -179 q 189 -136 203 -140 q 164 -132 175 -132 q 141 -134 153 -132 q 119 -139 129 -136 l 99 -146 q 93 -147 97 -147 q 80 -142 85 -147 q 75 -131 75 -137 q 79 -118 75 -125 l 167 -10 q 65 78 96 18 q 35 222 35 139 q 55 363 35 288 q 110 512 75 438 q 193 655 144 586 q 297 776 242 724 q 415 860 353 829 q 539 892 476 892 q 629 853 600 892 q 658 757 658 815 q 649 688 658 724 q 622 621 639 653 q 579 565 604 589 q 524 528 554 540 q 518 526 522 526 q 500 544 500 526 q 511 560 500 556 q 558 591 536 569 q 594 640 579 613 q 617 697 608 667 q 625 757 625 728 q 539 857 625 857 q 425 827 482 857 q 316 747 368 797 q 219 632 264 697 q 140 496 174 567 q 88 355 107 425 q 69 224 69 285 q 118 63 69 119 q 275 7 167 7 q 384 26 335 7 q 476 75 433 44 q 558 145 519 106 q 632 225 596 185 q 644 231 638 231 q 657 226 651 231 q 663 214 663 221 q 657 201 663 207 q 585 124 624 164 q 499 50 546 83 q 396 -6 451 17 q 275 -28 340 -28 q 203 -19 233 -28 l 139 -99 q 153 -97 146 -97 q 168 -97 161 -97 q 217 -115 196 -97 q 239 -160 239 -132 q 217 -219 239 -186 q 175 -263 200 -244 q 123 -294 150 -282 q 68 -313 96 -307 q 18 -319 40 -319 z "},"":{"ha":624,"x_min":-37,"x_max":643,"o":"m 199 -43 q 107 -28 150 -43 q 32 13 64 -14 q -19 78 0 40 q -37 165 -37 117 q -10 273 -37 224 q 61 360 18 322 q 158 424 104 397 q 261 464 211 450 q 225 547 236 504 q 214 635 214 590 q 228 730 214 685 q 269 809 242 775 q 338 863 297 843 q 433 883 379 883 q 489 876 460 883 q 542 856 518 869 q 582 824 567 843 q 597 779 597 804 q 581 763 597 763 q 563 779 564 763 q 547 809 560 796 q 516 831 535 822 q 475 844 497 840 q 433 849 453 849 q 350 830 385 849 q 292 781 315 811 q 259 713 269 751 q 249 635 249 674 q 261 547 249 589 q 297 472 274 506 q 369 481 339 481 q 401 478 383 481 q 434 469 418 475 q 460 451 450 463 q 471 424 471 440 q 464 402 471 411 q 447 388 457 393 q 424 381 436 383 q 403 379 413 379 q 337 394 367 379 q 285 433 307 410 q 188 400 239 424 q 95 342 138 376 q 25 262 53 307 q -3 165 -3 217 q 15 88 -3 121 q 61 35 32 56 q 127 3 90 14 q 201 -7 164 -7 q 323 13 265 -7 q 431 65 381 32 q 527 139 482 97 q 611 225 572 181 q 624 232 618 232 q 638 227 632 232 q 643 215 643 222 q 636 201 643 208 q 543 106 592 150 q 440 28 494 61 q 326 -24 386 -6 q 199 -43 265 -43 m 326 442 q 365 421 346 426 q 406 415 383 415 q 427 417 418 415 q 436 424 436 419 q 428 433 436 429 q 410 440 421 438 q 388 444 400 443 q 369 446 376 446 q 326 442 351 446 m 532 965 q 521 969 525 965 l 357 1097 q 350 1110 350 1104 q 356 1124 350 1119 q 368 1129 361 1129 q 379 1125 372 1129 l 542 997 q 550 983 550 990 q 544 969 550 974 q 532 965 538 965 z "},"":{"ha":624,"x_min":-37,"x_max":643,"o":"m 199 -43 q 107 -28 150 -43 q 32 13 64 -14 q -19 78 0 40 q -37 165 -37 117 q -10 273 -37 224 q 61 360 18 322 q 158 424 104 397 q 261 464 211 450 q 225 547 236 504 q 214 635 214 590 q 228 730 214 685 q 269 809 242 775 q 338 863 297 843 q 433 883 379 883 q 489 876 460 883 q 542 856 518 869 q 582 824 567 843 q 597 779 597 804 q 581 763 597 763 q 563 779 564 763 q 547 809 560 796 q 516 831 535 822 q 475 844 497 840 q 433 849 453 849 q 350 830 385 849 q 292 781 315 811 q 259 713 269 751 q 249 635 249 674 q 261 547 249 589 q 297 472 274 506 q 369 481 339 481 q 401 478 383 481 q 434 469 418 475 q 460 451 450 463 q 471 424 471 440 q 464 402 471 411 q 447 388 457 393 q 424 381 436 383 q 403 379 413 379 q 337 394 367 379 q 285 433 307 410 q 188 400 239 424 q 95 342 138 376 q 25 262 53 307 q -3 165 -3 217 q 15 88 -3 121 q 61 35 32 56 q 127 3 90 14 q 201 -7 164 -7 q 323 13 265 -7 q 431 65 381 32 q 527 139 482 97 q 611 225 572 181 q 624 232 618 232 q 638 227 632 232 q 643 215 643 222 q 636 201 643 208 q 543 106 592 150 q 440 28 494 61 q 326 -24 386 -6 q 199 -43 265 -43 m 326 442 q 365 421 346 426 q 406 415 383 415 q 427 417 418 415 q 436 424 436 419 q 428 433 436 429 q 410 440 421 438 q 388 444 400 443 q 369 446 376 446 q 326 442 351 446 m 432 961 q 419 966 424 961 q 415 978 415 971 q 421 992 415 988 l 585 1119 q 596 1122 589 1122 q 613 1107 613 1122 q 606 1092 613 1099 l 443 964 q 432 961 435 961 z "},"":{"ha":624,"x_min":-37,"x_max":643,"o":"m 199 -43 q 107 -28 150 -43 q 32 13 64 -14 q -19 78 0 40 q -37 165 -37 117 q -10 273 -37 224 q 61 360 18 322 q 158 424 104 397 q 261 464 211 450 q 225 547 236 504 q 214 635 214 590 q 228 730 214 685 q 269 809 242 775 q 338 863 297 843 q 433 883 379 883 q 489 876 460 883 q 542 856 518 869 q 582 824 567 843 q 597 779 597 804 q 581 763 597 763 q 563 779 564 763 q 547 809 560 796 q 516 831 535 822 q 475 844 497 840 q 433 849 453 849 q 350 830 385 849 q 292 781 315 811 q 259 713 269 751 q 249 635 249 674 q 261 547 249 589 q 297 472 274 506 q 369 481 339 481 q 401 478 383 481 q 434 469 418 475 q 460 451 450 463 q 471 424 471 440 q 464 402 471 411 q 447 388 457 393 q 424 381 436 383 q 403 379 413 379 q 337 394 367 379 q 285 433 307 410 q 188 400 239 424 q 95 342 138 376 q 25 262 53 307 q -3 165 -3 217 q 15 88 -3 121 q 61 35 32 56 q 127 3 90 14 q 201 -7 164 -7 q 323 13 265 -7 q 431 65 381 32 q 527 139 482 97 q 611 225 572 181 q 624 232 618 232 q 638 227 632 232 q 643 215 643 222 q 636 201 643 208 q 543 106 592 150 q 440 28 494 61 q 326 -24 386 -6 q 199 -43 265 -43 m 326 442 q 365 421 346 426 q 406 415 383 415 q 427 417 418 415 q 436 424 436 419 q 428 433 436 429 q 410 440 421 438 q 388 444 400 443 q 369 446 376 446 q 326 442 351 446 m 365 965 q 353 971 357 965 q 349 983 349 976 q 357 999 349 994 l 515 1113 q 525 1115 518 1115 q 539 1110 535 1115 l 636 996 q 640 983 640 989 q 635 971 640 975 q 624 967 631 967 q 610 972 615 967 l 522 1075 l 378 969 q 365 965 371 965 z "},"":{"ha":624,"x_min":-37,"x_max":643,"o":"m 199 -43 q 107 -28 150 -43 q 32 13 64 -14 q -19 78 0 40 q -37 165 -37 117 q -10 273 -37 224 q 61 360 18 322 q 158 424 104 397 q 261 464 211 450 q 225 547 236 504 q 214 635 214 590 q 228 730 214 685 q 269 809 242 775 q 338 863 297 843 q 433 883 379 883 q 489 876 460 883 q 542 856 518 869 q 582 824 567 843 q 597 779 597 804 q 581 763 597 763 q 563 779 564 763 q 547 809 560 796 q 516 831 535 822 q 475 844 497 840 q 433 849 453 849 q 350 830 385 849 q 292 781 315 811 q 259 713 269 751 q 249 635 249 674 q 261 547 249 589 q 297 472 274 506 q 369 481 339 481 q 401 478 383 481 q 434 469 418 475 q 460 451 450 463 q 471 424 471 440 q 464 402 471 411 q 447 388 457 393 q 424 381 436 383 q 403 379 413 379 q 337 394 367 379 q 285 433 307 410 q 188 400 239 424 q 95 342 138 376 q 25 262 53 307 q -3 165 -3 217 q 15 88 -3 121 q 61 35 32 56 q 127 3 90 14 q 201 -7 164 -7 q 323 13 265 -7 q 431 65 381 32 q 527 139 482 97 q 611 225 572 181 q 624 232 618 232 q 638 227 632 232 q 643 215 643 222 q 636 201 643 208 q 543 106 592 150 q 440 28 494 61 q 326 -24 386 -6 q 199 -43 265 -43 m 326 442 q 365 421 346 426 q 406 415 383 415 q 427 417 418 415 q 436 424 436 419 q 428 433 436 429 q 410 440 421 438 q 388 444 400 443 q 369 446 376 446 q 326 442 351 446 m 465 1042 q 451 1008 465 1018 q 426 999 436 999 q 405 1009 411 999 q 399 1031 399 1019 q 410 1060 399 1049 q 438 1072 422 1072 q 458 1063 451 1072 q 465 1042 465 1053 m 578 1040 q 565 1008 578 1018 q 540 999 551 999 q 518 1009 525 999 q 511 1031 511 1019 q 524 1060 511 1047 q 551 1072 536 1072 q 570 1064 563 1072 q 578 1040 578 1056 z "},"":{"ha":618,"x_min":-81,"x_max":681,"o":"m 81 -21 q 5 -5 38 -21 q -47 35 -28 11 q -81 121 -81 72 q -61 186 -81 154 q -47 194 -57 194 q -34 190 -39 194 q -29 178 -29 185 q -32 168 -29 174 q -46 121 -46 146 q -21 57 -46 86 q 20 26 -6 39 q 81 14 46 14 q 169 35 119 14 q 233 72 201 50 q 296 124 264 94 q 293 156 293 140 q 293 186 293 171 q 304 326 293 249 q 335 481 315 403 q 381 633 354 560 q 441 765 408 707 q 510 857 474 822 q 586 892 547 892 q 621 883 607 892 q 643 859 635 874 q 655 826 651 844 q 658 790 658 808 q 633 640 658 728 q 563 458 607 553 q 458 272 518 364 q 332 113 399 181 q 389 18 344 24 q 406 1 406 15 q 399 -13 406 -10 q 386 -17 393 -17 q 339 5 364 -17 q 301 83 314 26 q 243 37 272 57 q 183 3 214 17 q 130 -15 156 -10 q 81 -21 104 -21 m 589 857 q 526 825 557 857 q 465 740 494 793 q 411 617 436 686 q 367 474 386 549 q 338 324 349 399 q 328 186 328 250 l 328 157 q 444 315 390 226 q 538 492 499 403 q 601 660 578 581 q 624 792 624 740 q 617 835 624 813 q 589 857 611 857 m 663 960 q 651 964 656 960 l 488 1092 q 481 1104 481 1099 q 486 1119 481 1114 q 499 1124 492 1124 q 510 1119 503 1124 l 672 992 q 681 978 681 985 q 674 964 681 968 q 663 960 668 960 z "},"":{"ha":618,"x_min":-81,"x_max":710,"o":"m 81 -21 q 5 -5 38 -21 q -47 35 -28 11 q -81 121 -81 72 q -61 186 -81 154 q -47 194 -57 194 q -34 190 -39 194 q -29 178 -29 185 q -32 168 -29 174 q -46 121 -46 146 q -21 57 -46 86 q 20 26 -6 39 q 81 14 46 14 q 169 35 119 14 q 233 72 201 50 q 296 124 264 94 q 293 156 293 140 q 293 186 293 171 q 304 326 293 249 q 335 481 315 403 q 381 633 354 560 q 441 765 408 707 q 510 857 474 822 q 586 892 547 892 q 621 883 607 892 q 643 859 635 874 q 655 826 651 844 q 658 790 658 808 q 633 640 658 728 q 563 458 607 553 q 458 272 518 364 q 332 113 399 181 q 389 18 344 24 q 406 1 406 15 q 399 -13 406 -10 q 386 -17 393 -17 q 339 5 364 -17 q 301 83 314 26 q 243 37 272 57 q 183 3 214 17 q 130 -15 156 -10 q 81 -21 104 -21 m 589 857 q 526 825 557 857 q 465 740 494 793 q 411 617 436 686 q 367 474 386 549 q 338 324 349 399 q 328 186 328 250 l 328 157 q 444 315 390 226 q 538 492 499 403 q 601 660 578 581 q 624 792 624 740 q 617 835 624 813 q 589 857 611 857 m 529 963 q 517 967 521 963 q 513 979 513 972 q 518 993 513 989 l 682 1121 q 693 1124 686 1124 q 710 1108 710 1124 q 703 1093 710 1100 l 540 965 q 529 963 532 963 z "},"":{"ha":618,"x_min":-81,"x_max":753,"o":"m 81 -21 q 5 -5 38 -21 q -47 35 -28 11 q -81 121 -81 72 q -61 186 -81 154 q -47 194 -57 194 q -34 190 -39 194 q -29 178 -29 185 q -32 168 -29 174 q -46 121 -46 146 q -21 57 -46 86 q 20 26 -6 39 q 81 14 46 14 q 169 35 119 14 q 233 72 201 50 q 296 124 264 94 q 293 156 293 140 q 293 186 293 171 q 304 326 293 249 q 335 481 315 403 q 381 633 354 560 q 441 765 408 707 q 510 857 474 822 q 586 892 547 892 q 621 883 607 892 q 643 859 635 874 q 655 826 651 844 q 658 790 658 808 q 633 640 658 728 q 563 458 607 553 q 458 272 518 364 q 332 113 399 181 q 389 18 344 24 q 406 1 406 15 q 399 -13 406 -10 q 386 -17 393 -17 q 339 5 364 -17 q 301 83 314 26 q 243 37 272 57 q 183 3 214 17 q 130 -15 156 -10 q 81 -21 104 -21 m 589 857 q 526 825 557 857 q 465 740 494 793 q 411 617 436 686 q 367 474 386 549 q 338 324 349 399 q 328 186 328 250 l 328 157 q 444 315 390 226 q 538 492 499 403 q 601 660 578 581 q 624 792 624 740 q 617 835 624 813 q 589 857 611 857 m 478 968 q 465 974 469 968 q 461 986 461 979 q 469 1001 461 997 l 628 1115 q 638 1118 631 1118 q 651 1113 647 1118 l 749 999 q 753 986 753 992 q 748 974 753 978 q 736 969 743 969 q 722 975 728 969 l 635 1078 l 490 972 q 478 968 483 968 z "},"":{"ha":618,"x_min":-81,"x_max":703,"o":"m 81 -21 q 5 -5 38 -21 q -47 35 -28 11 q -81 121 -81 72 q -61 186 -81 154 q -47 194 -57 194 q -34 190 -39 194 q -29 178 -29 185 q -32 168 -29 174 q -46 121 -46 146 q -21 57 -46 86 q 20 26 -6 39 q 81 14 46 14 q 169 35 119 14 q 233 72 201 50 q 296 124 264 94 q 293 156 293 140 q 293 186 293 171 q 304 326 293 249 q 335 481 315 403 q 381 633 354 560 q 441 765 408 707 q 510 857 474 822 q 586 892 547 892 q 621 883 607 892 q 643 859 635 874 q 655 826 651 844 q 658 790 658 808 q 633 640 658 728 q 563 458 607 553 q 458 272 518 364 q 332 113 399 181 q 389 18 344 24 q 406 1 406 15 q 399 -13 406 -10 q 386 -17 393 -17 q 339 5 364 -17 q 301 83 314 26 q 243 37 272 57 q 183 3 214 17 q 130 -15 156 -10 q 81 -21 104 -21 m 589 857 q 526 825 557 857 q 465 740 494 793 q 411 617 436 686 q 367 474 386 549 q 338 324 349 399 q 328 186 328 250 l 328 157 q 444 315 390 226 q 538 492 499 403 q 601 660 578 581 q 624 792 624 740 q 617 835 624 813 q 589 857 611 857 m 590 1049 q 576 1015 590 1025 q 551 1006 561 1006 q 530 1016 536 1006 q 524 1038 524 1026 q 535 1067 524 1056 q 563 1079 547 1079 q 583 1069 576 1079 q 590 1049 590 1060 m 703 1047 q 690 1015 703 1025 q 665 1006 676 1006 q 643 1016 650 1006 q 636 1038 636 1026 q 649 1067 636 1054 q 676 1079 661 1079 q 695 1071 688 1079 q 703 1047 703 1063 z "},"":{"ha":872,"x_min":-60,"x_max":831,"o":"m 501 396 l 306 396 q 233 208 268 296 q 158 60 197 119 q 247 33 199 44 q 351 22 294 22 q 536 69 454 22 q 676 188 618 115 q 765 348 733 260 q 796 521 796 436 q 769 663 796 601 q 697 767 743 725 q 589 832 651 810 q 454 854 526 854 q 363 847 410 854 q 271 821 315 840 q 201 778 232 804 q 157 711 169 751 q 153 696 154 703 q 153 683 153 689 q 157 667 153 671 q 165 654 165 661 q 159 641 165 646 q 146 636 153 636 q 124 651 131 636 q 118 683 118 665 q 160 786 118 740 q 267 857 203 832 q 358 881 310 874 q 451 889 406 889 q 603 863 533 889 q 723 788 672 836 q 802 673 774 740 q 831 522 831 606 q 796 331 831 426 q 698 159 761 235 q 547 35 635 83 q 353 -12 458 -12 q 235 1 289 -12 q 138 29 182 14 q 73 -23 106 -10 q 19 -36 40 -36 q -38 -16 -17 -36 q -60 35 -60 4 q -38 83 -60 64 q 11 101 -17 101 q 63 92 33 101 q 125 71 92 82 q 196 212 161 125 q 267 396 231 299 l 114 396 q 96 414 96 396 q 114 431 96 431 l 279 431 q 326 552 303 492 q 375 665 350 613 q 426 759 400 718 q 479 824 451 800 q 492 829 488 829 q 505 824 501 829 q 508 811 508 818 q 503 799 508 803 q 455 739 478 778 q 409 651 432 700 q 364 546 386 603 q 319 431 342 489 l 501 431 q 518 414 518 431 q 501 396 518 396 m 11 67 q -15 57 -4 67 q -26 33 -26 47 q -11 6 -26 15 q 19 -3 4 -3 q 68 13 47 -3 q 103 42 89 29 q 51 60 75 53 q 11 67 28 67 z "},"":{"ha":754,"x_min":-21,"x_max":774,"o":"m 513 -12 q 457 10 472 -12 q 442 64 442 33 q 454 133 442 92 q 484 219 467 175 q 519 306 501 264 q 550 378 538 349 q 610 521 581 449 q 661 660 639 593 q 681 732 674 700 q 688 789 688 764 q 676 837 688 817 q 636 857 664 857 q 519 814 583 857 q 392 708 454 771 q 277 574 329 644 q 197 447 225 503 l 13 3 q -3 -8 8 -8 q -21 8 -21 -8 q -19 17 -21 13 q 69 232 24 119 q 160 451 115 344 q 215 585 189 524 q 259 694 240 647 q 289 772 278 742 q 300 813 300 803 q 279 845 300 839 q 240 851 258 851 q 193 844 221 851 q 140 826 165 838 q 96 800 114 815 q 78 768 78 785 q 72 758 78 761 q 61 754 67 754 q 47 760 51 754 q 43 774 43 767 q 65 819 43 799 q 119 855 88 840 q 183 878 150 869 q 236 886 215 886 q 284 879 263 886 q 318 857 306 872 q 331 839 325 850 q 336 811 336 828 q 328 771 336 793 q 304 709 321 750 q 267 615 288 668 q 342 704 299 656 q 434 794 385 753 q 535 864 483 836 q 638 892 588 892 q 703 859 685 892 q 722 789 722 826 q 693 649 722 732 q 641 508 669 581 q 582 364 613 436 q 545 278 564 322 q 511 193 526 233 q 486 118 496 153 q 476 61 476 83 q 513 22 476 22 q 567 49 533 22 q 637 111 601 76 q 702 179 672 146 q 743 225 732 213 q 756 231 749 231 q 769 226 764 231 q 774 214 774 221 q 768 201 774 207 q 717 144 749 181 q 648 74 685 108 q 575 13 611 39 q 513 -12 539 -12 m 565 981 q 522 997 539 981 q 493 1032 506 1013 q 474 1056 482 1047 q 456 1064 467 1064 q 413 1045 429 1064 q 396 996 396 1026 q 391 986 396 990 q 379 982 386 982 q 363 991 365 982 q 361 1007 361 1000 q 387 1069 363 1040 q 456 1099 411 1099 q 496 1083 482 1099 q 521 1051 510 1067 q 539 1027 529 1038 q 565 1017 549 1017 q 593 1026 581 1017 q 615 1049 606 1036 q 628 1072 624 1061 q 633 1082 633 1082 q 650 1093 638 1093 q 662 1088 657 1093 q 667 1076 667 1083 q 665 1069 667 1072 q 658 1052 664 1067 q 639 1022 651 1038 q 608 993 626 1006 q 565 981 590 981 z "},"":{"ha":749,"x_min":33,"x_max":829,"o":"m 235 -19 q 142 8 181 -19 q 79 76 103 35 q 44 166 56 117 q 33 260 33 215 q 49 398 33 325 q 94 542 65 471 q 167 679 124 614 q 263 794 210 744 q 381 873 317 843 q 517 903 444 903 q 551 899 531 903 q 571 881 571 896 q 565 866 571 869 q 553 863 558 863 q 539 865 549 863 q 510 868 529 868 q 385 838 443 868 q 277 760 326 808 q 189 648 228 711 q 123 517 150 585 q 81 383 96 450 q 67 261 67 317 q 76 177 67 221 q 105 97 85 133 q 157 38 125 61 q 235 15 189 15 q 313 31 274 15 q 390 76 353 47 q 463 142 428 104 q 529 225 499 181 q 613 375 578 296 q 667 525 647 454 q 632 521 650 521 q 572 536 599 521 q 526 575 544 551 q 499 628 508 599 q 489 688 489 658 q 498 744 489 713 q 523 801 507 775 q 562 846 539 828 q 614 864 585 864 q 666 848 644 864 q 700 807 688 832 q 718 752 713 782 q 724 693 724 722 q 722 640 724 668 q 714 582 719 611 q 770 628 746 603 q 794 689 794 653 q 799 701 794 696 q 811 706 804 706 q 826 699 822 706 q 829 683 829 692 q 819 644 829 665 q 792 604 810 624 q 753 567 775 585 q 706 539 731 550 q 649 370 686 458 q 560 203 613 282 q 490 115 528 156 q 411 44 453 74 q 325 -3 369 14 q 235 -19 281 -19 m 618 829 q 578 814 596 829 q 549 777 561 799 q 530 731 536 756 q 524 689 524 707 q 531 641 524 665 q 553 598 539 617 q 586 567 567 579 q 631 556 606 556 q 653 558 642 556 q 675 564 664 561 q 690 689 690 632 q 687 731 690 707 q 675 776 683 754 q 653 814 667 799 q 618 829 639 829 m 628 974 q 617 978 621 974 l 453 1106 q 446 1118 446 1113 q 451 1133 446 1128 q 464 1138 457 1138 q 475 1133 468 1138 l 638 1006 q 646 992 646 999 q 640 978 646 982 q 628 974 633 974 z "},"":{"ha":749,"x_min":33,"x_max":829,"o":"m 235 -19 q 142 8 181 -19 q 79 76 103 35 q 44 166 56 117 q 33 260 33 215 q 49 398 33 325 q 94 542 65 471 q 167 679 124 614 q 263 794 210 744 q 381 873 317 843 q 517 903 444 903 q 551 899 531 903 q 571 881 571 896 q 565 866 571 869 q 553 863 558 863 q 539 865 549 863 q 510 868 529 868 q 385 838 443 868 q 277 760 326 808 q 189 648 228 711 q 123 517 150 585 q 81 383 96 450 q 67 261 67 317 q 76 177 67 221 q 105 97 85 133 q 157 38 125 61 q 235 15 189 15 q 313 31 274 15 q 390 76 353 47 q 463 142 428 104 q 529 225 499 181 q 613 375 578 296 q 667 525 647 454 q 632 521 650 521 q 572 536 599 521 q 526 575 544 551 q 499 628 508 599 q 489 688 489 658 q 498 744 489 713 q 523 801 507 775 q 562 846 539 828 q 614 864 585 864 q 666 848 644 864 q 700 807 688 832 q 718 752 713 782 q 724 693 724 722 q 722 640 724 668 q 714 582 719 611 q 770 628 746 603 q 794 689 794 653 q 799 701 794 696 q 811 706 804 706 q 826 699 822 706 q 829 683 829 692 q 819 644 829 665 q 792 604 810 624 q 753 567 775 585 q 706 539 731 550 q 649 370 686 458 q 560 203 613 282 q 490 115 528 156 q 411 44 453 74 q 325 -3 369 14 q 235 -19 281 -19 m 618 829 q 578 814 596 829 q 549 777 561 799 q 530 731 536 756 q 524 689 524 707 q 531 641 524 665 q 553 598 539 617 q 586 567 567 579 q 631 556 606 556 q 653 558 642 556 q 675 564 664 561 q 690 689 690 632 q 687 731 690 707 q 675 776 683 754 q 653 814 667 799 q 618 829 639 829 m 486 964 q 474 969 478 964 q 469 981 469 974 q 475 994 469 990 l 639 1122 q 650 1125 643 1125 q 667 1110 667 1125 q 660 1094 667 1101 l 497 967 q 486 964 489 964 z "},"":{"ha":749,"x_min":33,"x_max":829,"o":"m 235 -19 q 142 8 181 -19 q 79 76 103 35 q 44 166 56 117 q 33 260 33 215 q 49 398 33 325 q 94 542 65 471 q 167 679 124 614 q 263 794 210 744 q 381 873 317 843 q 517 903 444 903 q 551 899 531 903 q 571 881 571 896 q 565 866 571 869 q 553 863 558 863 q 539 865 549 863 q 510 868 529 868 q 385 838 443 868 q 277 760 326 808 q 189 648 228 711 q 123 517 150 585 q 81 383 96 450 q 67 261 67 317 q 76 177 67 221 q 105 97 85 133 q 157 38 125 61 q 235 15 189 15 q 313 31 274 15 q 390 76 353 47 q 463 142 428 104 q 529 225 499 181 q 613 375 578 296 q 667 525 647 454 q 632 521 650 521 q 572 536 599 521 q 526 575 544 551 q 499 628 508 599 q 489 688 489 658 q 498 744 489 713 q 523 801 507 775 q 562 846 539 828 q 614 864 585 864 q 666 848 644 864 q 700 807 688 832 q 718 752 713 782 q 724 693 724 722 q 722 640 724 668 q 714 582 719 611 q 770 628 746 603 q 794 689 794 653 q 799 701 794 696 q 811 706 804 706 q 826 699 822 706 q 829 683 829 692 q 819 644 829 665 q 792 604 810 624 q 753 567 775 585 q 706 539 731 550 q 649 370 686 458 q 560 203 613 282 q 490 115 528 156 q 411 44 453 74 q 325 -3 369 14 q 235 -19 281 -19 m 618 829 q 578 814 596 829 q 549 777 561 799 q 530 731 536 756 q 524 689 524 707 q 531 641 524 665 q 553 598 539 617 q 586 567 567 579 q 631 556 606 556 q 653 558 642 556 q 675 564 664 561 q 690 689 690 632 q 687 731 690 707 q 675 776 683 754 q 653 814 667 799 q 618 829 639 829 m 425 971 q 413 976 417 971 q 408 989 408 982 q 417 1004 408 1000 l 575 1118 q 585 1121 578 1121 q 599 1115 594 1121 l 696 1001 q 700 989 700 994 q 695 976 700 981 q 683 972 690 972 q 669 978 675 972 l 582 1081 l 438 975 q 425 971 431 971 z "},"":{"ha":749,"x_min":33,"x_max":829,"o":"m 235 -19 q 142 8 181 -19 q 79 76 103 35 q 44 166 56 117 q 33 260 33 215 q 49 398 33 325 q 94 542 65 471 q 167 679 124 614 q 263 794 210 744 q 381 873 317 843 q 517 903 444 903 q 551 899 531 903 q 571 881 571 896 q 565 866 571 869 q 553 863 558 863 q 539 865 549 863 q 510 868 529 868 q 385 838 443 868 q 277 760 326 808 q 189 648 228 711 q 123 517 150 585 q 81 383 96 450 q 67 261 67 317 q 76 177 67 221 q 105 97 85 133 q 157 38 125 61 q 235 15 189 15 q 313 31 274 15 q 390 76 353 47 q 463 142 428 104 q 529 225 499 181 q 613 375 578 296 q 667 525 647 454 q 632 521 650 521 q 572 536 599 521 q 526 575 544 551 q 499 628 508 599 q 489 688 489 658 q 498 744 489 713 q 523 801 507 775 q 562 846 539 828 q 614 864 585 864 q 666 848 644 864 q 700 807 688 832 q 718 752 713 782 q 724 693 724 722 q 722 640 724 668 q 714 582 719 611 q 770 628 746 603 q 794 689 794 653 q 799 701 794 696 q 811 706 804 706 q 826 699 822 706 q 829 683 829 692 q 819 644 829 665 q 792 604 810 624 q 753 567 775 585 q 706 539 731 550 q 649 370 686 458 q 560 203 613 282 q 490 115 528 156 q 411 44 453 74 q 325 -3 369 14 q 235 -19 281 -19 m 618 829 q 578 814 596 829 q 549 777 561 799 q 530 731 536 756 q 524 689 524 707 q 531 641 524 665 q 553 598 539 617 q 586 567 567 579 q 631 556 606 556 q 653 558 642 556 q 675 564 664 561 q 690 689 690 632 q 687 731 690 707 q 675 776 683 754 q 653 814 667 799 q 618 829 639 829 m 617 985 q 574 1001 590 985 q 544 1036 557 1017 q 526 1060 533 1051 q 507 1068 518 1068 q 464 1049 481 1068 q 447 1000 447 1031 q 442 990 447 994 q 431 986 438 986 q 415 995 417 986 q 413 1011 413 1004 q 438 1074 414 1044 q 507 1103 463 1103 q 547 1087 533 1103 q 572 1056 561 1071 q 590 1031 581 1042 q 617 1021 600 1021 q 644 1031 632 1021 q 666 1053 657 1040 q 680 1076 675 1065 q 685 1086 685 1086 q 701 1097 689 1097 q 713 1092 708 1097 q 718 1081 718 1088 q 717 1074 718 1076 q 709 1056 715 1071 q 690 1026 703 1042 q 660 997 678 1010 q 617 985 642 985 z "},"":{"ha":749,"x_min":33,"x_max":829,"o":"m 235 -19 q 142 8 181 -19 q 79 76 103 35 q 44 166 56 117 q 33 260 33 215 q 49 398 33 325 q 94 542 65 471 q 167 679 124 614 q 263 794 210 744 q 381 873 317 843 q 517 903 444 903 q 551 899 531 903 q 571 881 571 896 q 565 866 571 869 q 553 863 558 863 q 539 865 549 863 q 510 868 529 868 q 385 838 443 868 q 277 760 326 808 q 189 648 228 711 q 123 517 150 585 q 81 383 96 450 q 67 261 67 317 q 76 177 67 221 q 105 97 85 133 q 157 38 125 61 q 235 15 189 15 q 313 31 274 15 q 390 76 353 47 q 463 142 428 104 q 529 225 499 181 q 613 375 578 296 q 667 525 647 454 q 632 521 650 521 q 572 536 599 521 q 526 575 544 551 q 499 628 508 599 q 489 688 489 658 q 498 744 489 713 q 523 801 507 775 q 562 846 539 828 q 614 864 585 864 q 666 848 644 864 q 700 807 688 832 q 718 752 713 782 q 724 693 724 722 q 722 640 724 668 q 714 582 719 611 q 770 628 746 603 q 794 689 794 653 q 799 701 794 696 q 811 706 804 706 q 826 699 822 706 q 829 683 829 692 q 819 644 829 665 q 792 604 810 624 q 753 567 775 585 q 706 539 731 550 q 649 370 686 458 q 560 203 613 282 q 490 115 528 156 q 411 44 453 74 q 325 -3 369 14 q 235 -19 281 -19 m 618 829 q 578 814 596 829 q 549 777 561 799 q 530 731 536 756 q 524 689 524 707 q 531 641 524 665 q 553 598 539 617 q 586 567 567 579 q 631 556 606 556 q 653 558 642 556 q 675 564 664 561 q 690 689 690 632 q 687 731 690 707 q 675 776 683 754 q 653 814 667 799 q 618 829 639 829 m 492 1042 q 477 1008 492 1018 q 453 999 463 999 q 431 1009 438 999 q 425 1031 425 1019 q 437 1060 425 1049 q 464 1072 449 1072 q 485 1063 478 1072 q 492 1042 492 1053 m 604 1040 q 591 1008 604 1018 q 567 999 578 999 q 544 1009 551 999 q 538 1031 538 1019 q 550 1060 538 1047 q 578 1072 563 1072 q 597 1064 589 1072 q 604 1040 604 1056 z "},"":{"ha":472,"x_min":11,"x_max":447,"o":"m 29 217 q 16 223 21 217 q 11 236 11 229 q 18 249 11 244 l 199 394 l 96 565 q 94 574 94 568 q 99 586 94 581 q 111 592 104 592 q 126 583 119 592 l 226 417 l 419 574 q 431 578 424 578 q 443 573 439 578 q 447 561 447 568 q 440 546 447 550 l 244 386 l 347 217 q 350 208 350 211 q 344 196 350 201 q 332 190 339 190 q 317 199 321 190 l 217 364 l 40 221 q 29 217 36 217 z "},"":{"ha":813,"x_min":35,"x_max":892,"o":"m 51 -19 q 39 -15 43 -19 q 35 -3 35 -10 q 39 10 35 6 l 124 107 q 96 257 96 174 q 111 392 96 321 q 158 539 126 464 q 266 727 207 656 q 383 838 325 799 q 493 890 442 876 q 579 903 544 903 q 613 899 594 903 q 632 881 632 896 q 614 864 632 864 q 598 866 603 864 q 576 868 593 868 q 499 856 546 868 q 398 807 451 843 q 290 703 344 771 q 190 525 236 635 q 144 381 158 447 q 131 261 131 315 q 150 136 131 188 l 568 613 q 556 651 560 632 q 553 689 553 669 q 562 748 553 717 q 588 805 571 779 q 628 847 604 831 q 681 864 651 864 q 722 852 704 864 q 753 825 740 840 l 815 896 q 829 903 822 903 q 842 897 838 903 q 846 885 846 892 q 842 874 846 878 l 771 792 q 784 737 781 764 q 788 682 788 710 q 785 633 788 658 q 778 582 782 608 q 835 633 814 604 q 857 686 857 661 q 875 706 857 706 q 889 697 886 706 q 892 682 892 689 q 882 644 892 664 q 856 603 872 624 q 816 567 839 583 q 768 538 793 550 q 716 377 750 460 q 633 220 682 294 q 521 88 583 146 q 383 -1 458 29 q 299 -19 342 -19 q 207 5 246 -19 q 140 72 168 29 l 65 -14 q 51 -19 60 -19 m 165 101 q 214 43 179 71 q 297 15 249 15 q 369 31 331 15 q 494 110 436 57 q 597 231 551 163 q 676 375 643 299 q 729 525 710 451 q 696 521 713 521 q 585 581 628 521 l 165 101 m 739 564 q 749 626 746 596 q 753 683 753 656 q 744 761 753 725 l 610 608 q 650 567 628 578 q 694 556 672 556 q 717 558 706 556 q 739 564 728 561 m 682 829 q 644 815 661 829 q 614 778 626 800 q 594 732 601 757 q 588 686 588 707 q 589 665 588 675 q 593 643 590 654 l 729 797 q 709 819 721 810 q 682 829 697 829 z "},"":{"ha":754,"x_min":-21,"x_max":774,"o":"m 90 -14 q 24 15 42 -14 q 7 81 7 43 q 20 174 7 121 q 56 288 33 226 q 105 415 78 349 q 161 547 132 481 q 190 613 172 574 q 223 692 207 653 q 250 766 239 732 q 261 817 261 800 q 253 834 261 828 q 235 844 246 840 q 215 848 225 847 q 197 849 204 849 q 147 842 178 849 q 87 825 117 836 q 35 798 57 814 q 14 763 14 782 q 8 751 14 756 q -4 746 3 746 q -16 751 -11 746 q -21 763 -21 756 q 4 816 -21 793 q 64 854 29 839 q 135 876 99 869 q 196 883 172 883 q 231 880 213 883 q 263 869 249 876 q 287 848 278 861 q 296 817 296 835 q 283 756 296 794 q 254 676 271 718 q 220 596 238 635 q 193 535 203 557 q 140 409 167 474 q 91 284 113 344 q 56 171 69 224 q 42 82 42 118 q 50 38 42 54 q 89 21 58 21 q 183 56 131 21 q 288 143 235 90 q 389 260 340 196 q 474 381 438 324 q 549 505 508 439 q 626 634 589 571 q 692 751 663 697 q 733 840 721 806 q 749 851 736 851 q 767 833 767 851 q 765 828 767 831 q 764 825 764 826 q 743 779 749 793 q 736 764 739 771 q 693 669 718 725 q 640 547 668 613 q 583 413 611 482 q 533 281 556 344 q 496 165 510 217 q 482 81 482 113 q 489 42 482 61 q 515 24 496 24 q 567 47 536 24 q 630 103 597 71 q 693 169 663 135 q 743 225 724 204 q 757 231 749 231 q 769 225 764 231 q 774 214 774 219 q 768 201 774 207 q 621 47 682 106 q 514 -11 560 -11 q 482 -2 494 -11 q 463 20 469 7 q 452 49 456 33 q 449 81 449 65 q 480 239 449 143 q 564 461 511 335 l 504 363 q 460 297 488 335 q 400 217 433 258 q 328 133 367 175 q 249 59 289 92 q 168 6 208 26 q 90 -14 128 -14 m 543 963 q 532 967 536 963 l 368 1094 q 361 1107 361 1101 q 367 1122 361 1117 q 379 1126 372 1126 q 390 1122 383 1126 l 553 994 q 561 981 561 988 q 555 967 561 971 q 543 963 549 963 z "},"":{"ha":754,"x_min":-21,"x_max":774,"o":"m 90 -14 q 24 15 42 -14 q 7 81 7 43 q 20 174 7 121 q 56 288 33 226 q 105 415 78 349 q 161 547 132 481 q 190 613 172 574 q 223 692 207 653 q 250 766 239 732 q 261 817 261 800 q 253 834 261 828 q 235 844 246 840 q 215 848 225 847 q 197 849 204 849 q 147 842 178 849 q 87 825 117 836 q 35 798 57 814 q 14 763 14 782 q 8 751 14 756 q -4 746 3 746 q -16 751 -11 746 q -21 763 -21 756 q 4 816 -21 793 q 64 854 29 839 q 135 876 99 869 q 196 883 172 883 q 231 880 213 883 q 263 869 249 876 q 287 848 278 861 q 296 817 296 835 q 283 756 296 794 q 254 676 271 718 q 220 596 238 635 q 193 535 203 557 q 140 409 167 474 q 91 284 113 344 q 56 171 69 224 q 42 82 42 118 q 50 38 42 54 q 89 21 58 21 q 183 56 131 21 q 288 143 235 90 q 389 260 340 196 q 474 381 438 324 q 549 505 508 439 q 626 634 589 571 q 692 751 663 697 q 733 840 721 806 q 749 851 736 851 q 767 833 767 851 q 765 828 767 831 q 764 825 764 826 q 743 779 749 793 q 736 764 739 771 q 693 669 718 725 q 640 547 668 613 q 583 413 611 482 q 533 281 556 344 q 496 165 510 217 q 482 81 482 113 q 489 42 482 61 q 515 24 496 24 q 567 47 536 24 q 630 103 597 71 q 693 169 663 135 q 743 225 724 204 q 757 231 749 231 q 769 225 764 231 q 774 214 774 219 q 768 201 774 207 q 621 47 682 106 q 514 -11 560 -11 q 482 -2 494 -11 q 463 20 469 7 q 452 49 456 33 q 449 81 449 65 q 480 239 449 143 q 564 461 511 335 l 504 363 q 460 297 488 335 q 400 217 433 258 q 328 133 367 175 q 249 59 289 92 q 168 6 208 26 q 90 -14 128 -14 m 450 960 q 438 965 442 960 q 433 976 433 969 q 439 990 433 986 l 603 1118 q 614 1121 607 1121 q 631 1106 631 1121 q 624 1090 631 1097 l 461 963 q 450 960 453 960 z "},"":{"ha":754,"x_min":-21,"x_max":774,"o":"m 90 -14 q 24 15 42 -14 q 7 81 7 43 q 20 174 7 121 q 56 288 33 226 q 105 415 78 349 q 161 547 132 481 q 190 613 172 574 q 223 692 207 653 q 250 766 239 732 q 261 817 261 800 q 253 834 261 828 q 235 844 246 840 q 215 848 225 847 q 197 849 204 849 q 147 842 178 849 q 87 825 117 836 q 35 798 57 814 q 14 763 14 782 q 8 751 14 756 q -4 746 3 746 q -16 751 -11 746 q -21 763 -21 756 q 4 816 -21 793 q 64 854 29 839 q 135 876 99 869 q 196 883 172 883 q 231 880 213 883 q 263 869 249 876 q 287 848 278 861 q 296 817 296 835 q 283 756 296 794 q 254 676 271 718 q 220 596 238 635 q 193 535 203 557 q 140 409 167 474 q 91 284 113 344 q 56 171 69 224 q 42 82 42 118 q 50 38 42 54 q 89 21 58 21 q 183 56 131 21 q 288 143 235 90 q 389 260 340 196 q 474 381 438 324 q 549 505 508 439 q 626 634 589 571 q 692 751 663 697 q 733 840 721 806 q 749 851 736 851 q 767 833 767 851 q 765 828 767 831 q 764 825 764 826 q 743 779 749 793 q 736 764 739 771 q 693 669 718 725 q 640 547 668 613 q 583 413 611 482 q 533 281 556 344 q 496 165 510 217 q 482 81 482 113 q 489 42 482 61 q 515 24 496 24 q 567 47 536 24 q 630 103 597 71 q 693 169 663 135 q 743 225 724 204 q 757 231 749 231 q 769 225 764 231 q 774 214 774 219 q 768 201 774 207 q 621 47 682 106 q 514 -11 560 -11 q 482 -2 494 -11 q 463 20 469 7 q 452 49 456 33 q 449 81 449 65 q 480 239 449 143 q 564 461 511 335 l 504 363 q 460 297 488 335 q 400 217 433 258 q 328 133 367 175 q 249 59 289 92 q 168 6 208 26 q 90 -14 128 -14 m 363 967 q 350 972 354 967 q 346 985 346 978 q 354 1000 346 996 l 513 1114 q 522 1117 515 1117 q 536 1111 532 1117 l 633 997 q 638 985 638 990 q 633 972 638 976 q 621 968 628 968 q 607 974 613 968 l 519 1076 l 375 971 q 363 967 368 967 z "},"":{"ha":754,"x_min":-21,"x_max":774,"o":"m 90 -14 q 24 15 42 -14 q 7 81 7 43 q 20 174 7 121 q 56 288 33 226 q 105 415 78 349 q 161 547 132 481 q 190 613 172 574 q 223 692 207 653 q 250 766 239 732 q 261 817 261 800 q 253 834 261 828 q 235 844 246 840 q 215 848 225 847 q 197 849 204 849 q 147 842 178 849 q 87 825 117 836 q 35 798 57 814 q 14 763 14 782 q 8 751 14 756 q -4 746 3 746 q -16 751 -11 746 q -21 763 -21 756 q 4 816 -21 793 q 64 854 29 839 q 135 876 99 869 q 196 883 172 883 q 231 880 213 883 q 263 869 249 876 q 287 848 278 861 q 296 817 296 835 q 283 756 296 794 q 254 676 271 718 q 220 596 238 635 q 193 535 203 557 q 140 409 167 474 q 91 284 113 344 q 56 171 69 224 q 42 82 42 118 q 50 38 42 54 q 89 21 58 21 q 183 56 131 21 q 288 143 235 90 q 389 260 340 196 q 474 381 438 324 q 549 505 508 439 q 626 634 589 571 q 692 751 663 697 q 733 840 721 806 q 749 851 736 851 q 767 833 767 851 q 765 828 767 831 q 764 825 764 826 q 743 779 749 793 q 736 764 739 771 q 693 669 718 725 q 640 547 668 613 q 583 413 611 482 q 533 281 556 344 q 496 165 510 217 q 482 81 482 113 q 489 42 482 61 q 515 24 496 24 q 567 47 536 24 q 630 103 597 71 q 693 169 663 135 q 743 225 724 204 q 757 231 749 231 q 769 225 764 231 q 774 214 774 219 q 768 201 774 207 q 621 47 682 106 q 514 -11 560 -11 q 482 -2 494 -11 q 463 20 469 7 q 452 49 456 33 q 449 81 449 65 q 480 239 449 143 q 564 461 511 335 l 504 363 q 460 297 488 335 q 400 217 433 258 q 328 133 367 175 q 249 59 289 92 q 168 6 208 26 q 90 -14 128 -14 m 478 1042 q 463 1008 478 1018 q 439 999 449 999 q 417 1009 424 999 q 411 1031 411 1019 q 423 1060 411 1049 q 450 1072 435 1072 q 471 1063 464 1072 q 478 1042 478 1053 m 590 1040 q 577 1008 590 1018 q 553 999 564 999 q 531 1009 538 999 q 524 1031 524 1019 q 536 1060 524 1047 q 564 1072 549 1072 q 583 1064 575 1072 q 590 1040 590 1056 z "},"":{"ha":782,"x_min":-21,"x_max":826,"o":"m 149 -12 q 83 15 103 -12 q 63 78 63 42 q 68 126 63 100 q 85 188 74 153 q 113 267 96 222 q 156 371 131 313 q 209 500 181 429 q 263 635 238 571 q 304 749 288 700 q 321 814 321 799 q 314 833 321 826 q 298 844 307 840 q 278 849 289 849 q 258 850 267 850 q 211 844 242 850 q 149 826 181 838 q 95 799 118 815 q 72 764 72 783 q 56 746 72 746 q 38 764 38 746 q 63 815 38 793 q 124 853 89 838 q 197 877 160 869 q 257 885 235 885 q 324 869 293 885 q 356 817 356 854 q 339 746 356 797 q 297 628 322 694 q 242 490 272 563 q 188 357 213 418 q 156 281 172 319 q 128 205 140 242 q 107 135 115 168 q 99 76 99 103 q 109 36 99 50 q 149 22 119 22 q 219 44 181 22 q 301 103 258 65 q 387 190 343 140 q 472 294 431 239 q 503 338 488 317 q 533 382 518 360 q 616 513 575 446 q 692 642 657 581 q 753 755 726 703 q 792 842 779 807 q 810 853 796 853 q 822 848 818 853 q 826 836 826 843 q 824 826 826 832 q 811 797 818 813 q 797 767 804 782 l 775 715 q 737 626 760 679 q 687 509 714 572 q 630 378 660 446 q 571 244 600 310 q 506 104 538 169 q 450 -8 475 39 q 542 42 497 17 q 629 96 586 67 q 697 151 663 119 q 771 225 732 182 q 785 232 775 232 q 801 215 801 232 q 796 201 801 207 q 647 67 728 125 q 532 -6 594 28 q 419 -68 469 -39 l 408 -89 q 364 -175 386 -133 q 315 -256 342 -217 q 256 -331 289 -294 q 179 -401 224 -367 q 131 -428 156 -421 q 83 -436 107 -436 q 11 -410 43 -436 q -21 -344 -21 -385 q 13 -264 -21 -306 q 116 -184 51 -219 q 256 -112 181 -149 q 325 -79 290 -96 q 393 -43 360 -62 q 465 99 428 24 q 536 250 501 175 q 588 367 563 308 q 639 482 614 425 q 584 397 606 431 q 547 339 563 363 q 519 299 531 315 q 496 268 508 283 q 422 176 464 225 q 333 85 379 126 q 240 15 288 43 q 149 -12 192 -12 m 365 -97 q 331 -114 347 -106 q 299 -129 315 -121 q 271 -143 283 -137 q 136 -211 199 -176 q 40 -286 74 -246 q 14 -347 14 -317 q 35 -386 14 -371 q 83 -401 56 -401 q 158 -374 122 -401 q 227 -311 197 -343 q 281 -244 257 -279 q 326 -173 306 -210 q 365 -97 346 -136 m 506 964 q 493 969 497 964 q 489 981 489 974 q 494 994 489 990 l 658 1122 q 669 1125 663 1125 q 686 1110 686 1125 q 679 1094 686 1101 l 517 967 q 506 964 508 964 z "},"":{"ha":639,"x_min":-18,"x_max":642,"o":"m 258 182 q 220 185 242 182 q 180 194 199 188 q 149 214 161 201 q 136 246 136 226 q 153 264 136 264 q 171 246 171 264 q 183 232 171 238 q 210 223 194 226 q 239 218 225 219 q 258 217 253 217 q 326 224 289 217 q 399 250 363 232 q 469 297 435 268 q 533 365 504 325 q 588 476 571 418 q 606 585 606 535 q 601 629 606 607 q 588 670 597 651 q 563 701 579 689 q 522 713 547 713 q 452 691 489 713 q 378 633 415 669 q 305 549 342 597 q 233 448 268 501 q 168 338 199 394 q 111 229 138 282 q 53 92 79 153 q 15 -3 28 31 q -1 -14 11 -14 q -18 1 -18 -14 q -17 10 -18 7 q 28 117 -1 47 q 93 274 57 186 q 163 442 126 356 q 231 603 200 528 q 252 656 239 625 q 278 716 265 686 q 299 772 290 746 q 307 810 307 797 q 285 841 307 833 q 244 849 263 849 q 192 842 224 849 q 117 809 150 831 q 83 767 83 788 q 68 753 83 753 q 54 760 58 753 q 50 775 50 767 q 63 807 50 792 q 97 836 76 822 q 140 860 117 850 q 183 875 163 869 q 246 883 217 883 q 315 865 286 883 q 343 807 343 846 q 335 770 343 794 q 316 717 328 746 q 290 655 304 688 q 264 592 276 622 l 228 506 q 299 601 263 557 q 372 677 335 644 q 448 728 410 710 q 522 747 486 747 q 578 732 556 747 q 615 692 601 717 q 635 640 629 668 q 642 585 642 611 q 621 463 642 526 q 563 346 600 399 q 492 270 531 301 q 413 219 453 239 q 333 191 372 200 q 258 182 293 182 z "},"":{"ha":421,"x_min":-249,"x_max":438,"o":"m -232 -383 q -244 -378 -239 -383 q -249 -367 -249 -374 q -247 -360 -249 -362 q -223 -296 -244 -351 q -167 -156 -201 -240 q -91 33 -133 -72 q -4 249 -49 139 q 79 449 38 350 q 156 628 121 547 q 219 767 192 710 q 261 843 247 824 q 349 892 296 892 q 408 860 389 892 q 428 796 428 829 q 374 643 428 732 q 226 417 319 554 q 205 369 211 393 q 199 317 199 344 q 210 215 199 264 q 222 115 222 165 q 211 54 222 83 q 320 135 268 88 q 408 225 372 183 q 421 231 413 231 q 433 225 428 231 q 438 213 438 219 q 433 201 438 206 q 356 120 397 160 q 269 49 314 81 q 179 -1 225 18 q 88 -21 133 -21 q -19 14 32 -21 q -26 26 -26 17 q -22 40 -26 33 q -10 46 -17 46 q 0 43 -6 46 q 42 23 21 31 q 86 15 64 15 q 163 43 139 15 q 188 115 188 71 q 176 217 188 168 q 164 315 164 265 q 171 378 164 347 q 197 436 178 408 q 341 652 289 567 q 393 794 393 738 q 382 838 393 818 q 347 857 371 857 q 289 824 314 857 q 249 750 276 806 q 188 615 222 694 q 113 438 153 535 q 31 239 72 340 q -59 17 -15 126 q -137 -178 -103 -92 q -193 -317 -172 -264 q -215 -372 -214 -371 q -232 -383 -219 -383 z "},"":{"ha":511,"x_min":-50,"x_max":532,"o":"m 278 -10 q 224 15 242 -10 q 207 71 207 40 q 208 85 207 78 q 210 100 208 92 q 174 60 193 81 q 135 25 156 40 q 90 0 114 10 q 40 -10 67 -10 q -27 20 -4 -10 q -50 94 -50 50 q -19 211 -50 151 q 60 319 11 271 q 169 399 108 368 q 293 431 231 431 q 347 424 328 431 q 369 417 367 418 q 382 403 382 411 q 379 393 382 399 q 369 372 378 390 q 347 324 361 353 q 314 259 333 294 q 271 186 294 224 q 250 123 258 153 q 242 71 242 93 q 251 38 242 51 q 278 25 260 25 q 328 51 296 25 q 394 110 360 76 q 459 178 429 144 q 501 225 489 211 q 510 231 507 231 q 515 232 513 232 q 527 226 522 232 q 532 214 532 221 q 526 201 532 207 q 375 44 432 97 q 278 -10 318 -10 m 292 396 q 180 366 235 396 q 81 291 125 336 q 11 193 38 246 q -15 93 -15 140 q -2 45 -15 65 q 39 25 11 25 q 97 43 68 25 q 153 88 126 61 q 202 145 181 115 q 239 200 224 175 q 291 310 263 258 q 336 390 319 363 q 317 394 328 393 q 292 396 306 396 m 338 506 q 326 510 331 506 l 163 638 q 156 650 156 644 q 161 665 156 660 q 174 669 167 669 q 185 665 178 669 l 347 538 q 356 524 356 531 q 349 510 356 514 q 338 506 343 506 z "},"":{"ha":511,"x_min":-50,"x_max":532,"o":"m 278 -10 q 224 15 242 -10 q 207 71 207 40 q 208 85 207 78 q 210 100 208 92 q 174 60 193 81 q 135 25 156 40 q 90 0 114 10 q 40 -10 67 -10 q -27 20 -4 -10 q -50 94 -50 50 q -19 211 -50 151 q 60 319 11 271 q 169 399 108 368 q 293 431 231 431 q 347 424 328 431 q 369 417 367 418 q 382 403 382 411 q 379 393 382 399 q 369 372 378 390 q 347 324 361 353 q 314 259 333 294 q 271 186 294 224 q 250 123 258 153 q 242 71 242 93 q 251 38 242 51 q 278 25 260 25 q 328 51 296 25 q 394 110 360 76 q 459 178 429 144 q 501 225 489 211 q 510 231 507 231 q 515 232 513 232 q 527 226 522 232 q 532 214 532 221 q 526 201 532 207 q 375 44 432 97 q 278 -10 318 -10 m 292 396 q 180 366 235 396 q 81 291 125 336 q 11 193 38 246 q -15 93 -15 140 q -2 45 -15 65 q 39 25 11 25 q 97 43 68 25 q 153 88 126 61 q 202 145 181 115 q 239 200 224 175 q 291 310 263 258 q 336 390 319 363 q 317 394 328 393 q 292 396 306 396 m 194 500 q 182 505 186 500 q 178 517 178 510 q 183 531 178 526 l 347 658 q 358 661 351 661 q 375 646 375 661 q 368 631 375 638 l 206 503 q 194 500 197 500 z "},"":{"ha":511,"x_min":-50,"x_max":532,"o":"m 278 -10 q 224 15 242 -10 q 207 71 207 40 q 208 85 207 78 q 210 100 208 92 q 174 60 193 81 q 135 25 156 40 q 90 0 114 10 q 40 -10 67 -10 q -27 20 -4 -10 q -50 94 -50 50 q -19 211 -50 151 q 60 319 11 271 q 169 399 108 368 q 293 431 231 431 q 347 424 328 431 q 369 417 367 418 q 382 403 382 411 q 379 393 382 399 q 369 372 378 390 q 347 324 361 353 q 314 259 333 294 q 271 186 294 224 q 250 123 258 153 q 242 71 242 93 q 251 38 242 51 q 278 25 260 25 q 328 51 296 25 q 394 110 360 76 q 459 178 429 144 q 501 225 489 211 q 510 231 507 231 q 515 232 513 232 q 527 226 522 232 q 532 214 532 221 q 526 201 532 207 q 375 44 432 97 q 278 -10 318 -10 m 292 396 q 180 366 235 396 q 81 291 125 336 q 11 193 38 246 q -15 93 -15 140 q -2 45 -15 65 q 39 25 11 25 q 97 43 68 25 q 153 88 126 61 q 202 145 181 115 q 239 200 224 175 q 291 310 263 258 q 336 390 319 363 q 317 394 328 393 q 292 396 306 396 m 150 511 q 138 517 142 511 q 133 529 133 522 q 142 544 133 540 l 300 658 q 310 661 303 661 q 324 656 319 661 l 421 542 q 425 529 425 535 q 420 517 425 521 q 408 513 415 513 q 394 518 400 513 l 307 621 l 163 515 q 150 511 156 511 z "},"":{"ha":511,"x_min":-50,"x_max":532,"o":"m 278 -10 q 224 15 242 -10 q 207 71 207 40 q 208 85 207 78 q 210 100 208 92 q 174 60 193 81 q 135 25 156 40 q 90 0 114 10 q 40 -10 67 -10 q -27 20 -4 -10 q -50 94 -50 50 q -19 211 -50 151 q 60 319 11 271 q 169 399 108 368 q 293 431 231 431 q 347 424 328 431 q 369 417 367 418 q 382 403 382 411 q 379 393 382 399 q 369 372 378 390 q 347 324 361 353 q 314 259 333 294 q 271 186 294 224 q 250 123 258 153 q 242 71 242 93 q 251 38 242 51 q 278 25 260 25 q 328 51 296 25 q 394 110 360 76 q 459 178 429 144 q 501 225 489 211 q 510 231 507 231 q 515 232 513 232 q 527 226 522 232 q 532 214 532 221 q 526 201 532 207 q 375 44 432 97 q 278 -10 318 -10 m 292 396 q 180 366 235 396 q 81 291 125 336 q 11 193 38 246 q -15 93 -15 140 q -2 45 -15 65 q 39 25 11 25 q 97 43 68 25 q 153 88 126 61 q 202 145 181 115 q 239 200 224 175 q 291 310 263 258 q 336 390 319 363 q 317 394 328 393 q 292 396 306 396 m 340 526 q 297 542 314 526 q 268 578 281 558 q 249 601 257 593 q 231 610 242 610 q 188 591 204 610 q 171 542 171 572 q 166 532 171 536 q 154 528 161 528 q 138 537 140 528 q 136 553 136 546 q 162 615 138 586 q 231 644 186 644 q 271 628 257 644 q 296 597 285 613 q 314 573 304 583 q 340 563 324 563 q 368 572 356 563 q 390 594 381 582 q 403 617 399 607 q 408 628 408 628 q 425 639 413 639 q 437 634 432 639 q 442 622 442 629 q 440 615 442 618 q 433 598 439 613 q 414 567 426 583 q 383 539 401 551 q 340 526 365 526 z "},"":{"ha":511,"x_min":-50,"x_max":532,"o":"m 278 -10 q 224 15 242 -10 q 207 71 207 40 q 208 85 207 78 q 210 100 208 92 q 174 60 193 81 q 135 25 156 40 q 90 0 114 10 q 40 -10 67 -10 q -27 20 -4 -10 q -50 94 -50 50 q -19 211 -50 151 q 60 319 11 271 q 169 399 108 368 q 293 431 231 431 q 347 424 328 431 q 369 417 367 418 q 382 403 382 411 q 379 393 382 399 q 369 372 378 390 q 347 324 361 353 q 314 259 333 294 q 271 186 294 224 q 250 123 258 153 q 242 71 242 93 q 251 38 242 51 q 278 25 260 25 q 328 51 296 25 q 394 110 360 76 q 459 178 429 144 q 501 225 489 211 q 510 231 507 231 q 515 232 513 232 q 527 226 522 232 q 532 214 532 221 q 526 201 532 207 q 375 44 432 97 q 278 -10 318 -10 m 292 396 q 180 366 235 396 q 81 291 125 336 q 11 193 38 246 q -15 93 -15 140 q -2 45 -15 65 q 39 25 11 25 q 97 43 68 25 q 153 88 126 61 q 202 145 181 115 q 239 200 224 175 q 291 310 263 258 q 336 390 319 363 q 317 394 328 393 q 292 396 306 396 m 265 597 q 251 564 265 574 q 226 554 236 554 q 205 565 211 554 q 199 586 199 575 q 210 616 199 604 q 238 628 222 628 q 258 618 251 628 q 265 597 265 608 m 378 596 q 365 564 378 574 q 340 554 351 554 q 318 565 325 554 q 311 586 311 575 q 324 615 311 603 q 351 628 336 628 q 370 619 363 628 q 378 596 378 611 z "},"":{"ha":511,"x_min":-50,"x_max":532,"o":"m 278 -10 q 224 15 242 -10 q 207 71 207 40 q 208 85 207 78 q 210 100 208 92 q 174 60 193 81 q 135 25 156 40 q 90 0 114 10 q 40 -10 67 -10 q -27 20 -4 -10 q -50 94 -50 50 q -19 211 -50 151 q 60 319 11 271 q 169 399 108 368 q 293 431 231 431 q 347 424 328 431 q 369 417 367 418 q 382 403 382 411 q 379 393 382 399 q 369 372 378 390 q 347 324 361 353 q 314 259 333 294 q 271 186 294 224 q 250 123 258 153 q 242 71 242 93 q 251 38 242 51 q 278 25 260 25 q 328 51 296 25 q 394 110 360 76 q 459 178 429 144 q 501 225 489 211 q 510 231 507 231 q 515 232 513 232 q 527 226 522 232 q 532 214 532 221 q 526 201 532 207 q 375 44 432 97 q 278 -10 318 -10 m 292 396 q 180 366 235 396 q 81 291 125 336 q 11 193 38 246 q -15 93 -15 140 q -2 45 -15 65 q 39 25 11 25 q 97 43 68 25 q 153 88 126 61 q 202 145 181 115 q 239 200 224 175 q 291 310 263 258 q 336 390 319 363 q 317 394 328 393 q 292 396 306 396 m 313 489 q 256 512 278 489 q 233 567 233 535 q 244 613 233 592 q 273 651 256 635 q 313 677 290 668 q 356 686 335 686 q 413 663 390 686 q 435 608 435 640 q 424 562 435 583 q 395 524 413 540 q 356 498 378 507 q 313 489 333 489 m 356 651 q 323 644 339 651 q 295 626 307 638 q 276 599 283 614 q 268 568 268 583 q 281 535 268 547 q 313 524 294 524 q 345 531 329 524 q 373 549 361 538 q 392 576 385 561 q 400 607 400 592 q 387 640 400 628 q 356 651 374 651 z "},"":{"ha":738,"x_min":-18,"x_max":758,"o":"m 435 -8 q 335 28 368 -8 q 303 122 303 65 q 265 78 286 100 q 222 38 244 56 q 173 10 199 21 q 118 -1 147 -1 q 54 24 79 -1 q 29 85 29 49 q 45 139 29 111 q 97 190 61 167 q 160 210 121 206 q 238 215 199 215 q 284 214 263 215 q 319 211 306 213 l 344 269 q 351 315 351 297 q 332 372 351 351 q 278 392 313 392 q 163 347 225 392 q 13 201 100 301 q -1 196 7 196 q -14 201 -10 196 q -18 213 -18 206 q -12 225 -18 219 q 55 299 19 263 q 128 363 90 335 q 204 409 165 392 q 282 426 243 426 q 355 399 326 426 q 386 322 383 372 q 469 394 422 363 q 568 425 515 425 q 614 406 596 425 q 632 360 632 386 q 618 310 632 336 q 585 263 607 286 q 528 222 563 240 q 449 190 494 203 q 346 175 404 178 q 338 117 338 146 q 364 49 338 71 q 435 26 390 26 q 728 225 557 26 q 742 231 733 231 q 753 225 749 231 q 758 213 758 219 q 753 201 758 207 q 435 -8 572 -8 m 238 181 q 167 176 201 181 q 115 161 133 172 q 76 124 88 143 q 64 86 64 104 q 81 47 64 61 q 121 33 99 33 q 175 49 149 33 q 225 86 201 64 q 267 133 249 108 q 299 178 286 158 q 270 180 286 179 q 238 181 254 181 m 567 390 q 506 374 538 390 q 445 333 474 358 q 394 276 417 308 q 358 211 371 244 q 513 253 457 218 q 588 325 568 288 q 597 360 597 343 q 588 383 597 375 q 567 390 579 390 z "},"":{"ha":374,"x_min":-158,"x_max":392,"o":"m -112 -310 q -142 -307 -126 -310 q -158 -289 -158 -304 q -153 -277 -158 -282 q -142 -272 -149 -272 q -126 -274 -133 -272 q -112 -276 -119 -276 q -72 -271 -94 -276 q -25 -254 -49 -265 q 21 -227 -1 -243 q 58 -189 43 -211 q 72 -151 72 -169 q 58 -126 72 -131 q 33 -122 44 -122 q 10 -124 22 -122 q -11 -129 -1 -126 l -32 -136 q -37 -137 -33 -137 q -51 -133 -46 -137 q -56 -121 -56 -128 q -51 -108 -56 -115 l 31 -7 q -20 33 -4 3 q -36 103 -36 63 q 1 242 -36 167 q 100 378 38 318 q 192 421 147 421 q 248 395 231 421 q 265 331 265 369 q 262 305 265 318 q 246 292 258 292 q 233 297 238 292 q 228 308 228 301 q 229 322 228 317 q 231 335 231 328 q 222 370 231 354 q 192 386 214 386 q 125 351 160 386 q 30 224 63 292 q -3 103 -3 156 q 65 24 -3 24 q 141 39 104 24 q 215 81 178 54 q 288 145 251 108 q 363 225 325 182 q 374 231 368 231 q 386 225 381 231 q 392 213 392 219 q 388 201 392 206 q 310 121 347 158 q 235 54 272 83 q 157 8 197 25 q 71 -11 117 -10 l 8 -89 q 23 -87 15 -87 q 38 -87 31 -87 q 87 -105 65 -87 q 108 -150 108 -122 q 86 -210 108 -176 q 44 -253 69 -235 q -8 -285 19 -272 q -62 -303 -35 -297 q -112 -310 -90 -310 z "},"":{"ha":375,"x_min":-39,"x_max":392,"o":"m 67 -11 q -15 24 10 -11 q -39 106 -39 60 q -20 204 -39 149 q 31 308 -1 260 q 106 390 64 357 q 193 424 147 424 q 244 407 225 424 q 264 361 264 390 q 201 262 264 313 q 8 183 138 211 q -4 103 -4 139 q 12 45 -4 67 q 64 24 28 24 q 191 71 113 24 q 363 225 269 118 q 376 231 367 231 q 388 224 385 231 q 392 213 392 218 q 388 201 392 206 q 216 44 300 100 q 67 -11 132 -11 m 193 389 q 140 372 165 389 q 92 328 114 354 q 51 274 69 303 q 24 222 33 244 q 117 254 78 236 q 181 292 156 272 q 217 329 206 311 q 229 363 229 347 q 216 383 229 378 q 193 389 203 389 m 274 504 q 263 508 267 504 l 99 636 q 92 649 92 643 q 97 663 92 658 q 110 668 103 668 q 121 664 114 668 l 283 536 q 292 522 292 529 q 285 508 292 513 q 274 504 279 504 z "},"":{"ha":375,"x_min":-39,"x_max":392,"o":"m 67 -11 q -15 24 10 -11 q -39 106 -39 60 q -20 204 -39 149 q 31 308 -1 260 q 106 390 64 357 q 193 424 147 424 q 244 407 225 424 q 264 361 264 390 q 201 262 264 313 q 8 183 138 211 q -4 103 -4 139 q 12 45 -4 67 q 64 24 28 24 q 191 71 113 24 q 363 225 269 118 q 376 231 367 231 q 388 224 385 231 q 392 213 392 218 q 388 201 392 206 q 216 44 300 100 q 67 -11 132 -11 m 193 389 q 140 372 165 389 q 92 328 114 354 q 51 274 69 303 q 24 222 33 244 q 117 254 78 236 q 181 292 156 272 q 217 329 206 311 q 229 363 229 347 q 216 383 229 378 q 193 389 203 389 m 133 503 q 121 508 125 503 q 117 519 117 513 q 122 533 117 529 l 286 661 q 297 664 290 664 q 314 649 314 664 q 307 633 314 640 l 144 506 q 133 503 136 503 z "},"":{"ha":375,"x_min":-39,"x_max":392,"o":"m 67 -11 q -15 24 10 -11 q -39 106 -39 60 q -20 204 -39 149 q 31 308 -1 260 q 106 390 64 357 q 193 424 147 424 q 244 407 225 424 q 264 361 264 390 q 201 262 264 313 q 8 183 138 211 q -4 103 -4 139 q 12 45 -4 67 q 64 24 28 24 q 191 71 113 24 q 363 225 269 118 q 376 231 367 231 q 388 224 385 231 q 392 213 392 218 q 388 201 392 206 q 216 44 300 100 q 67 -11 132 -11 m 193 389 q 140 372 165 389 q 92 328 114 354 q 51 274 69 303 q 24 222 33 244 q 117 254 78 236 q 181 292 156 272 q 217 329 206 311 q 229 363 229 347 q 216 383 229 378 q 193 389 203 389 m 63 510 q 50 515 54 510 q 46 528 46 521 q 54 543 46 539 l 213 657 q 222 660 215 660 q 236 654 232 660 l 333 540 q 338 528 338 533 q 333 515 338 519 q 321 511 328 511 q 307 517 313 511 l 219 619 l 75 514 q 63 510 68 510 z "},"":{"ha":375,"x_min":-39,"x_max":392,"o":"m 67 -11 q -15 24 10 -11 q -39 106 -39 60 q -20 204 -39 149 q 31 308 -1 260 q 106 390 64 357 q 193 424 147 424 q 244 407 225 424 q 264 361 264 390 q 201 262 264 313 q 8 183 138 211 q -4 103 -4 139 q 12 45 -4 67 q 64 24 28 24 q 191 71 113 24 q 363 225 269 118 q 376 231 367 231 q 388 224 385 231 q 392 213 392 218 q 388 201 392 206 q 216 44 300 100 q 67 -11 132 -11 m 193 389 q 140 372 165 389 q 92 328 114 354 q 51 274 69 303 q 24 222 33 244 q 117 254 78 236 q 181 292 156 272 q 217 329 206 311 q 229 363 229 347 q 216 383 229 378 q 193 389 203 389 m 201 589 q 187 556 201 565 q 163 546 172 546 q 141 556 147 546 q 135 578 135 567 q 147 608 135 596 q 174 619 158 619 q 194 610 188 619 q 201 589 201 600 m 314 588 q 301 556 314 565 q 276 546 288 546 q 254 556 261 546 q 247 578 247 567 q 260 607 247 594 q 288 619 272 619 q 306 611 299 619 q 314 588 314 603 z "},"":{"ha":279,"x_min":-15,"x_max":299,"o":"m 47 -11 q 9 8 19 -11 q -1 47 -1 26 q 6 99 -1 69 q 25 160 14 129 q 50 220 36 190 q 75 274 64 250 q 51 245 60 257 q 35 226 42 233 q 23 213 28 218 q 13 201 18 207 q 1 196 7 196 q -10 201 -6 196 q -15 214 -15 207 q -11 225 -15 221 q 11 253 -6 232 q 58 308 28 274 l 149 414 q 163 421 153 421 q 179 406 179 421 q 179 400 179 403 q 178 394 179 397 q 144 335 171 383 q 90 224 118 286 q 53 131 69 176 q 33 53 36 85 q 35 32 33 40 q 49 24 38 24 q 68 28 57 24 q 92 44 79 33 q 158 108 126 76 q 215 166 190 140 q 253 208 239 192 q 268 225 268 225 q 282 231 272 231 q 294 225 290 231 q 299 214 299 219 q 293 201 299 207 q 250 153 292 200 q 114 19 208 107 q 47 -11 82 -11 m 214 508 q 203 513 207 508 l 39 640 q 32 653 32 647 q 38 667 32 663 q 50 672 43 672 q 61 668 54 672 l 224 540 q 232 526 232 533 q 226 513 232 517 q 214 508 219 508 z "},"":{"ha":279,"x_min":-15,"x_max":367,"o":"m 47 -11 q 9 8 19 -11 q -1 47 -1 26 q 6 99 -1 69 q 25 160 14 129 q 50 220 36 190 q 75 274 64 250 q 51 245 60 257 q 35 226 42 233 q 23 213 28 218 q 13 201 18 207 q 1 196 7 196 q -10 201 -6 196 q -15 214 -15 207 q -11 225 -15 221 q 11 253 -6 232 q 58 308 28 274 l 149 414 q 163 421 153 421 q 179 406 179 421 q 179 400 179 403 q 178 394 179 397 q 144 335 171 383 q 90 224 118 286 q 53 131 69 176 q 33 53 36 85 q 35 32 33 40 q 49 24 38 24 q 68 28 57 24 q 92 44 79 33 q 158 108 126 76 q 215 166 190 140 q 253 208 239 192 q 268 225 268 225 q 282 231 272 231 q 294 225 290 231 q 299 214 299 219 q 293 201 299 207 q 250 153 292 200 q 114 19 208 107 q 47 -11 82 -11 m 186 503 q 174 508 178 503 q 169 519 169 513 q 175 533 169 529 l 339 661 q 350 664 343 664 q 367 649 367 664 q 360 633 367 640 l 197 506 q 186 503 189 503 z "},"":{"ha":279,"x_min":-15,"x_max":322,"o":"m 47 -11 q 9 8 19 -11 q -1 47 -1 26 q 6 99 -1 69 q 25 160 14 129 q 50 220 36 190 q 75 274 64 250 q 51 245 60 257 q 35 226 42 233 q 23 213 28 218 q 13 201 18 207 q 1 196 7 196 q -10 201 -6 196 q -15 214 -15 207 q -11 225 -15 221 q 11 253 -6 232 q 58 308 28 274 l 149 414 q 163 421 153 421 q 179 406 179 421 q 179 400 179 403 q 178 394 179 397 q 144 335 171 383 q 90 224 118 286 q 53 131 69 176 q 33 53 36 85 q 35 32 33 40 q 49 24 38 24 q 68 28 57 24 q 92 44 79 33 q 158 108 126 76 q 215 166 190 140 q 253 208 239 192 q 268 225 268 225 q 282 231 272 231 q 294 225 290 231 q 299 214 299 219 q 293 201 299 207 q 250 153 292 200 q 114 19 208 107 q 47 -11 82 -11 m 47 515 q 35 521 39 515 q 31 533 31 526 q 39 549 31 544 l 197 663 q 207 665 200 665 q 221 660 217 665 l 318 546 q 322 533 322 539 q 317 521 322 525 q 306 517 313 517 q 292 522 297 517 l 204 625 l 60 519 q 47 515 53 515 z "},"":{"ha":279,"x_min":-15,"x_max":299,"o":"m 47 -11 q 9 8 19 -11 q -1 47 -1 26 q 6 99 -1 69 q 25 160 14 129 q 50 220 36 190 q 75 274 64 250 q 51 245 60 257 q 35 226 42 233 q 23 213 28 218 q 13 201 18 207 q 1 196 7 196 q -10 201 -6 196 q -15 214 -15 207 q -11 225 -15 221 q 11 253 -6 232 q 58 308 28 274 l 149 414 q 163 421 153 421 q 179 406 179 421 q 179 400 179 403 q 178 394 179 397 q 144 335 171 383 q 90 224 118 286 q 53 131 69 176 q 33 53 36 85 q 35 32 33 40 q 49 24 38 24 q 68 28 57 24 q 92 44 79 33 q 158 108 126 76 q 215 166 190 140 q 253 208 239 192 q 268 225 268 225 q 282 231 272 231 q 294 225 290 231 q 299 214 299 219 q 293 201 299 207 q 250 153 292 200 q 114 19 208 107 q 47 -11 82 -11 m 186 592 q 172 558 186 568 q 147 549 157 549 q 126 559 132 549 q 119 581 119 569 q 131 610 119 599 q 158 622 143 622 q 179 613 172 622 q 186 592 186 603 m 299 590 q 285 558 299 568 q 261 549 272 549 q 239 559 246 549 q 232 581 232 569 q 244 610 232 597 q 272 622 257 622 q 291 614 283 622 q 299 590 299 606 z "},"":{"ha":428,"x_min":-53,"x_max":508,"o":"m 315 664 q 303 669 307 664 q 299 681 299 674 q 307 696 299 692 l 386 738 q 369 776 382 761 q 340 797 357 790 q 328 814 328 801 q 333 826 328 821 q 346 831 339 831 q 381 812 357 831 q 418 754 406 793 l 483 789 q 492 790 486 790 q 504 785 500 790 q 508 774 508 781 q 499 758 508 763 l 426 719 q 428 697 428 708 q 429 675 429 686 q 410 534 429 611 q 364 382 392 457 q 304 242 336 307 q 244 138 272 176 q 203 86 226 113 q 155 39 181 60 q 100 5 129 18 q 39 -8 71 -8 q -31 24 -10 -8 q -53 96 -53 57 q -37 173 -53 132 q 11 256 -21 214 q 93 342 53 310 q 170 393 133 375 q 238 417 207 411 q 292 422 269 422 q 319 420 310 422 q 331 418 329 418 q 339 413 338 414 q 378 551 363 483 q 394 675 394 619 q 394 688 394 682 q 393 701 394 694 l 324 665 q 315 664 321 664 m 292 388 q 245 383 272 388 q 185 361 218 378 q 114 315 151 344 q 39 235 76 285 q -5 158 8 194 q -18 94 -18 122 q -3 47 -18 67 q 39 26 11 26 q 89 40 64 26 q 138 72 114 53 q 181 115 161 92 q 215 157 201 138 q 272 254 243 194 q 329 385 301 314 q 311 386 324 385 q 292 388 299 388 z "},"":{"ha":668,"x_min":-18,"x_max":686,"o":"m 103 -3 q 85 15 85 -3 q 92 36 85 22 q 135 122 113 74 q 178 217 158 169 q 210 304 197 264 q 224 367 224 344 q 221 383 224 376 q 208 390 218 390 q 174 375 194 390 q 142 347 163 367 q 99 301 122 326 q 53 249 76 275 q 13 201 31 222 q 0 196 8 196 q -12 201 -7 196 q -18 213 -18 206 q -12 225 -18 219 q 28 273 6 246 q 75 326 51 300 q 119 372 99 351 q 153 403 140 393 q 208 425 183 425 q 247 406 233 425 q 260 365 260 386 q 249 309 260 346 q 226 244 238 272 q 344 372 283 321 q 469 422 406 422 q 511 409 494 422 q 528 372 528 396 q 521 328 528 353 q 505 278 514 303 q 485 231 496 253 q 468 194 475 208 q 449 154 458 175 q 431 113 439 133 q 417 76 422 93 q 413 46 413 58 q 429 28 413 28 q 474 46 447 28 q 531 92 500 64 q 594 156 561 121 q 657 225 626 190 q 669 231 663 231 q 686 213 686 231 q 682 201 686 206 q 617 131 651 168 q 550 64 583 94 q 485 13 517 33 q 428 -7 453 -7 q 390 9 401 -7 q 378 43 378 25 q 395 117 378 74 q 436 208 413 160 q 456 250 446 228 q 474 294 465 272 q 488 334 482 315 q 493 365 493 353 q 487 384 493 381 q 469 388 481 388 q 370 346 421 388 q 274 247 319 304 q 225 179 249 215 q 181 110 201 143 q 146 51 161 78 q 122 10 131 24 q 111 -1 117 1 q 103 -3 106 -3 m 475 519 q 432 535 449 519 q 403 571 415 551 q 384 594 392 586 q 365 603 376 603 q 322 584 339 603 q 306 535 306 565 q 301 525 306 529 q 289 521 296 521 q 273 530 275 521 q 271 546 271 539 q 297 608 272 579 q 365 638 321 638 q 406 622 392 638 q 431 590 419 606 q 449 566 439 576 q 475 556 458 556 q 503 565 490 556 q 524 588 515 575 q 538 610 533 600 q 543 621 543 621 q 560 632 547 632 q 572 627 567 632 q 576 615 576 622 q 575 608 576 611 q 567 591 574 606 q 549 560 561 576 q 518 532 536 544 q 475 519 500 519 z "},"":{"ha":443,"x_min":-36,"x_max":461,"o":"m 60 -8 q 17 2 35 -8 q -13 29 -1 13 q -31 67 -25 46 q -36 108 -36 88 q -25 184 -36 143 q 9 267 -14 225 q 65 347 32 308 q 143 415 99 386 q 151 418 149 418 q 164 413 158 418 q 169 401 169 408 q 161 386 169 392 q 92 326 122 361 q 42 253 63 290 q 10 177 21 215 q -1 108 -1 139 q 13 51 -1 76 q 60 26 28 26 q 136 53 101 26 q 196 106 171 79 q 146 228 146 143 q 153 288 146 253 q 177 353 161 322 q 216 407 193 385 q 268 429 239 429 q 299 419 286 429 q 317 393 311 408 q 326 361 324 378 q 329 331 329 344 q 306 217 329 271 q 250 118 282 163 q 271 115 264 115 q 432 225 336 115 q 446 231 438 231 q 458 225 454 231 q 461 213 461 219 q 457 201 461 206 q 367 117 414 153 q 269 81 321 81 q 226 89 249 81 q 150 21 192 50 q 60 -8 108 -8 m 268 394 q 233 376 249 394 q 205 332 217 358 q 187 277 193 306 q 181 228 181 249 q 187 179 181 208 q 217 133 193 150 q 272 227 250 178 q 294 329 294 276 q 294 347 294 336 q 290 369 293 358 q 282 387 288 379 q 268 394 276 394 m 310 508 q 299 513 303 508 l 135 640 q 128 653 128 647 q 133 667 128 663 q 146 672 139 672 q 157 668 150 672 l 319 540 q 328 526 328 533 q 322 513 328 517 q 310 508 315 508 z "},"":{"ha":443,"x_min":-36,"x_max":461,"o":"m 60 -8 q 17 2 35 -8 q -13 29 -1 13 q -31 67 -25 46 q -36 108 -36 88 q -25 184 -36 143 q 9 267 -14 225 q 65 347 32 308 q 143 415 99 386 q 151 418 149 418 q 164 413 158 418 q 169 401 169 408 q 161 386 169 392 q 92 326 122 361 q 42 253 63 290 q 10 177 21 215 q -1 108 -1 139 q 13 51 -1 76 q 60 26 28 26 q 136 53 101 26 q 196 106 171 79 q 146 228 146 143 q 153 288 146 253 q 177 353 161 322 q 216 407 193 385 q 268 429 239 429 q 299 419 286 429 q 317 393 311 408 q 326 361 324 378 q 329 331 329 344 q 306 217 329 271 q 250 118 282 163 q 271 115 264 115 q 432 225 336 115 q 446 231 438 231 q 458 225 454 231 q 461 213 461 219 q 457 201 461 206 q 367 117 414 153 q 269 81 321 81 q 226 89 249 81 q 150 21 192 50 q 60 -8 108 -8 m 268 394 q 233 376 249 394 q 205 332 217 358 q 187 277 193 306 q 181 228 181 249 q 187 179 181 208 q 217 133 193 150 q 272 227 250 178 q 294 329 294 276 q 294 347 294 336 q 290 369 293 358 q 282 387 288 379 q 268 394 276 394 m 200 500 q 188 505 192 500 q 183 517 183 510 q 189 531 183 526 l 353 658 q 364 661 357 661 q 381 646 381 661 q 374 631 381 638 l 211 503 q 200 500 203 500 z "},"":{"ha":443,"x_min":-36,"x_max":461,"o":"m 60 -8 q 17 2 35 -8 q -13 29 -1 13 q -31 67 -25 46 q -36 108 -36 88 q -25 184 -36 143 q 9 267 -14 225 q 65 347 32 308 q 143 415 99 386 q 151 418 149 418 q 164 413 158 418 q 169 401 169 408 q 161 386 169 392 q 92 326 122 361 q 42 253 63 290 q 10 177 21 215 q -1 108 -1 139 q 13 51 -1 76 q 60 26 28 26 q 136 53 101 26 q 196 106 171 79 q 146 228 146 143 q 153 288 146 253 q 177 353 161 322 q 216 407 193 385 q 268 429 239 429 q 299 419 286 429 q 317 393 311 408 q 326 361 324 378 q 329 331 329 344 q 306 217 329 271 q 250 118 282 163 q 271 115 264 115 q 432 225 336 115 q 446 231 438 231 q 458 225 454 231 q 461 213 461 219 q 457 201 461 206 q 367 117 414 153 q 269 81 321 81 q 226 89 249 81 q 150 21 192 50 q 60 -8 108 -8 m 268 394 q 233 376 249 394 q 205 332 217 358 q 187 277 193 306 q 181 228 181 249 q 187 179 181 208 q 217 133 193 150 q 272 227 250 178 q 294 329 294 276 q 294 347 294 336 q 290 369 293 358 q 282 387 288 379 q 268 394 276 394 m 108 514 q 96 519 100 514 q 92 532 92 525 q 100 547 92 543 l 258 661 q 268 664 261 664 q 282 658 278 664 l 379 544 q 383 532 383 538 q 378 519 383 524 q 367 515 374 515 q 353 521 358 515 l 265 624 l 121 518 q 108 514 114 514 z "},"":{"ha":443,"x_min":-36,"x_max":461,"o":"m 60 -8 q 17 2 35 -8 q -13 29 -1 13 q -31 67 -25 46 q -36 108 -36 88 q -25 184 -36 143 q 9 267 -14 225 q 65 347 32 308 q 143 415 99 386 q 151 418 149 418 q 164 413 158 418 q 169 401 169 408 q 161 386 169 392 q 92 326 122 361 q 42 253 63 290 q 10 177 21 215 q -1 108 -1 139 q 13 51 -1 76 q 60 26 28 26 q 136 53 101 26 q 196 106 171 79 q 146 228 146 143 q 153 288 146 253 q 177 353 161 322 q 216 407 193 385 q 268 429 239 429 q 299 419 286 429 q 317 393 311 408 q 326 361 324 378 q 329 331 329 344 q 306 217 329 271 q 250 118 282 163 q 271 115 264 115 q 432 225 336 115 q 446 231 438 231 q 458 225 454 231 q 461 213 461 219 q 457 201 461 206 q 367 117 414 153 q 269 81 321 81 q 226 89 249 81 q 150 21 192 50 q 60 -8 108 -8 m 268 394 q 233 376 249 394 q 205 332 217 358 q 187 277 193 306 q 181 228 181 249 q 187 179 181 208 q 217 133 193 150 q 272 227 250 178 q 294 329 294 276 q 294 347 294 336 q 290 369 293 358 q 282 387 288 379 q 268 394 276 394 m 311 529 q 268 545 285 529 q 239 581 251 561 q 220 604 228 596 q 201 613 213 613 q 158 594 175 613 q 142 544 142 575 q 137 535 142 539 q 125 531 132 531 q 109 540 111 531 q 107 556 107 549 q 133 618 108 589 q 201 647 157 647 q 242 631 228 647 q 267 600 256 615 q 285 576 275 586 q 311 565 294 565 q 339 575 326 565 q 360 597 351 585 q 374 620 369 610 q 379 631 379 631 q 396 642 383 642 q 408 637 403 642 q 413 625 413 632 q 411 618 413 621 q 403 601 410 615 q 385 570 397 586 q 354 542 372 554 q 311 529 336 529 z "},"":{"ha":443,"x_min":-36,"x_max":461,"o":"m 60 -8 q 17 2 35 -8 q -13 29 -1 13 q -31 67 -25 46 q -36 108 -36 88 q -25 184 -36 143 q 9 267 -14 225 q 65 347 32 308 q 143 415 99 386 q 151 418 149 418 q 164 413 158 418 q 169 401 169 408 q 161 386 169 392 q 92 326 122 361 q 42 253 63 290 q 10 177 21 215 q -1 108 -1 139 q 13 51 -1 76 q 60 26 28 26 q 136 53 101 26 q 196 106 171 79 q 146 228 146 143 q 153 288 146 253 q 177 353 161 322 q 216 407 193 385 q 268 429 239 429 q 299 419 286 429 q 317 393 311 408 q 326 361 324 378 q 329 331 329 344 q 306 217 329 271 q 250 118 282 163 q 271 115 264 115 q 432 225 336 115 q 446 231 438 231 q 458 225 454 231 q 461 213 461 219 q 457 201 461 206 q 367 117 414 153 q 269 81 321 81 q 226 89 249 81 q 150 21 192 50 q 60 -8 108 -8 m 268 394 q 233 376 249 394 q 205 332 217 358 q 187 277 193 306 q 181 228 181 249 q 187 179 181 208 q 217 133 193 150 q 272 227 250 178 q 294 329 294 276 q 294 347 294 336 q 290 369 293 358 q 282 387 288 379 q 268 394 276 394 m 244 585 q 230 551 244 561 q 206 542 215 542 q 184 552 190 542 q 178 574 178 563 q 190 603 178 592 q 217 615 201 615 q 238 606 231 615 q 244 585 244 596 m 357 583 q 344 551 357 561 q 319 542 331 542 q 297 552 304 542 q 290 574 290 563 q 303 603 290 590 q 331 615 315 615 q 349 607 342 615 q 357 583 357 599 z "},"":{"ha":538,"x_min":51,"x_max":474,"o":"m 457 347 l 69 347 q 51 365 51 347 q 69 382 51 382 l 457 382 q 474 365 474 382 q 457 347 474 347 m 258 201 q 250 181 258 189 q 229 172 242 172 q 210 181 218 172 q 201 201 201 189 q 210 222 201 213 q 229 231 218 231 q 250 222 242 231 q 258 201 258 213 m 314 514 q 306 494 314 503 q 285 486 297 486 q 265 494 274 486 q 257 514 257 503 q 265 535 257 526 q 285 543 274 543 q 306 535 297 543 q 314 514 314 526 z "},"":{"ha":439,"x_min":-89,"x_max":458,"o":"m -71 -17 q -83 -12 -78 -17 q -89 0 -89 -7 q -82 13 -89 6 l -32 58 q -39 106 -39 82 q -28 183 -39 142 q 6 267 -17 225 q 63 347 29 308 q 140 415 96 386 q 150 418 146 418 q 162 413 157 418 q 167 400 167 407 q 160 386 167 389 q 90 325 121 360 q 39 252 60 290 q 7 176 18 214 q -4 106 -4 138 q -3 86 -4 92 l 144 222 l 144 228 q 151 286 144 257 q 169 342 157 315 q 197 389 181 368 q 235 421 214 410 q 252 426 244 425 q 267 428 260 428 q 299 417 288 428 q 318 383 313 403 l 367 428 q 378 432 371 432 q 390 426 385 432 q 396 414 396 421 q 390 401 396 407 l 326 342 l 326 332 q 323 288 326 310 q 313 246 319 265 q 247 118 290 175 q 268 115 261 115 q 340 142 303 115 q 428 225 378 168 q 440 232 432 232 q 453 226 447 232 q 458 215 458 221 q 453 201 458 207 q 365 117 410 153 q 268 81 319 81 q 225 89 247 81 q 144 19 189 47 q 58 -10 99 -10 q 15 1 35 -10 q -17 28 -4 11 l -60 -12 q -71 -17 -64 -17 m 10 51 q 29 33 15 40 q 58 25 43 25 q 94 33 75 25 q 131 52 113 40 q 165 78 149 64 q 193 106 181 93 q 149 179 160 131 l 10 51 m 215 133 q 251 190 235 158 q 281 257 268 221 q 292 310 290 285 l 179 207 q 188 167 181 188 q 215 133 196 146 m 267 394 q 250 389 260 394 q 206 338 225 376 q 181 256 186 300 l 289 357 q 282 381 286 368 q 267 394 278 394 z "},"":{"ha":538,"x_min":-15,"x_max":557,"o":"m 304 -10 q 286 -6 293 -10 q 274 1 279 -3 q 261 17 267 7 q 256 47 256 28 q 261 84 256 63 q 274 130 267 106 q 292 178 282 154 q 310 222 301 203 q 261 156 286 189 q 208 93 236 122 q 131 24 169 51 q 56 -6 92 -4 q 23 2 33 -6 q 7 17 13 10 q -3 57 -3 32 q 13 138 -3 90 q 57 249 29 186 l 15 201 q 1 196 10 196 q -11 201 -7 196 q -15 213 -15 206 q -10 225 -15 219 q 42 285 21 260 q 77 331 63 311 q 101 366 92 350 q 119 397 111 382 q 127 411 124 404 q 143 418 131 418 q 154 412 150 418 q 158 399 158 406 q 154 386 158 394 l 90 238 q 49 133 67 182 q 32 56 32 85 q 54 29 32 29 q 116 54 82 29 q 186 119 150 79 q 247 192 217 153 q 303 270 276 231 q 351 347 329 310 q 388 410 372 383 q 403 421 393 421 q 417 415 414 421 q 421 406 421 410 q 415 389 421 400 q 392 328 404 360 q 367 265 381 297 q 342 208 356 240 q 317 145 329 176 q 298 87 306 114 q 290 46 290 60 q 306 25 290 25 q 350 47 322 25 q 410 101 378 69 q 473 167 442 132 q 526 225 504 201 q 539 231 532 231 q 551 226 546 231 q 557 214 557 221 q 551 201 557 207 q 500 145 531 181 q 435 75 469 110 q 367 15 401 40 q 304 -10 332 -10 m 356 507 q 344 511 349 507 l 181 639 q 174 651 174 646 q 179 666 174 661 q 192 671 185 671 q 203 667 196 671 l 365 539 q 374 525 374 532 q 367 511 374 515 q 356 507 361 507 z "},"":{"ha":538,"x_min":-15,"x_max":557,"o":"m 304 -10 q 286 -6 293 -10 q 274 1 279 -3 q 261 17 267 7 q 256 47 256 28 q 261 84 256 63 q 274 130 267 106 q 292 178 282 154 q 310 222 301 203 q 261 156 286 189 q 208 93 236 122 q 131 24 169 51 q 56 -6 92 -4 q 23 2 33 -6 q 7 17 13 10 q -3 57 -3 32 q 13 138 -3 90 q 57 249 29 186 l 15 201 q 1 196 10 196 q -11 201 -7 196 q -15 213 -15 206 q -10 225 -15 219 q 42 285 21 260 q 77 331 63 311 q 101 366 92 350 q 119 397 111 382 q 127 411 124 404 q 143 418 131 418 q 154 412 150 418 q 158 399 158 406 q 154 386 158 394 l 90 238 q 49 133 67 182 q 32 56 32 85 q 54 29 32 29 q 116 54 82 29 q 186 119 150 79 q 247 192 217 153 q 303 270 276 231 q 351 347 329 310 q 388 410 372 383 q 403 421 393 421 q 417 415 414 421 q 421 406 421 410 q 415 389 421 400 q 392 328 404 360 q 367 265 381 297 q 342 208 356 240 q 317 145 329 176 q 298 87 306 114 q 290 46 290 60 q 306 25 290 25 q 350 47 322 25 q 410 101 378 69 q 473 167 442 132 q 526 225 504 201 q 539 231 532 231 q 551 226 546 231 q 557 214 557 221 q 551 201 557 207 q 500 145 531 181 q 435 75 469 110 q 367 15 401 40 q 304 -10 332 -10 m 229 506 q 217 510 221 506 q 213 522 213 515 q 218 536 213 532 l 382 664 q 393 667 386 667 q 410 651 410 667 q 403 636 410 643 l 240 508 q 229 506 232 506 z "},"":{"ha":538,"x_min":-15,"x_max":557,"o":"m 304 -10 q 286 -6 293 -10 q 274 1 279 -3 q 261 17 267 7 q 256 47 256 28 q 261 84 256 63 q 274 130 267 106 q 292 178 282 154 q 310 222 301 203 q 261 156 286 189 q 208 93 236 122 q 131 24 169 51 q 56 -6 92 -4 q 23 2 33 -6 q 7 17 13 10 q -3 57 -3 32 q 13 138 -3 90 q 57 249 29 186 l 15 201 q 1 196 10 196 q -11 201 -7 196 q -15 213 -15 206 q -10 225 -15 219 q 42 285 21 260 q 77 331 63 311 q 101 366 92 350 q 119 397 111 382 q 127 411 124 404 q 143 418 131 418 q 154 412 150 418 q 158 399 158 406 q 154 386 158 394 l 90 238 q 49 133 67 182 q 32 56 32 85 q 54 29 32 29 q 116 54 82 29 q 186 119 150 79 q 247 192 217 153 q 303 270 276 231 q 351 347 329 310 q 388 410 372 383 q 403 421 393 421 q 417 415 414 421 q 421 406 421 410 q 415 389 421 400 q 392 328 404 360 q 367 265 381 297 q 342 208 356 240 q 317 145 329 176 q 298 87 306 114 q 290 46 290 60 q 306 25 290 25 q 350 47 322 25 q 410 101 378 69 q 473 167 442 132 q 526 225 504 201 q 539 231 532 231 q 551 226 546 231 q 557 214 557 221 q 551 201 557 207 q 500 145 531 181 q 435 75 469 110 q 367 15 401 40 q 304 -10 332 -10 m 153 514 q 140 519 144 514 q 136 532 136 525 q 144 547 136 543 l 303 661 q 313 664 306 664 q 326 658 322 664 l 424 544 q 428 532 428 538 q 423 519 428 524 q 411 515 418 515 q 397 521 403 515 l 310 624 l 165 518 q 153 514 158 514 z "},"":{"ha":538,"x_min":-15,"x_max":557,"o":"m 304 -10 q 286 -6 293 -10 q 274 1 279 -3 q 261 17 267 7 q 256 47 256 28 q 261 84 256 63 q 274 130 267 106 q 292 178 282 154 q 310 222 301 203 q 261 156 286 189 q 208 93 236 122 q 131 24 169 51 q 56 -6 92 -4 q 23 2 33 -6 q 7 17 13 10 q -3 57 -3 32 q 13 138 -3 90 q 57 249 29 186 l 15 201 q 1 196 10 196 q -11 201 -7 196 q -15 213 -15 206 q -10 225 -15 219 q 42 285 21 260 q 77 331 63 311 q 101 366 92 350 q 119 397 111 382 q 127 411 124 404 q 143 418 131 418 q 154 412 150 418 q 158 399 158 406 q 154 386 158 394 l 90 238 q 49 133 67 182 q 32 56 32 85 q 54 29 32 29 q 116 54 82 29 q 186 119 150 79 q 247 192 217 153 q 303 270 276 231 q 351 347 329 310 q 388 410 372 383 q 403 421 393 421 q 417 415 414 421 q 421 406 421 410 q 415 389 421 400 q 392 328 404 360 q 367 265 381 297 q 342 208 356 240 q 317 145 329 176 q 298 87 306 114 q 290 46 290 60 q 306 25 290 25 q 350 47 322 25 q 410 101 378 69 q 473 167 442 132 q 526 225 504 201 q 539 231 532 231 q 551 226 546 231 q 557 214 557 221 q 551 201 557 207 q 500 145 531 181 q 435 75 469 110 q 367 15 401 40 q 304 -10 332 -10 m 274 592 q 259 558 274 568 q 235 549 244 549 q 213 559 219 549 q 207 581 207 569 q 219 610 207 599 q 246 622 231 622 q 267 613 260 622 q 274 592 274 603 m 386 590 q 373 558 386 568 q 349 549 360 549 q 326 559 333 549 q 319 581 319 569 q 332 610 319 597 q 360 622 344 622 q 378 614 371 622 q 386 590 386 606 z "},"":{"ha":667,"x_min":-18,"x_max":685,"o":"m 113 -428 q 51 -400 75 -428 q 26 -337 26 -372 q 37 -284 26 -310 q 64 -235 47 -258 q 100 -193 81 -212 q 139 -158 119 -174 q 242 -80 188 -117 q 342 -15 297 -43 q 395 116 369 53 q 442 232 421 179 q 383 156 417 197 q 314 80 350 115 q 242 21 278 44 q 178 -3 207 -3 q 138 13 150 -3 q 126 51 126 29 q 140 123 126 82 q 169 207 154 164 q 199 288 185 247 q 213 357 213 329 q 208 377 213 368 q 193 386 204 386 q 154 363 178 386 q 104 310 131 340 q 53 249 78 281 q 13 201 28 218 q -1 196 7 196 q -14 201 -10 196 q -18 213 -18 206 q -12 225 -18 219 q 62 313 31 276 q 117 374 93 350 q 160 408 142 397 q 194 419 178 419 q 236 400 225 419 q 247 357 247 381 q 233 283 247 325 q 203 194 219 240 q 175 118 189 158 q 161 54 161 78 q 165 38 161 44 q 178 31 169 31 q 249 67 206 31 q 339 158 292 104 q 430 274 386 213 q 501 383 474 335 q 518 393 506 393 q 535 375 535 393 q 532 364 535 369 q 490 258 508 306 q 454 169 471 210 q 422 90 438 128 q 392 15 407 53 q 458 56 426 36 q 520 99 489 75 q 584 152 551 122 q 656 225 617 182 q 669 231 661 231 q 681 225 678 231 q 685 213 685 219 q 681 201 685 206 q 531 63 610 117 q 369 -39 453 8 l 347 -92 q 312 -181 328 -137 q 276 -268 296 -225 q 248 -324 264 -296 q 212 -376 232 -353 q 167 -413 192 -399 q 113 -428 142 -428 m 319 -69 q 238 -124 281 -94 q 160 -185 196 -153 q 124 -219 142 -200 q 93 -258 107 -237 q 70 -298 79 -278 q 61 -336 61 -318 q 76 -376 61 -360 q 114 -393 90 -393 q 183 -357 151 -393 q 243 -257 214 -321 q 267 -203 256 -231 q 288 -149 278 -175 q 306 -101 299 -122 q 319 -69 314 -81 m 314 506 q 301 510 306 506 q 297 522 297 515 q 303 536 297 532 l 467 664 q 478 667 471 667 q 494 651 494 667 q 488 636 494 643 l 325 508 q 314 506 317 506 z "},"":{"ha":507,"x_min":-193,"x_max":522,"o":"m -176 -404 q -189 -399 -185 -404 q -193 -387 -193 -393 q -192 -381 -193 -383 q -149 -281 -174 -339 q -97 -160 -124 -224 q -42 -30 -69 -96 q 11 96 -14 36 l 88 289 q 52 248 69 268 q 14 201 35 228 q 0 196 8 196 q -11 201 -7 196 q -15 211 -15 206 q -11 225 -15 218 q 62 313 31 276 q 126 385 93 349 q 183 519 154 451 q 238 646 211 586 q 288 752 264 706 q 329 826 311 799 q 376 875 353 861 q 418 889 399 889 q 460 867 447 889 q 472 819 472 844 q 452 749 472 790 q 403 664 432 707 q 345 583 375 621 q 296 522 315 544 q 224 441 256 476 q 157 365 192 406 l 113 257 q 170 327 140 294 q 230 384 200 360 q 288 422 260 408 q 342 436 317 436 q 388 413 376 436 q 400 360 400 389 q 396 315 400 336 q 388 278 392 293 q 364 211 379 246 q 328 143 349 176 q 283 79 308 110 q 229 28 258 49 q 281 42 256 33 q 329 67 306 51 q 408 135 365 90 q 493 225 450 179 q 507 231 499 231 q 518 226 514 231 q 522 215 522 221 q 517 200 522 206 q 437 113 476 156 q 349 38 397 69 q 254 -2 304 8 q 161 -12 204 -12 q 99 -9 128 -12 q 64 -1 71 -6 q 53 15 53 6 q 69 33 53 33 q 87 29 76 33 q 113 25 97 25 q 183 41 154 25 q 239 83 211 57 q 309 179 279 124 q 354 288 339 235 q 363 322 358 301 q 368 361 368 342 q 363 390 368 378 q 340 401 357 401 q 277 376 314 401 q 199 308 240 351 q 116 203 157 264 q 40 74 75 143 q -56 -152 -4 -33 q -160 -394 -107 -271 q -176 -404 -165 -404 m 418 854 q 391 843 407 854 q 358 807 375 832 q 326 749 344 785 q 286 668 307 714 q 242 570 265 622 q 196 463 219 518 q 231 501 213 481 q 269 546 249 522 q 318 606 289 569 q 374 683 347 643 q 420 761 401 724 q 439 824 439 799 q 434 844 439 835 q 418 854 429 854 z "}}}
